M48
; DRILL file {KiCad (7.0.0)} date Thu Mar 16 01:18:43 2023
; FORMAT={-:-/ absolute / metric / decimal}
; #@! TF.CreationDate,2023-03-16T01:18:43+05:30
; #@! TF.GenerationSoftware,Kicad,Pcbnew,(7.0.0)
; #@! TF.FileFunction,Plated,1,2,PTH
FMAT,2
METRIC
; #@! TA.AperFunction,Plated,PTH,ViaDrill
T1C0.400
; #@! TA.AperFunction,Plated,PTH,ComponentDrill
T2C0.600
; #@! TA.AperFunction,Plated,PTH,ComponentDrill
T3C0.750
; #@! TA.AperFunction,Plated,PTH,ComponentDrill
T4C0.800
; #@! TA.AperFunction,Plated,PTH,ComponentDrill
T5C0.900
; #@! TA.AperFunction,Plated,PTH,ComponentDrill
T6C1.000
; #@! TA.AperFunction,Plated,PTH,ComponentDrill
T7C1.020
; #@! TA.AperFunction,Plated,PTH,ComponentDrill
T8C1.100
; #@! TA.AperFunction,Plated,PTH,ComponentDrill
T9C1.300
%
G90
G05
T1
X45.665Y-45.065
X45.665Y-53.065
X47.065Y-32.565
T2
X37.465Y-37.708
X37.465Y-39.708
X55.065Y-36.065
X55.065Y-38.065
T3
X62.865Y-80.645
X62.865Y-81.915
X62.865Y-83.185
X66.675Y-36.028
X66.675Y-37.298
X66.675Y-38.568
T4
X22.255Y-47.985
X22.255Y-58.145
X25.065Y-29.615
X25.065Y-32.115
X26.065Y-47.985
X26.065Y-58.145
X28.585Y-28.665
X28.585Y-32.221
X29.21Y-83.86
X29.21Y-88.86
X33.02Y-84.455
X36.068Y-43.688
X36.068Y-53.848
X38.745Y-28.665
X38.745Y-32.221
X39.624Y-43.688
X39.624Y-53.848
X40.386Y-60.325
X41.91Y-34.925
X41.91Y-39.925
X43.18Y-43.688
X43.18Y-53.848
X43.18Y-84.455
X46.99Y-83.82
X47.625Y-88.265
X50.292Y-48.26
X50.292Y-55.88
X50.546Y-60.325
X51.083Y-43.688
X52.832Y-48.26
X52.832Y-55.88
X53.34Y-60.325
X53.623Y-43.688
X54.448Y-31.202
X55.372Y-48.26
X55.372Y-55.88
X57.15Y-83.82
X57.785Y-88.265
X57.912Y-48.26
X57.912Y-55.88
X60.325Y-35.56
X60.325Y-40.56
X60.452Y-48.26
X60.452Y-55.88
X62.738Y-44.45
X62.992Y-48.26
X62.992Y-55.88
X63.5Y-60.325
X64.608Y-31.202
X65.278Y-44.45
X65.532Y-48.26
X65.532Y-55.88
X68.62Y-57.785
X71.12Y-31.115
X71.12Y-41.275
X71.12Y-43.815
X71.12Y-53.975
X73.62Y-57.785
X74.93Y-33.06
X74.93Y-38.06
X74.93Y-43.815
X74.93Y-53.975
X80.01Y-34.925
X80.01Y-45.085
X80.01Y-47.371
X80.01Y-57.531
T5
X71.525Y-106.065
X74.065Y-106.065
T6
X30.734Y-37.846
X30.734Y-40.386
X30.734Y-42.926
X30.734Y-45.466
X30.734Y-48.006
X30.734Y-50.546
X30.734Y-53.086
X30.734Y-55.626
X30.734Y-58.166
X30.734Y-60.706
X91.365Y-96.965
X91.365Y-104.565
T7
X24.405Y-67.31
X24.405Y-92.71
X26.945Y-67.31
X26.945Y-92.71
X29.485Y-67.31
X29.485Y-92.71
X32.025Y-67.31
X32.025Y-92.71
X34.565Y-67.31
X34.565Y-92.71
X37.105Y-67.31
X37.105Y-92.71
X39.645Y-67.31
X39.645Y-92.71
X42.185Y-67.31
X42.185Y-92.71
X44.725Y-67.31
X44.725Y-92.71
X47.265Y-67.31
X47.265Y-92.71
X49.805Y-67.31
X49.805Y-92.71
X52.345Y-67.31
X52.345Y-92.71
X54.885Y-67.31
X54.885Y-92.71
X57.425Y-67.31
X57.425Y-92.71
X59.965Y-67.31
X59.965Y-92.71
T8
X49.551Y-32.99
X49.551Y-35.53
X49.551Y-38.07
T9
X20.066Y-19.05
X25.146Y-19.05
X26.58Y-105.065
X30.226Y-19.05
X31.66Y-105.065
X36.74Y-105.065
X39.116Y-19.05
X44.196Y-19.05
X46.905Y-105.065
X51.985Y-105.065
X53.594Y-18.999
X57.065Y-105.065
X58.674Y-18.999
X62.145Y-105.065
X63.754Y-18.999
X73.66Y-19.05
X78.74Y-19.05
X92.456Y-20.066
X92.456Y-25.146
X92.456Y-30.226
X92.456Y-37.338
X92.456Y-42.418
X92.456Y-47.498
X92.71Y-54.864
X92.71Y-59.944
X92.71Y-65.024
X92.71Y-70.104
X92.71Y-75.184
X92.71Y-80.264
X92.71Y-85.344
T0
M30
