G04 #@! TF.GenerationSoftware,KiCad,Pcbnew,(7.0.0)*
G04 #@! TF.CreationDate,2023-03-16T01:16:54+05:30*
G04 #@! TF.ProjectId,final_year v1.0,66696e61-6c5f-4796-9561-722076312e30,rev?*
G04 #@! TF.SameCoordinates,Original*
G04 #@! TF.FileFunction,Soldermask,Top*
G04 #@! TF.FilePolarity,Negative*
%FSLAX46Y46*%
G04 Gerber Fmt 4.6, Leading zero omitted, Abs format (unit mm)*
G04 Created by KiCad (PCBNEW (7.0.0)) date 2023-03-16 01:16:54*
%MOMM*%
%LPD*%
G01*
G04 APERTURE LIST*
%ADD10C,1.600000*%
%ADD11O,1.600000X1.600000*%
%ADD12R,2.600000X2.600000*%
%ADD13C,2.600000*%
%ADD14R,2.000000X1.905000*%
%ADD15O,2.000000X1.905000*%
%ADD16R,1.200000X1.200000*%
%ADD17C,1.200000*%
%ADD18C,3.200000*%
%ADD19R,1.800000X1.800000*%
%ADD20C,1.800000*%
%ADD21R,1.500000X1.050000*%
%ADD22O,1.500000X1.050000*%
%ADD23R,1.508000X1.508000*%
%ADD24C,1.508000*%
%ADD25R,2.000000X2.000000*%
%ADD26C,2.000000*%
%ADD27R,1.600000X1.600000*%
G04 APERTURE END LIST*
D10*
X28585000Y-28665000D03*
D11*
X38744999Y-28664999D03*
D12*
X92455999Y-47497999D03*
D13*
X92456000Y-42418000D03*
X92456000Y-37338000D03*
D14*
X49550999Y-38069999D03*
D15*
X49550999Y-35529999D03*
X49550999Y-32989999D03*
D10*
X80010000Y-47371000D03*
D11*
X80009999Y-57530999D03*
D16*
X37464999Y-39707599D03*
D17*
X37465000Y-37707600D03*
D10*
X39624000Y-43688000D03*
D11*
X39623999Y-53847999D03*
D10*
X47625000Y-88265000D03*
D11*
X57784999Y-88264999D03*
D12*
X46904999Y-105064999D03*
D13*
X51985000Y-105065000D03*
X57065000Y-105065000D03*
X62145000Y-105065000D03*
D12*
X63753999Y-18998999D03*
D13*
X58674000Y-18999000D03*
X53594000Y-18999000D03*
D10*
X50546000Y-60325000D03*
D11*
X40385999Y-60324999D03*
D10*
X63500000Y-60325000D03*
D11*
X53339999Y-60324999D03*
D10*
X43180000Y-84455000D03*
D11*
X33019999Y-84454999D03*
D10*
X62738000Y-44450000D03*
D11*
X65277999Y-44449999D03*
D10*
X22255000Y-58145000D03*
D11*
X22254999Y-47984999D03*
D10*
X43180000Y-43688000D03*
D11*
X43179999Y-53847999D03*
D10*
X71120000Y-31115000D03*
D11*
X71119999Y-41274999D03*
D10*
X26065000Y-47985000D03*
D11*
X26064999Y-58144999D03*
D12*
X26579999Y-105064999D03*
D13*
X31660000Y-105065000D03*
X36740000Y-105065000D03*
D18*
X80765000Y-29065000D03*
D19*
X74064999Y-106064999D03*
D20*
X71525000Y-106065000D03*
D16*
X55064999Y-36064999D03*
D17*
X55065000Y-38065000D03*
D10*
X60325000Y-35560000D03*
X60325000Y-40560000D03*
D21*
X66674999Y-38567999D03*
D22*
X66674999Y-37297999D03*
X66674999Y-36027999D03*
D12*
X30225999Y-19049999D03*
D13*
X25146000Y-19050000D03*
X20066000Y-19050000D03*
D23*
X30733999Y-37845999D03*
D24*
X30734000Y-40386000D03*
X30734000Y-42926000D03*
X30734000Y-45466000D03*
X30734000Y-48006000D03*
X30734000Y-50546000D03*
X30734000Y-53086000D03*
X30734000Y-55626000D03*
X30734000Y-58166000D03*
X30734000Y-60706000D03*
D10*
X25065000Y-32115000D03*
X25065000Y-29615000D03*
D18*
X18765000Y-100165000D03*
D12*
X92709999Y-85343999D03*
D13*
X92710000Y-80264000D03*
X92710000Y-75184000D03*
X92710000Y-70104000D03*
X92710000Y-65024000D03*
X92710000Y-59944000D03*
X92710000Y-54864000D03*
D21*
X62864999Y-80644999D03*
D22*
X62864999Y-81914999D03*
X62864999Y-83184999D03*
D10*
X29210000Y-88860000D03*
X29210000Y-83860000D03*
X28585000Y-32221000D03*
D11*
X38744999Y-32220999D03*
D12*
X44195999Y-19049999D03*
D13*
X39116000Y-19050000D03*
D10*
X74930000Y-43815000D03*
D11*
X74929999Y-53974999D03*
D18*
X77165000Y-96165000D03*
D12*
X92455999Y-30225999D03*
D13*
X92456000Y-25146000D03*
X92456000Y-20066000D03*
D10*
X74930000Y-33060000D03*
X74930000Y-38060000D03*
D12*
X78739999Y-19049999D03*
D13*
X73660000Y-19050000D03*
D10*
X53623000Y-43688000D03*
D11*
X51082999Y-43687999D03*
D10*
X36068000Y-53848000D03*
D11*
X36067999Y-43687999D03*
D25*
X59964999Y-67309999D03*
D26*
X57425000Y-67310000D03*
X54885000Y-67310000D03*
X52345000Y-67310000D03*
X49805000Y-67310000D03*
X47265000Y-67310000D03*
X44725000Y-67310000D03*
X42185000Y-67310000D03*
X39645000Y-67310000D03*
X37105000Y-67310000D03*
X34565000Y-67310000D03*
X32025000Y-67310000D03*
X29485000Y-67310000D03*
X26945000Y-67310000D03*
X24405000Y-67310000D03*
X24405000Y-92710000D03*
X26945000Y-92710000D03*
X29485000Y-92710000D03*
X32025000Y-92710000D03*
X34565000Y-92710000D03*
X37105000Y-92710000D03*
X39645000Y-92710000D03*
X42185000Y-92710000D03*
X44725000Y-92710000D03*
X47265000Y-92710000D03*
X49805000Y-92710000D03*
X52345000Y-92710000D03*
X54885000Y-92710000D03*
X57425000Y-92710000D03*
X59965000Y-92710000D03*
D10*
X71120000Y-43815000D03*
D11*
X71119999Y-53974999D03*
D10*
X54448000Y-31202000D03*
D11*
X64607999Y-31201999D03*
D10*
X57150000Y-83820000D03*
D11*
X46989999Y-83819999D03*
D10*
X41910000Y-39925000D03*
X41910000Y-34925000D03*
D27*
X65531999Y-48259999D03*
D11*
X62991999Y-48259999D03*
X60451999Y-48259999D03*
X57911999Y-48259999D03*
X55371999Y-48259999D03*
X52831999Y-48259999D03*
X50291999Y-48259999D03*
X50291999Y-55879999D03*
X52831999Y-55879999D03*
X55371999Y-55879999D03*
X57911999Y-55879999D03*
X60451999Y-55879999D03*
X62991999Y-55879999D03*
X65531999Y-55879999D03*
D25*
X91364999Y-104564999D03*
D26*
X91365000Y-96965000D03*
D10*
X68620000Y-57785000D03*
X73620000Y-57785000D03*
X80010000Y-34925000D03*
D11*
X80009999Y-45084999D03*
D18*
X18765000Y-30465000D03*
M02*
