%TF.GenerationSoftware,KiCad,Pcbnew,(7.0.0)*%
%TF.CreationDate,2023-03-16T01:18:49+05:30*%
%TF.ProjectId,final_year v1.0,66696e61-6c5f-4796-9561-722076312e30,rev?*%
%TF.SameCoordinates,Original*%
%TF.FileFunction,Drillmap*%
%TF.FilePolarity,Positive*%
%FSLAX45Y45*%
G04 Gerber Fmt 4.5, Leading zero omitted, Abs format (unit mm)*
G04 Created by KiCad (PCBNEW (7.0.0)) date 2023-03-16 01:18:49*
%MOMM*%
%LPD*%
G01*
G04 APERTURE LIST*
%ADD10C,0.100000*%
%ADD11C,0.200000*%
%ADD12C,0.040000*%
%ADD13C,0.060000*%
%ADD14C,0.075000*%
%ADD15C,0.080000*%
%ADD16C,0.090000*%
%ADD17C,0.102000*%
%ADD18C,0.110000*%
%ADD19C,0.130000*%
G04 APERTURE END LIST*
D10*
X1206500Y-1206500D02*
X10206500Y-1206500D01*
X10206500Y-1206500D02*
X10206500Y-11206500D01*
X10206500Y-11206500D02*
X1206500Y-11206500D01*
X1206500Y-11206500D02*
X1206500Y-1206500D01*
D11*
D12*
X4546500Y-4486500D02*
X4586500Y-4526500D01*
X4586500Y-4486500D02*
X4546500Y-4526500D01*
X4546500Y-5286500D02*
X4586500Y-5326500D01*
X4586500Y-5286500D02*
X4546500Y-5326500D01*
X4686500Y-3236500D02*
X4726500Y-3276500D01*
X4726500Y-3236500D02*
X4686500Y-3276500D01*
D13*
X3776500Y-3770760D02*
G75*
G03*
X3776500Y-3770760I-30000J0D01*
G01*
X3776500Y-3970760D02*
G75*
G03*
X3776500Y-3970760I-30000J0D01*
G01*
X5536500Y-3606500D02*
G75*
G03*
X5536500Y-3606500I-30000J0D01*
G01*
X5536500Y-3806500D02*
G75*
G03*
X5536500Y-3806500I-30000J0D01*
G01*
D14*
X6286500Y-8027000D02*
X6286500Y-8102000D01*
X6249000Y-8064500D02*
X6324000Y-8064500D01*
X6286500Y-8154000D02*
X6286500Y-8229000D01*
X6249000Y-8191500D02*
X6324000Y-8191500D01*
X6286500Y-8281000D02*
X6286500Y-8356000D01*
X6249000Y-8318500D02*
X6324000Y-8318500D01*
X6667500Y-3565300D02*
X6667500Y-3640300D01*
X6630000Y-3602800D02*
X6705000Y-3602800D01*
X6667500Y-3692300D02*
X6667500Y-3767300D01*
X6630000Y-3729800D02*
X6705000Y-3729800D01*
X6667500Y-3819300D02*
X6667500Y-3894300D01*
X6630000Y-3856800D02*
X6705000Y-3856800D01*
D15*
X2253785Y-4826785D02*
X2253785Y-4770216D01*
X2197216Y-4770216D01*
X2197216Y-4826785D01*
X2253785Y-4826785D01*
X2253785Y-5842784D02*
X2253785Y-5786215D01*
X2197216Y-5786215D01*
X2197216Y-5842784D01*
X2253785Y-5842784D01*
X2534785Y-2989784D02*
X2534785Y-2933215D01*
X2478216Y-2933215D01*
X2478216Y-2989784D01*
X2534785Y-2989784D01*
X2534785Y-3239784D02*
X2534785Y-3183215D01*
X2478216Y-3183215D01*
X2478216Y-3239784D01*
X2534785Y-3239784D01*
X2634785Y-4826785D02*
X2634785Y-4770216D01*
X2578216Y-4770216D01*
X2578216Y-4826785D01*
X2634785Y-4826785D01*
X2634785Y-5842784D02*
X2634785Y-5786215D01*
X2578216Y-5786215D01*
X2578216Y-5842784D01*
X2634785Y-5842784D01*
X2886784Y-2894784D02*
X2886784Y-2838215D01*
X2830215Y-2838215D01*
X2830215Y-2894784D01*
X2886784Y-2894784D01*
X2886784Y-3250384D02*
X2886784Y-3193815D01*
X2830215Y-3193815D01*
X2830215Y-3250384D01*
X2886784Y-3250384D01*
X2949284Y-8414285D02*
X2949284Y-8357715D01*
X2892715Y-8357715D01*
X2892715Y-8414285D01*
X2949284Y-8414285D01*
X2949284Y-8914285D02*
X2949284Y-8857716D01*
X2892715Y-8857716D01*
X2892715Y-8914285D01*
X2949284Y-8914285D01*
X3330284Y-8473785D02*
X3330284Y-8417216D01*
X3273715Y-8417216D01*
X3273715Y-8473785D01*
X3330284Y-8473785D01*
X3635084Y-4397085D02*
X3635084Y-4340516D01*
X3578515Y-4340516D01*
X3578515Y-4397085D01*
X3635084Y-4397085D01*
X3635084Y-5413085D02*
X3635084Y-5356516D01*
X3578515Y-5356516D01*
X3578515Y-5413085D01*
X3635084Y-5413085D01*
X3902784Y-2894784D02*
X3902784Y-2838215D01*
X3846215Y-2838215D01*
X3846215Y-2894784D01*
X3902784Y-2894784D01*
X3902784Y-3250384D02*
X3902784Y-3193815D01*
X3846215Y-3193815D01*
X3846215Y-3250384D01*
X3902784Y-3250384D01*
X3990684Y-4397085D02*
X3990684Y-4340516D01*
X3934115Y-4340516D01*
X3934115Y-4397085D01*
X3990684Y-4397085D01*
X3990684Y-5413085D02*
X3990684Y-5356516D01*
X3934115Y-5356516D01*
X3934115Y-5413085D01*
X3990684Y-5413085D01*
X4066884Y-6060784D02*
X4066884Y-6004215D01*
X4010315Y-6004215D01*
X4010315Y-6060784D01*
X4066884Y-6060784D01*
X4219285Y-3520784D02*
X4219285Y-3464215D01*
X4162715Y-3464215D01*
X4162715Y-3520784D01*
X4219285Y-3520784D01*
X4219285Y-4020784D02*
X4219285Y-3964215D01*
X4162715Y-3964215D01*
X4162715Y-4020784D01*
X4219285Y-4020784D01*
X4346285Y-4397085D02*
X4346285Y-4340516D01*
X4289716Y-4340516D01*
X4289716Y-4397085D01*
X4346285Y-4397085D01*
X4346285Y-5413085D02*
X4346285Y-5356516D01*
X4289716Y-5356516D01*
X4289716Y-5413085D01*
X4346285Y-5413085D01*
X4346285Y-8473785D02*
X4346285Y-8417216D01*
X4289716Y-8417216D01*
X4289716Y-8473785D01*
X4346285Y-8473785D01*
X4727285Y-8410285D02*
X4727285Y-8353715D01*
X4670716Y-8353715D01*
X4670716Y-8410285D01*
X4727285Y-8410285D01*
X4790785Y-8854785D02*
X4790785Y-8798216D01*
X4734216Y-8798216D01*
X4734216Y-8854785D01*
X4790785Y-8854785D01*
X5057485Y-4854285D02*
X5057485Y-4797716D01*
X5000916Y-4797716D01*
X5000916Y-4854285D01*
X5057485Y-4854285D01*
X5057485Y-5616284D02*
X5057485Y-5559716D01*
X5000916Y-5559716D01*
X5000916Y-5616284D01*
X5057485Y-5616284D01*
X5082885Y-6060784D02*
X5082885Y-6004215D01*
X5026316Y-6004215D01*
X5026316Y-6060784D01*
X5082885Y-6060784D01*
X5136585Y-4397085D02*
X5136585Y-4340516D01*
X5080016Y-4340516D01*
X5080016Y-4397085D01*
X5136585Y-4397085D01*
X5311485Y-4854285D02*
X5311485Y-4797716D01*
X5254916Y-4797716D01*
X5254916Y-4854285D01*
X5311485Y-4854285D01*
X5311485Y-5616284D02*
X5311485Y-5559716D01*
X5254916Y-5559716D01*
X5254916Y-5616284D01*
X5311485Y-5616284D01*
X5362285Y-6060784D02*
X5362285Y-6004215D01*
X5305716Y-6004215D01*
X5305716Y-6060784D01*
X5362285Y-6060784D01*
X5390585Y-4397085D02*
X5390585Y-4340516D01*
X5334016Y-4340516D01*
X5334016Y-4397085D01*
X5390585Y-4397085D01*
X5473085Y-3148484D02*
X5473085Y-3091915D01*
X5416516Y-3091915D01*
X5416516Y-3148484D01*
X5473085Y-3148484D01*
X5565485Y-4854285D02*
X5565485Y-4797716D01*
X5508916Y-4797716D01*
X5508916Y-4854285D01*
X5565485Y-4854285D01*
X5565485Y-5616284D02*
X5565485Y-5559716D01*
X5508916Y-5559716D01*
X5508916Y-5616284D01*
X5565485Y-5616284D01*
X5743284Y-8410285D02*
X5743284Y-8353715D01*
X5686715Y-8353715D01*
X5686715Y-8410285D01*
X5743284Y-8410285D01*
X5806784Y-8854785D02*
X5806784Y-8798216D01*
X5750215Y-8798216D01*
X5750215Y-8854785D01*
X5806784Y-8854785D01*
X5819484Y-4854285D02*
X5819484Y-4797716D01*
X5762915Y-4797716D01*
X5762915Y-4854285D01*
X5819484Y-4854285D01*
X5819484Y-5616284D02*
X5819484Y-5559716D01*
X5762915Y-5559716D01*
X5762915Y-5616284D01*
X5819484Y-5616284D01*
X6060784Y-3584284D02*
X6060784Y-3527715D01*
X6004215Y-3527715D01*
X6004215Y-3584284D01*
X6060784Y-3584284D01*
X6060784Y-4084284D02*
X6060784Y-4027715D01*
X6004215Y-4027715D01*
X6004215Y-4084284D01*
X6060784Y-4084284D01*
X6073484Y-4854285D02*
X6073484Y-4797716D01*
X6016915Y-4797716D01*
X6016915Y-4854285D01*
X6073484Y-4854285D01*
X6073484Y-5616284D02*
X6073484Y-5559716D01*
X6016915Y-5559716D01*
X6016915Y-5616284D01*
X6073484Y-5616284D01*
X6302084Y-4473285D02*
X6302084Y-4416716D01*
X6245515Y-4416716D01*
X6245515Y-4473285D01*
X6302084Y-4473285D01*
X6327484Y-4854285D02*
X6327484Y-4797716D01*
X6270915Y-4797716D01*
X6270915Y-4854285D01*
X6327484Y-4854285D01*
X6327484Y-5616284D02*
X6327484Y-5559716D01*
X6270915Y-5559716D01*
X6270915Y-5616284D01*
X6327484Y-5616284D01*
X6378284Y-6060784D02*
X6378284Y-6004215D01*
X6321715Y-6004215D01*
X6321715Y-6060784D01*
X6378284Y-6060784D01*
X6489084Y-3148484D02*
X6489084Y-3091915D01*
X6432515Y-3091915D01*
X6432515Y-3148484D01*
X6489084Y-3148484D01*
X6556084Y-4473285D02*
X6556084Y-4416716D01*
X6499515Y-4416716D01*
X6499515Y-4473285D01*
X6556084Y-4473285D01*
X6581484Y-4854285D02*
X6581484Y-4797716D01*
X6524915Y-4797716D01*
X6524915Y-4854285D01*
X6581484Y-4854285D01*
X6581484Y-5616284D02*
X6581484Y-5559716D01*
X6524915Y-5559716D01*
X6524915Y-5616284D01*
X6581484Y-5616284D01*
X6890284Y-5806784D02*
X6890284Y-5750215D01*
X6833715Y-5750215D01*
X6833715Y-5806784D01*
X6890284Y-5806784D01*
X7140284Y-3139784D02*
X7140284Y-3083215D01*
X7083715Y-3083215D01*
X7083715Y-3139784D01*
X7140284Y-3139784D01*
X7140284Y-4155784D02*
X7140284Y-4099215D01*
X7083715Y-4099215D01*
X7083715Y-4155784D01*
X7140284Y-4155784D01*
X7140284Y-4409785D02*
X7140284Y-4353216D01*
X7083715Y-4353216D01*
X7083715Y-4409785D01*
X7140284Y-4409785D01*
X7140284Y-5425785D02*
X7140284Y-5369216D01*
X7083715Y-5369216D01*
X7083715Y-5425785D01*
X7140284Y-5425785D01*
X7390284Y-5806784D02*
X7390284Y-5750215D01*
X7333715Y-5750215D01*
X7333715Y-5806784D01*
X7390284Y-5806784D01*
X7521284Y-3334284D02*
X7521284Y-3277715D01*
X7464715Y-3277715D01*
X7464715Y-3334284D01*
X7521284Y-3334284D01*
X7521284Y-3834284D02*
X7521284Y-3777715D01*
X7464715Y-3777715D01*
X7464715Y-3834284D01*
X7521284Y-3834284D01*
X7521284Y-4409785D02*
X7521284Y-4353216D01*
X7464715Y-4353216D01*
X7464715Y-4409785D01*
X7521284Y-4409785D01*
X7521284Y-5425785D02*
X7521284Y-5369216D01*
X7464715Y-5369216D01*
X7464715Y-5425785D01*
X7521284Y-5425785D01*
X8029284Y-3520784D02*
X8029284Y-3464215D01*
X7972715Y-3464215D01*
X7972715Y-3520784D01*
X8029284Y-3520784D01*
X8029284Y-4536785D02*
X8029284Y-4480216D01*
X7972715Y-4480216D01*
X7972715Y-4536785D01*
X8029284Y-4536785D01*
X8029284Y-4765385D02*
X8029284Y-4708816D01*
X7972715Y-4708816D01*
X7972715Y-4765385D01*
X8029284Y-4765385D01*
X8029284Y-5781384D02*
X8029284Y-5724815D01*
X7972715Y-5724815D01*
X7972715Y-5781384D01*
X8029284Y-5781384D01*
D16*
X7152500Y-10651500D02*
X7197500Y-10606500D01*
X7152500Y-10561500D01*
X7107500Y-10606500D01*
X7152500Y-10651500D01*
X7406500Y-10651500D02*
X7451500Y-10606500D01*
X7406500Y-10561500D01*
X7361500Y-10606500D01*
X7406500Y-10651500D01*
D10*
X3023400Y-3734600D02*
X3123400Y-3834600D01*
X3123400Y-3734600D02*
X3023400Y-3834600D01*
X3123400Y-3784600D02*
G75*
G03*
X3123400Y-3784600I-50000J0D01*
G01*
X3023400Y-3988600D02*
X3123400Y-4088600D01*
X3123400Y-3988600D02*
X3023400Y-4088600D01*
X3123400Y-4038600D02*
G75*
G03*
X3123400Y-4038600I-50000J0D01*
G01*
X3023400Y-4242600D02*
X3123400Y-4342600D01*
X3123400Y-4242600D02*
X3023400Y-4342600D01*
X3123400Y-4292600D02*
G75*
G03*
X3123400Y-4292600I-50000J0D01*
G01*
X3023400Y-4496600D02*
X3123400Y-4596600D01*
X3123400Y-4496600D02*
X3023400Y-4596600D01*
X3123400Y-4546600D02*
G75*
G03*
X3123400Y-4546600I-50000J0D01*
G01*
X3023400Y-4750600D02*
X3123400Y-4850600D01*
X3123400Y-4750600D02*
X3023400Y-4850600D01*
X3123400Y-4800600D02*
G75*
G03*
X3123400Y-4800600I-50000J0D01*
G01*
X3023400Y-5004600D02*
X3123400Y-5104600D01*
X3123400Y-5004600D02*
X3023400Y-5104600D01*
X3123400Y-5054600D02*
G75*
G03*
X3123400Y-5054600I-50000J0D01*
G01*
X3023400Y-5258600D02*
X3123400Y-5358600D01*
X3123400Y-5258600D02*
X3023400Y-5358600D01*
X3123400Y-5308600D02*
G75*
G03*
X3123400Y-5308600I-50000J0D01*
G01*
X3023400Y-5512600D02*
X3123400Y-5612600D01*
X3123400Y-5512600D02*
X3023400Y-5612600D01*
X3123400Y-5562600D02*
G75*
G03*
X3123400Y-5562600I-50000J0D01*
G01*
X3023400Y-5766600D02*
X3123400Y-5866600D01*
X3123400Y-5766600D02*
X3023400Y-5866600D01*
X3123400Y-5816600D02*
G75*
G03*
X3123400Y-5816600I-50000J0D01*
G01*
X3023400Y-6020600D02*
X3123400Y-6120600D01*
X3123400Y-6020600D02*
X3023400Y-6120600D01*
X3123400Y-6070600D02*
G75*
G03*
X3123400Y-6070600I-50000J0D01*
G01*
X9086500Y-9646500D02*
X9186500Y-9746500D01*
X9186500Y-9646500D02*
X9086500Y-9746500D01*
X9186500Y-9696500D02*
G75*
G03*
X9186500Y-9696500I-50000J0D01*
G01*
X9086500Y-10406500D02*
X9186500Y-10506500D01*
X9186500Y-10406500D02*
X9086500Y-10506500D01*
X9186500Y-10456500D02*
G75*
G03*
X9186500Y-10456500I-50000J0D01*
G01*
D17*
X2389500Y-6680000D02*
X2491500Y-6782000D01*
X2491500Y-6680000D02*
X2389500Y-6782000D01*
X2440500Y-6680000D02*
X2440500Y-6782000D01*
X2389500Y-6731000D02*
X2491500Y-6731000D01*
X2389500Y-9220000D02*
X2491500Y-9322000D01*
X2491500Y-9220000D02*
X2389500Y-9322000D01*
X2440500Y-9220000D02*
X2440500Y-9322000D01*
X2389500Y-9271000D02*
X2491500Y-9271000D01*
X2643500Y-6680000D02*
X2745500Y-6782000D01*
X2745500Y-6680000D02*
X2643500Y-6782000D01*
X2694500Y-6680000D02*
X2694500Y-6782000D01*
X2643500Y-6731000D02*
X2745500Y-6731000D01*
X2643500Y-9220000D02*
X2745500Y-9322000D01*
X2745500Y-9220000D02*
X2643500Y-9322000D01*
X2694500Y-9220000D02*
X2694500Y-9322000D01*
X2643500Y-9271000D02*
X2745500Y-9271000D01*
X2897500Y-6680000D02*
X2999500Y-6782000D01*
X2999500Y-6680000D02*
X2897500Y-6782000D01*
X2948500Y-6680000D02*
X2948500Y-6782000D01*
X2897500Y-6731000D02*
X2999500Y-6731000D01*
X2897500Y-9220000D02*
X2999500Y-9322000D01*
X2999500Y-9220000D02*
X2897500Y-9322000D01*
X2948500Y-9220000D02*
X2948500Y-9322000D01*
X2897500Y-9271000D02*
X2999500Y-9271000D01*
X3151500Y-6680000D02*
X3253500Y-6782000D01*
X3253500Y-6680000D02*
X3151500Y-6782000D01*
X3202500Y-6680000D02*
X3202500Y-6782000D01*
X3151500Y-6731000D02*
X3253500Y-6731000D01*
X3151500Y-9220000D02*
X3253500Y-9322000D01*
X3253500Y-9220000D02*
X3151500Y-9322000D01*
X3202500Y-9220000D02*
X3202500Y-9322000D01*
X3151500Y-9271000D02*
X3253500Y-9271000D01*
X3405500Y-6680000D02*
X3507500Y-6782000D01*
X3507500Y-6680000D02*
X3405500Y-6782000D01*
X3456500Y-6680000D02*
X3456500Y-6782000D01*
X3405500Y-6731000D02*
X3507500Y-6731000D01*
X3405500Y-9220000D02*
X3507500Y-9322000D01*
X3507500Y-9220000D02*
X3405500Y-9322000D01*
X3456500Y-9220000D02*
X3456500Y-9322000D01*
X3405500Y-9271000D02*
X3507500Y-9271000D01*
X3659500Y-6680000D02*
X3761500Y-6782000D01*
X3761500Y-6680000D02*
X3659500Y-6782000D01*
X3710500Y-6680000D02*
X3710500Y-6782000D01*
X3659500Y-6731000D02*
X3761500Y-6731000D01*
X3659500Y-9220000D02*
X3761500Y-9322000D01*
X3761500Y-9220000D02*
X3659500Y-9322000D01*
X3710500Y-9220000D02*
X3710500Y-9322000D01*
X3659500Y-9271000D02*
X3761500Y-9271000D01*
X3913500Y-6680000D02*
X4015500Y-6782000D01*
X4015500Y-6680000D02*
X3913500Y-6782000D01*
X3964500Y-6680000D02*
X3964500Y-6782000D01*
X3913500Y-6731000D02*
X4015500Y-6731000D01*
X3913500Y-9220000D02*
X4015500Y-9322000D01*
X4015500Y-9220000D02*
X3913500Y-9322000D01*
X3964500Y-9220000D02*
X3964500Y-9322000D01*
X3913500Y-9271000D02*
X4015500Y-9271000D01*
X4167500Y-6680000D02*
X4269500Y-6782000D01*
X4269500Y-6680000D02*
X4167500Y-6782000D01*
X4218500Y-6680000D02*
X4218500Y-6782000D01*
X4167500Y-6731000D02*
X4269500Y-6731000D01*
X4167500Y-9220000D02*
X4269500Y-9322000D01*
X4269500Y-9220000D02*
X4167500Y-9322000D01*
X4218500Y-9220000D02*
X4218500Y-9322000D01*
X4167500Y-9271000D02*
X4269500Y-9271000D01*
X4421500Y-6680000D02*
X4523500Y-6782000D01*
X4523500Y-6680000D02*
X4421500Y-6782000D01*
X4472500Y-6680000D02*
X4472500Y-6782000D01*
X4421500Y-6731000D02*
X4523500Y-6731000D01*
X4421500Y-9220000D02*
X4523500Y-9322000D01*
X4523500Y-9220000D02*
X4421500Y-9322000D01*
X4472500Y-9220000D02*
X4472500Y-9322000D01*
X4421500Y-9271000D02*
X4523500Y-9271000D01*
X4675500Y-6680000D02*
X4777500Y-6782000D01*
X4777500Y-6680000D02*
X4675500Y-6782000D01*
X4726500Y-6680000D02*
X4726500Y-6782000D01*
X4675500Y-6731000D02*
X4777500Y-6731000D01*
X4675500Y-9220000D02*
X4777500Y-9322000D01*
X4777500Y-9220000D02*
X4675500Y-9322000D01*
X4726500Y-9220000D02*
X4726500Y-9322000D01*
X4675500Y-9271000D02*
X4777500Y-9271000D01*
X4929500Y-6680000D02*
X5031500Y-6782000D01*
X5031500Y-6680000D02*
X4929500Y-6782000D01*
X4980500Y-6680000D02*
X4980500Y-6782000D01*
X4929500Y-6731000D02*
X5031500Y-6731000D01*
X4929500Y-9220000D02*
X5031500Y-9322000D01*
X5031500Y-9220000D02*
X4929500Y-9322000D01*
X4980500Y-9220000D02*
X4980500Y-9322000D01*
X4929500Y-9271000D02*
X5031500Y-9271000D01*
X5183500Y-6680000D02*
X5285500Y-6782000D01*
X5285500Y-6680000D02*
X5183500Y-6782000D01*
X5234500Y-6680000D02*
X5234500Y-6782000D01*
X5183500Y-6731000D02*
X5285500Y-6731000D01*
X5183500Y-9220000D02*
X5285500Y-9322000D01*
X5285500Y-9220000D02*
X5183500Y-9322000D01*
X5234500Y-9220000D02*
X5234500Y-9322000D01*
X5183500Y-9271000D02*
X5285500Y-9271000D01*
X5437500Y-6680000D02*
X5539500Y-6782000D01*
X5539500Y-6680000D02*
X5437500Y-6782000D01*
X5488500Y-6680000D02*
X5488500Y-6782000D01*
X5437500Y-6731000D02*
X5539500Y-6731000D01*
X5437500Y-9220000D02*
X5539500Y-9322000D01*
X5539500Y-9220000D02*
X5437500Y-9322000D01*
X5488500Y-9220000D02*
X5488500Y-9322000D01*
X5437500Y-9271000D02*
X5539500Y-9271000D01*
X5691500Y-6680000D02*
X5793500Y-6782000D01*
X5793500Y-6680000D02*
X5691500Y-6782000D01*
X5742500Y-6680000D02*
X5742500Y-6782000D01*
X5691500Y-6731000D02*
X5793500Y-6731000D01*
X5691500Y-9220000D02*
X5793500Y-9322000D01*
X5793500Y-9220000D02*
X5691500Y-9322000D01*
X5742500Y-9220000D02*
X5742500Y-9322000D01*
X5691500Y-9271000D02*
X5793500Y-9271000D01*
X5945500Y-6680000D02*
X6047500Y-6782000D01*
X6047500Y-6680000D02*
X5945500Y-6782000D01*
X5996500Y-6680000D02*
X5996500Y-6782000D01*
X5945500Y-6731000D02*
X6047500Y-6731000D01*
X5945500Y-9220000D02*
X6047500Y-9322000D01*
X6047500Y-9220000D02*
X5945500Y-9322000D01*
X5996500Y-9220000D02*
X5996500Y-9322000D01*
X5945500Y-9271000D02*
X6047500Y-9271000D01*
D18*
X4900100Y-3244000D02*
X5010100Y-3354000D01*
X5010100Y-3244000D02*
X4900100Y-3354000D01*
X4993991Y-3337891D02*
X4993991Y-3260109D01*
X4916209Y-3260109D01*
X4916209Y-3337891D01*
X4993991Y-3337891D01*
X4900100Y-3498000D02*
X5010100Y-3608000D01*
X5010100Y-3498000D02*
X4900100Y-3608000D01*
X4993991Y-3591891D02*
X4993991Y-3514109D01*
X4916209Y-3514109D01*
X4916209Y-3591891D01*
X4993991Y-3591891D01*
X4900100Y-3752000D02*
X5010100Y-3862000D01*
X5010100Y-3752000D02*
X4900100Y-3862000D01*
X4993991Y-3845891D02*
X4993991Y-3768109D01*
X4916209Y-3768109D01*
X4916209Y-3845891D01*
X4993991Y-3845891D01*
D19*
X1941600Y-1840000D02*
X2071600Y-1970000D01*
X2071600Y-1840000D02*
X1941600Y-1970000D01*
X2006600Y-1970000D02*
X2071600Y-1905000D01*
X2006600Y-1840000D01*
X1941600Y-1905000D01*
X2006600Y-1970000D01*
X2449600Y-1840000D02*
X2579600Y-1970000D01*
X2579600Y-1840000D02*
X2449600Y-1970000D01*
X2514600Y-1970000D02*
X2579600Y-1905000D01*
X2514600Y-1840000D01*
X2449600Y-1905000D01*
X2514600Y-1970000D01*
X2593000Y-10441500D02*
X2723000Y-10571500D01*
X2723000Y-10441500D02*
X2593000Y-10571500D01*
X2658000Y-10571500D02*
X2723000Y-10506500D01*
X2658000Y-10441500D01*
X2593000Y-10506500D01*
X2658000Y-10571500D01*
X2957600Y-1840000D02*
X3087600Y-1970000D01*
X3087600Y-1840000D02*
X2957600Y-1970000D01*
X3022600Y-1970000D02*
X3087600Y-1905000D01*
X3022600Y-1840000D01*
X2957600Y-1905000D01*
X3022600Y-1970000D01*
X3101000Y-10441500D02*
X3231000Y-10571500D01*
X3231000Y-10441500D02*
X3101000Y-10571500D01*
X3166000Y-10571500D02*
X3231000Y-10506500D01*
X3166000Y-10441500D01*
X3101000Y-10506500D01*
X3166000Y-10571500D01*
X3609000Y-10441500D02*
X3739000Y-10571500D01*
X3739000Y-10441500D02*
X3609000Y-10571500D01*
X3674000Y-10571500D02*
X3739000Y-10506500D01*
X3674000Y-10441500D01*
X3609000Y-10506500D01*
X3674000Y-10571500D01*
X3846600Y-1840000D02*
X3976600Y-1970000D01*
X3976600Y-1840000D02*
X3846600Y-1970000D01*
X3911600Y-1970000D02*
X3976600Y-1905000D01*
X3911600Y-1840000D01*
X3846600Y-1905000D01*
X3911600Y-1970000D01*
X4354600Y-1840000D02*
X4484600Y-1970000D01*
X4484600Y-1840000D02*
X4354600Y-1970000D01*
X4419600Y-1970000D02*
X4484600Y-1905000D01*
X4419600Y-1840000D01*
X4354600Y-1905000D01*
X4419600Y-1970000D01*
X4625500Y-10441500D02*
X4755500Y-10571500D01*
X4755500Y-10441500D02*
X4625500Y-10571500D01*
X4690500Y-10571500D02*
X4755500Y-10506500D01*
X4690500Y-10441500D01*
X4625500Y-10506500D01*
X4690500Y-10571500D01*
X5133500Y-10441500D02*
X5263500Y-10571500D01*
X5263500Y-10441500D02*
X5133500Y-10571500D01*
X5198500Y-10571500D02*
X5263500Y-10506500D01*
X5198500Y-10441500D01*
X5133500Y-10506500D01*
X5198500Y-10571500D01*
X5294400Y-1834900D02*
X5424400Y-1964900D01*
X5424400Y-1834900D02*
X5294400Y-1964900D01*
X5359400Y-1964900D02*
X5424400Y-1899900D01*
X5359400Y-1834900D01*
X5294400Y-1899900D01*
X5359400Y-1964900D01*
X5641500Y-10441500D02*
X5771500Y-10571500D01*
X5771500Y-10441500D02*
X5641500Y-10571500D01*
X5706500Y-10571500D02*
X5771500Y-10506500D01*
X5706500Y-10441500D01*
X5641500Y-10506500D01*
X5706500Y-10571500D01*
X5802400Y-1834900D02*
X5932400Y-1964900D01*
X5932400Y-1834900D02*
X5802400Y-1964900D01*
X5867400Y-1964900D02*
X5932400Y-1899900D01*
X5867400Y-1834900D01*
X5802400Y-1899900D01*
X5867400Y-1964900D01*
X6149500Y-10441500D02*
X6279500Y-10571500D01*
X6279500Y-10441500D02*
X6149500Y-10571500D01*
X6214500Y-10571500D02*
X6279500Y-10506500D01*
X6214500Y-10441500D01*
X6149500Y-10506500D01*
X6214500Y-10571500D01*
X6310400Y-1834900D02*
X6440400Y-1964900D01*
X6440400Y-1834900D02*
X6310400Y-1964900D01*
X6375400Y-1964900D02*
X6440400Y-1899900D01*
X6375400Y-1834900D01*
X6310400Y-1899900D01*
X6375400Y-1964900D01*
X7301000Y-1840000D02*
X7431000Y-1970000D01*
X7431000Y-1840000D02*
X7301000Y-1970000D01*
X7366000Y-1970000D02*
X7431000Y-1905000D01*
X7366000Y-1840000D01*
X7301000Y-1905000D01*
X7366000Y-1970000D01*
X7809000Y-1840000D02*
X7939000Y-1970000D01*
X7939000Y-1840000D02*
X7809000Y-1970000D01*
X7874000Y-1970000D02*
X7939000Y-1905000D01*
X7874000Y-1840000D01*
X7809000Y-1905000D01*
X7874000Y-1970000D01*
X9180600Y-1941600D02*
X9310600Y-2071600D01*
X9310600Y-1941600D02*
X9180600Y-2071600D01*
X9245600Y-2071600D02*
X9310600Y-2006600D01*
X9245600Y-1941600D01*
X9180600Y-2006600D01*
X9245600Y-2071600D01*
X9180600Y-2449600D02*
X9310600Y-2579600D01*
X9310600Y-2449600D02*
X9180600Y-2579600D01*
X9245600Y-2579600D02*
X9310600Y-2514600D01*
X9245600Y-2449600D01*
X9180600Y-2514600D01*
X9245600Y-2579600D01*
X9180600Y-2957600D02*
X9310600Y-3087600D01*
X9310600Y-2957600D02*
X9180600Y-3087600D01*
X9245600Y-3087600D02*
X9310600Y-3022600D01*
X9245600Y-2957600D01*
X9180600Y-3022600D01*
X9245600Y-3087600D01*
X9180600Y-3668800D02*
X9310600Y-3798800D01*
X9310600Y-3668800D02*
X9180600Y-3798800D01*
X9245600Y-3798800D02*
X9310600Y-3733800D01*
X9245600Y-3668800D01*
X9180600Y-3733800D01*
X9245600Y-3798800D01*
X9180600Y-4176800D02*
X9310600Y-4306800D01*
X9310600Y-4176800D02*
X9180600Y-4306800D01*
X9245600Y-4306800D02*
X9310600Y-4241800D01*
X9245600Y-4176800D01*
X9180600Y-4241800D01*
X9245600Y-4306800D01*
X9180600Y-4684800D02*
X9310600Y-4814800D01*
X9310600Y-4684800D02*
X9180600Y-4814800D01*
X9245600Y-4814800D02*
X9310600Y-4749800D01*
X9245600Y-4684800D01*
X9180600Y-4749800D01*
X9245600Y-4814800D01*
X9206000Y-5421400D02*
X9336000Y-5551400D01*
X9336000Y-5421400D02*
X9206000Y-5551400D01*
X9271000Y-5551400D02*
X9336000Y-5486400D01*
X9271000Y-5421400D01*
X9206000Y-5486400D01*
X9271000Y-5551400D01*
X9206000Y-5929400D02*
X9336000Y-6059400D01*
X9336000Y-5929400D02*
X9206000Y-6059400D01*
X9271000Y-6059400D02*
X9336000Y-5994400D01*
X9271000Y-5929400D01*
X9206000Y-5994400D01*
X9271000Y-6059400D01*
X9206000Y-6437400D02*
X9336000Y-6567400D01*
X9336000Y-6437400D02*
X9206000Y-6567400D01*
X9271000Y-6567400D02*
X9336000Y-6502400D01*
X9271000Y-6437400D01*
X9206000Y-6502400D01*
X9271000Y-6567400D01*
X9206000Y-6945400D02*
X9336000Y-7075400D01*
X9336000Y-6945400D02*
X9206000Y-7075400D01*
X9271000Y-7075400D02*
X9336000Y-7010400D01*
X9271000Y-6945400D01*
X9206000Y-7010400D01*
X9271000Y-7075400D01*
X9206000Y-7453400D02*
X9336000Y-7583400D01*
X9336000Y-7453400D02*
X9206000Y-7583400D01*
X9271000Y-7583400D02*
X9336000Y-7518400D01*
X9271000Y-7453400D01*
X9206000Y-7518400D01*
X9271000Y-7583400D01*
X9206000Y-7961400D02*
X9336000Y-8091400D01*
X9336000Y-7961400D02*
X9206000Y-8091400D01*
X9271000Y-8091400D02*
X9336000Y-8026400D01*
X9271000Y-7961400D01*
X9206000Y-8026400D01*
X9271000Y-8091400D01*
X9206000Y-8469400D02*
X9336000Y-8599400D01*
X9336000Y-8469400D02*
X9206000Y-8599400D01*
X9271000Y-8599400D02*
X9336000Y-8534400D01*
X9271000Y-8469400D01*
X9206000Y-8534400D01*
X9271000Y-8599400D01*
D11*
X1449119Y-11504976D02*
X1449119Y-11304976D01*
X1449119Y-11304976D02*
X1496738Y-11304976D01*
X1496738Y-11304976D02*
X1525309Y-11314500D01*
X1525309Y-11314500D02*
X1544357Y-11333548D01*
X1544357Y-11333548D02*
X1553881Y-11352595D01*
X1553881Y-11352595D02*
X1563405Y-11390690D01*
X1563405Y-11390690D02*
X1563405Y-11419262D01*
X1563405Y-11419262D02*
X1553881Y-11457357D01*
X1553881Y-11457357D02*
X1544357Y-11476405D01*
X1544357Y-11476405D02*
X1525309Y-11495452D01*
X1525309Y-11495452D02*
X1496738Y-11504976D01*
X1496738Y-11504976D02*
X1449119Y-11504976D01*
X1649119Y-11504976D02*
X1649119Y-11371643D01*
X1649119Y-11409738D02*
X1658643Y-11390690D01*
X1658643Y-11390690D02*
X1668167Y-11381167D01*
X1668167Y-11381167D02*
X1687214Y-11371643D01*
X1687214Y-11371643D02*
X1706262Y-11371643D01*
X1772928Y-11504976D02*
X1772928Y-11371643D01*
X1772928Y-11304976D02*
X1763405Y-11314500D01*
X1763405Y-11314500D02*
X1772928Y-11324024D01*
X1772928Y-11324024D02*
X1782452Y-11314500D01*
X1782452Y-11314500D02*
X1772928Y-11304976D01*
X1772928Y-11304976D02*
X1772928Y-11324024D01*
X1896738Y-11504976D02*
X1877690Y-11495452D01*
X1877690Y-11495452D02*
X1868167Y-11476405D01*
X1868167Y-11476405D02*
X1868167Y-11304976D01*
X2001500Y-11504976D02*
X1982452Y-11495452D01*
X1982452Y-11495452D02*
X1972928Y-11476405D01*
X1972928Y-11476405D02*
X1972928Y-11304976D01*
X2197690Y-11504976D02*
X2197690Y-11304976D01*
X2197690Y-11304976D02*
X2264357Y-11447833D01*
X2264357Y-11447833D02*
X2331024Y-11304976D01*
X2331024Y-11304976D02*
X2331024Y-11504976D01*
X2511976Y-11504976D02*
X2511976Y-11400214D01*
X2511976Y-11400214D02*
X2502452Y-11381167D01*
X2502452Y-11381167D02*
X2483405Y-11371643D01*
X2483405Y-11371643D02*
X2445309Y-11371643D01*
X2445309Y-11371643D02*
X2426262Y-11381167D01*
X2511976Y-11495452D02*
X2492929Y-11504976D01*
X2492929Y-11504976D02*
X2445309Y-11504976D01*
X2445309Y-11504976D02*
X2426262Y-11495452D01*
X2426262Y-11495452D02*
X2416738Y-11476405D01*
X2416738Y-11476405D02*
X2416738Y-11457357D01*
X2416738Y-11457357D02*
X2426262Y-11438309D01*
X2426262Y-11438309D02*
X2445309Y-11428786D01*
X2445309Y-11428786D02*
X2492929Y-11428786D01*
X2492929Y-11428786D02*
X2511976Y-11419262D01*
X2607214Y-11371643D02*
X2607214Y-11571643D01*
X2607214Y-11381167D02*
X2626262Y-11371643D01*
X2626262Y-11371643D02*
X2664357Y-11371643D01*
X2664357Y-11371643D02*
X2683405Y-11381167D01*
X2683405Y-11381167D02*
X2692929Y-11390690D01*
X2692929Y-11390690D02*
X2702452Y-11409738D01*
X2702452Y-11409738D02*
X2702452Y-11466881D01*
X2702452Y-11466881D02*
X2692929Y-11485928D01*
X2692929Y-11485928D02*
X2683405Y-11495452D01*
X2683405Y-11495452D02*
X2664357Y-11504976D01*
X2664357Y-11504976D02*
X2626262Y-11504976D01*
X2626262Y-11504976D02*
X2607214Y-11495452D01*
X2788167Y-11485928D02*
X2797690Y-11495452D01*
X2797690Y-11495452D02*
X2788167Y-11504976D01*
X2788167Y-11504976D02*
X2778643Y-11495452D01*
X2778643Y-11495452D02*
X2788167Y-11485928D01*
X2788167Y-11485928D02*
X2788167Y-11504976D01*
X2788167Y-11381167D02*
X2797690Y-11390690D01*
X2797690Y-11390690D02*
X2788167Y-11400214D01*
X2788167Y-11400214D02*
X2778643Y-11390690D01*
X2778643Y-11390690D02*
X2788167Y-11381167D01*
X2788167Y-11381167D02*
X2788167Y-11400214D01*
D12*
X1161500Y-11831500D02*
X1201500Y-11871500D01*
X1201500Y-11831500D02*
X1161500Y-11871500D01*
D11*
X1487214Y-11724976D02*
X1506262Y-11724976D01*
X1506262Y-11724976D02*
X1525309Y-11734500D01*
X1525309Y-11734500D02*
X1534833Y-11744024D01*
X1534833Y-11744024D02*
X1544357Y-11763071D01*
X1544357Y-11763071D02*
X1553881Y-11801167D01*
X1553881Y-11801167D02*
X1553881Y-11848786D01*
X1553881Y-11848786D02*
X1544357Y-11886881D01*
X1544357Y-11886881D02*
X1534833Y-11905928D01*
X1534833Y-11905928D02*
X1525309Y-11915452D01*
X1525309Y-11915452D02*
X1506262Y-11924976D01*
X1506262Y-11924976D02*
X1487214Y-11924976D01*
X1487214Y-11924976D02*
X1468167Y-11915452D01*
X1468167Y-11915452D02*
X1458643Y-11905928D01*
X1458643Y-11905928D02*
X1449119Y-11886881D01*
X1449119Y-11886881D02*
X1439595Y-11848786D01*
X1439595Y-11848786D02*
X1439595Y-11801167D01*
X1439595Y-11801167D02*
X1449119Y-11763071D01*
X1449119Y-11763071D02*
X1458643Y-11744024D01*
X1458643Y-11744024D02*
X1468167Y-11734500D01*
X1468167Y-11734500D02*
X1487214Y-11724976D01*
X1639595Y-11905928D02*
X1649119Y-11915452D01*
X1649119Y-11915452D02*
X1639595Y-11924976D01*
X1639595Y-11924976D02*
X1630071Y-11915452D01*
X1630071Y-11915452D02*
X1639595Y-11905928D01*
X1639595Y-11905928D02*
X1639595Y-11924976D01*
X1820548Y-11791643D02*
X1820548Y-11924976D01*
X1772928Y-11715452D02*
X1725309Y-11858309D01*
X1725309Y-11858309D02*
X1849119Y-11858309D01*
X1963405Y-11724976D02*
X1982452Y-11724976D01*
X1982452Y-11724976D02*
X2001500Y-11734500D01*
X2001500Y-11734500D02*
X2011024Y-11744024D01*
X2011024Y-11744024D02*
X2020548Y-11763071D01*
X2020548Y-11763071D02*
X2030071Y-11801167D01*
X2030071Y-11801167D02*
X2030071Y-11848786D01*
X2030071Y-11848786D02*
X2020548Y-11886881D01*
X2020548Y-11886881D02*
X2011024Y-11905928D01*
X2011024Y-11905928D02*
X2001500Y-11915452D01*
X2001500Y-11915452D02*
X1982452Y-11924976D01*
X1982452Y-11924976D02*
X1963405Y-11924976D01*
X1963405Y-11924976D02*
X1944357Y-11915452D01*
X1944357Y-11915452D02*
X1934833Y-11905928D01*
X1934833Y-11905928D02*
X1925309Y-11886881D01*
X1925309Y-11886881D02*
X1915786Y-11848786D01*
X1915786Y-11848786D02*
X1915786Y-11801167D01*
X1915786Y-11801167D02*
X1925309Y-11763071D01*
X1925309Y-11763071D02*
X1934833Y-11744024D01*
X1934833Y-11744024D02*
X1944357Y-11734500D01*
X1944357Y-11734500D02*
X1963405Y-11724976D01*
X2153881Y-11724976D02*
X2172929Y-11724976D01*
X2172929Y-11724976D02*
X2191976Y-11734500D01*
X2191976Y-11734500D02*
X2201500Y-11744024D01*
X2201500Y-11744024D02*
X2211024Y-11763071D01*
X2211024Y-11763071D02*
X2220548Y-11801167D01*
X2220548Y-11801167D02*
X2220548Y-11848786D01*
X2220548Y-11848786D02*
X2211024Y-11886881D01*
X2211024Y-11886881D02*
X2201500Y-11905928D01*
X2201500Y-11905928D02*
X2191976Y-11915452D01*
X2191976Y-11915452D02*
X2172929Y-11924976D01*
X2172929Y-11924976D02*
X2153881Y-11924976D01*
X2153881Y-11924976D02*
X2134833Y-11915452D01*
X2134833Y-11915452D02*
X2125310Y-11905928D01*
X2125310Y-11905928D02*
X2115786Y-11886881D01*
X2115786Y-11886881D02*
X2106262Y-11848786D01*
X2106262Y-11848786D02*
X2106262Y-11801167D01*
X2106262Y-11801167D02*
X2115786Y-11763071D01*
X2115786Y-11763071D02*
X2125310Y-11744024D01*
X2125310Y-11744024D02*
X2134833Y-11734500D01*
X2134833Y-11734500D02*
X2153881Y-11724976D01*
X2306262Y-11924976D02*
X2306262Y-11791643D01*
X2306262Y-11810690D02*
X2315786Y-11801167D01*
X2315786Y-11801167D02*
X2334833Y-11791643D01*
X2334833Y-11791643D02*
X2363405Y-11791643D01*
X2363405Y-11791643D02*
X2382452Y-11801167D01*
X2382452Y-11801167D02*
X2391976Y-11820214D01*
X2391976Y-11820214D02*
X2391976Y-11924976D01*
X2391976Y-11820214D02*
X2401500Y-11801167D01*
X2401500Y-11801167D02*
X2420548Y-11791643D01*
X2420548Y-11791643D02*
X2449119Y-11791643D01*
X2449119Y-11791643D02*
X2468167Y-11801167D01*
X2468167Y-11801167D02*
X2477691Y-11820214D01*
X2477691Y-11820214D02*
X2477691Y-11924976D01*
X2572929Y-11924976D02*
X2572929Y-11791643D01*
X2572929Y-11810690D02*
X2582452Y-11801167D01*
X2582452Y-11801167D02*
X2601500Y-11791643D01*
X2601500Y-11791643D02*
X2630072Y-11791643D01*
X2630072Y-11791643D02*
X2649119Y-11801167D01*
X2649119Y-11801167D02*
X2658643Y-11820214D01*
X2658643Y-11820214D02*
X2658643Y-11924976D01*
X2658643Y-11820214D02*
X2668167Y-11801167D01*
X2668167Y-11801167D02*
X2687214Y-11791643D01*
X2687214Y-11791643D02*
X2715786Y-11791643D01*
X2715786Y-11791643D02*
X2734833Y-11801167D01*
X2734833Y-11801167D02*
X2744357Y-11820214D01*
X2744357Y-11820214D02*
X2744357Y-11924976D01*
X3102452Y-11715452D02*
X2931024Y-11972595D01*
X3327214Y-11724976D02*
X3346262Y-11724976D01*
X3346262Y-11724976D02*
X3365310Y-11734500D01*
X3365310Y-11734500D02*
X3374833Y-11744024D01*
X3374833Y-11744024D02*
X3384357Y-11763071D01*
X3384357Y-11763071D02*
X3393881Y-11801167D01*
X3393881Y-11801167D02*
X3393881Y-11848786D01*
X3393881Y-11848786D02*
X3384357Y-11886881D01*
X3384357Y-11886881D02*
X3374833Y-11905928D01*
X3374833Y-11905928D02*
X3365310Y-11915452D01*
X3365310Y-11915452D02*
X3346262Y-11924976D01*
X3346262Y-11924976D02*
X3327214Y-11924976D01*
X3327214Y-11924976D02*
X3308167Y-11915452D01*
X3308167Y-11915452D02*
X3298643Y-11905928D01*
X3298643Y-11905928D02*
X3289119Y-11886881D01*
X3289119Y-11886881D02*
X3279595Y-11848786D01*
X3279595Y-11848786D02*
X3279595Y-11801167D01*
X3279595Y-11801167D02*
X3289119Y-11763071D01*
X3289119Y-11763071D02*
X3298643Y-11744024D01*
X3298643Y-11744024D02*
X3308167Y-11734500D01*
X3308167Y-11734500D02*
X3327214Y-11724976D01*
X3479595Y-11905928D02*
X3489119Y-11915452D01*
X3489119Y-11915452D02*
X3479595Y-11924976D01*
X3479595Y-11924976D02*
X3470071Y-11915452D01*
X3470071Y-11915452D02*
X3479595Y-11905928D01*
X3479595Y-11905928D02*
X3479595Y-11924976D01*
X3612929Y-11724976D02*
X3631976Y-11724976D01*
X3631976Y-11724976D02*
X3651024Y-11734500D01*
X3651024Y-11734500D02*
X3660548Y-11744024D01*
X3660548Y-11744024D02*
X3670071Y-11763071D01*
X3670071Y-11763071D02*
X3679595Y-11801167D01*
X3679595Y-11801167D02*
X3679595Y-11848786D01*
X3679595Y-11848786D02*
X3670071Y-11886881D01*
X3670071Y-11886881D02*
X3660548Y-11905928D01*
X3660548Y-11905928D02*
X3651024Y-11915452D01*
X3651024Y-11915452D02*
X3631976Y-11924976D01*
X3631976Y-11924976D02*
X3612929Y-11924976D01*
X3612929Y-11924976D02*
X3593881Y-11915452D01*
X3593881Y-11915452D02*
X3584357Y-11905928D01*
X3584357Y-11905928D02*
X3574833Y-11886881D01*
X3574833Y-11886881D02*
X3565310Y-11848786D01*
X3565310Y-11848786D02*
X3565310Y-11801167D01*
X3565310Y-11801167D02*
X3574833Y-11763071D01*
X3574833Y-11763071D02*
X3584357Y-11744024D01*
X3584357Y-11744024D02*
X3593881Y-11734500D01*
X3593881Y-11734500D02*
X3612929Y-11724976D01*
X3870071Y-11924976D02*
X3755786Y-11924976D01*
X3812929Y-11924976D02*
X3812929Y-11724976D01*
X3812929Y-11724976D02*
X3793881Y-11753548D01*
X3793881Y-11753548D02*
X3774833Y-11772595D01*
X3774833Y-11772595D02*
X3755786Y-11782119D01*
X4051024Y-11724976D02*
X3955786Y-11724976D01*
X3955786Y-11724976D02*
X3946262Y-11820214D01*
X3946262Y-11820214D02*
X3955786Y-11810690D01*
X3955786Y-11810690D02*
X3974833Y-11801167D01*
X3974833Y-11801167D02*
X4022452Y-11801167D01*
X4022452Y-11801167D02*
X4041500Y-11810690D01*
X4041500Y-11810690D02*
X4051024Y-11820214D01*
X4051024Y-11820214D02*
X4060548Y-11839262D01*
X4060548Y-11839262D02*
X4060548Y-11886881D01*
X4060548Y-11886881D02*
X4051024Y-11905928D01*
X4051024Y-11905928D02*
X4041500Y-11915452D01*
X4041500Y-11915452D02*
X4022452Y-11924976D01*
X4022452Y-11924976D02*
X3974833Y-11924976D01*
X3974833Y-11924976D02*
X3955786Y-11915452D01*
X3955786Y-11915452D02*
X3946262Y-11905928D01*
X4127214Y-11724976D02*
X4260548Y-11724976D01*
X4260548Y-11724976D02*
X4174833Y-11924976D01*
X4327214Y-11724976D02*
X4327214Y-11763071D01*
X4403405Y-11724976D02*
X4403405Y-11763071D01*
X4666262Y-12001167D02*
X4656738Y-11991643D01*
X4656738Y-11991643D02*
X4637691Y-11963071D01*
X4637691Y-11963071D02*
X4628167Y-11944024D01*
X4628167Y-11944024D02*
X4618643Y-11915452D01*
X4618643Y-11915452D02*
X4609119Y-11867833D01*
X4609119Y-11867833D02*
X4609119Y-11829738D01*
X4609119Y-11829738D02*
X4618643Y-11782119D01*
X4618643Y-11782119D02*
X4628167Y-11753548D01*
X4628167Y-11753548D02*
X4637691Y-11734500D01*
X4637691Y-11734500D02*
X4656738Y-11705928D01*
X4656738Y-11705928D02*
X4666262Y-11696405D01*
X4723405Y-11724976D02*
X4847214Y-11724976D01*
X4847214Y-11724976D02*
X4780548Y-11801167D01*
X4780548Y-11801167D02*
X4809119Y-11801167D01*
X4809119Y-11801167D02*
X4828167Y-11810690D01*
X4828167Y-11810690D02*
X4837691Y-11820214D01*
X4837691Y-11820214D02*
X4847214Y-11839262D01*
X4847214Y-11839262D02*
X4847214Y-11886881D01*
X4847214Y-11886881D02*
X4837691Y-11905928D01*
X4837691Y-11905928D02*
X4828167Y-11915452D01*
X4828167Y-11915452D02*
X4809119Y-11924976D01*
X4809119Y-11924976D02*
X4751976Y-11924976D01*
X4751976Y-11924976D02*
X4732929Y-11915452D01*
X4732929Y-11915452D02*
X4723405Y-11905928D01*
X5052929Y-11924976D02*
X5052929Y-11724976D01*
X5138643Y-11924976D02*
X5138643Y-11820214D01*
X5138643Y-11820214D02*
X5129119Y-11801167D01*
X5129119Y-11801167D02*
X5110072Y-11791643D01*
X5110072Y-11791643D02*
X5081500Y-11791643D01*
X5081500Y-11791643D02*
X5062453Y-11801167D01*
X5062453Y-11801167D02*
X5052929Y-11810690D01*
X5262453Y-11924976D02*
X5243405Y-11915452D01*
X5243405Y-11915452D02*
X5233881Y-11905928D01*
X5233881Y-11905928D02*
X5224357Y-11886881D01*
X5224357Y-11886881D02*
X5224357Y-11829738D01*
X5224357Y-11829738D02*
X5233881Y-11810690D01*
X5233881Y-11810690D02*
X5243405Y-11801167D01*
X5243405Y-11801167D02*
X5262453Y-11791643D01*
X5262453Y-11791643D02*
X5291024Y-11791643D01*
X5291024Y-11791643D02*
X5310072Y-11801167D01*
X5310072Y-11801167D02*
X5319595Y-11810690D01*
X5319595Y-11810690D02*
X5329119Y-11829738D01*
X5329119Y-11829738D02*
X5329119Y-11886881D01*
X5329119Y-11886881D02*
X5319595Y-11905928D01*
X5319595Y-11905928D02*
X5310072Y-11915452D01*
X5310072Y-11915452D02*
X5291024Y-11924976D01*
X5291024Y-11924976D02*
X5262453Y-11924976D01*
X5443405Y-11924976D02*
X5424357Y-11915452D01*
X5424357Y-11915452D02*
X5414834Y-11896405D01*
X5414834Y-11896405D02*
X5414834Y-11724976D01*
X5595786Y-11915452D02*
X5576738Y-11924976D01*
X5576738Y-11924976D02*
X5538643Y-11924976D01*
X5538643Y-11924976D02*
X5519595Y-11915452D01*
X5519595Y-11915452D02*
X5510072Y-11896405D01*
X5510072Y-11896405D02*
X5510072Y-11820214D01*
X5510072Y-11820214D02*
X5519595Y-11801167D01*
X5519595Y-11801167D02*
X5538643Y-11791643D01*
X5538643Y-11791643D02*
X5576738Y-11791643D01*
X5576738Y-11791643D02*
X5595786Y-11801167D01*
X5595786Y-11801167D02*
X5605310Y-11820214D01*
X5605310Y-11820214D02*
X5605310Y-11839262D01*
X5605310Y-11839262D02*
X5510072Y-11858309D01*
X5681500Y-11915452D02*
X5700548Y-11924976D01*
X5700548Y-11924976D02*
X5738643Y-11924976D01*
X5738643Y-11924976D02*
X5757691Y-11915452D01*
X5757691Y-11915452D02*
X5767214Y-11896405D01*
X5767214Y-11896405D02*
X5767214Y-11886881D01*
X5767214Y-11886881D02*
X5757691Y-11867833D01*
X5757691Y-11867833D02*
X5738643Y-11858309D01*
X5738643Y-11858309D02*
X5710072Y-11858309D01*
X5710072Y-11858309D02*
X5691024Y-11848786D01*
X5691024Y-11848786D02*
X5681500Y-11829738D01*
X5681500Y-11829738D02*
X5681500Y-11820214D01*
X5681500Y-11820214D02*
X5691024Y-11801167D01*
X5691024Y-11801167D02*
X5710072Y-11791643D01*
X5710072Y-11791643D02*
X5738643Y-11791643D01*
X5738643Y-11791643D02*
X5757691Y-11801167D01*
X5833881Y-12001167D02*
X5843405Y-11991643D01*
X5843405Y-11991643D02*
X5862453Y-11963071D01*
X5862453Y-11963071D02*
X5871976Y-11944024D01*
X5871976Y-11944024D02*
X5881500Y-11915452D01*
X5881500Y-11915452D02*
X5891024Y-11867833D01*
X5891024Y-11867833D02*
X5891024Y-11829738D01*
X5891024Y-11829738D02*
X5881500Y-11782119D01*
X5881500Y-11782119D02*
X5871976Y-11753548D01*
X5871976Y-11753548D02*
X5862453Y-11734500D01*
X5862453Y-11734500D02*
X5843405Y-11705928D01*
X5843405Y-11705928D02*
X5833881Y-11696405D01*
D13*
X1201500Y-12115500D02*
G75*
G03*
X1201500Y-12115500I-30000J0D01*
G01*
D11*
X1487214Y-11988976D02*
X1506262Y-11988976D01*
X1506262Y-11988976D02*
X1525309Y-11998500D01*
X1525309Y-11998500D02*
X1534833Y-12008024D01*
X1534833Y-12008024D02*
X1544357Y-12027071D01*
X1544357Y-12027071D02*
X1553881Y-12065167D01*
X1553881Y-12065167D02*
X1553881Y-12112786D01*
X1553881Y-12112786D02*
X1544357Y-12150881D01*
X1544357Y-12150881D02*
X1534833Y-12169928D01*
X1534833Y-12169928D02*
X1525309Y-12179452D01*
X1525309Y-12179452D02*
X1506262Y-12188976D01*
X1506262Y-12188976D02*
X1487214Y-12188976D01*
X1487214Y-12188976D02*
X1468167Y-12179452D01*
X1468167Y-12179452D02*
X1458643Y-12169928D01*
X1458643Y-12169928D02*
X1449119Y-12150881D01*
X1449119Y-12150881D02*
X1439595Y-12112786D01*
X1439595Y-12112786D02*
X1439595Y-12065167D01*
X1439595Y-12065167D02*
X1449119Y-12027071D01*
X1449119Y-12027071D02*
X1458643Y-12008024D01*
X1458643Y-12008024D02*
X1468167Y-11998500D01*
X1468167Y-11998500D02*
X1487214Y-11988976D01*
X1639595Y-12169928D02*
X1649119Y-12179452D01*
X1649119Y-12179452D02*
X1639595Y-12188976D01*
X1639595Y-12188976D02*
X1630071Y-12179452D01*
X1630071Y-12179452D02*
X1639595Y-12169928D01*
X1639595Y-12169928D02*
X1639595Y-12188976D01*
X1820548Y-11988976D02*
X1782452Y-11988976D01*
X1782452Y-11988976D02*
X1763405Y-11998500D01*
X1763405Y-11998500D02*
X1753881Y-12008024D01*
X1753881Y-12008024D02*
X1734833Y-12036595D01*
X1734833Y-12036595D02*
X1725309Y-12074690D01*
X1725309Y-12074690D02*
X1725309Y-12150881D01*
X1725309Y-12150881D02*
X1734833Y-12169928D01*
X1734833Y-12169928D02*
X1744357Y-12179452D01*
X1744357Y-12179452D02*
X1763405Y-12188976D01*
X1763405Y-12188976D02*
X1801500Y-12188976D01*
X1801500Y-12188976D02*
X1820548Y-12179452D01*
X1820548Y-12179452D02*
X1830071Y-12169928D01*
X1830071Y-12169928D02*
X1839595Y-12150881D01*
X1839595Y-12150881D02*
X1839595Y-12103262D01*
X1839595Y-12103262D02*
X1830071Y-12084214D01*
X1830071Y-12084214D02*
X1820548Y-12074690D01*
X1820548Y-12074690D02*
X1801500Y-12065167D01*
X1801500Y-12065167D02*
X1763405Y-12065167D01*
X1763405Y-12065167D02*
X1744357Y-12074690D01*
X1744357Y-12074690D02*
X1734833Y-12084214D01*
X1734833Y-12084214D02*
X1725309Y-12103262D01*
X1963405Y-11988976D02*
X1982452Y-11988976D01*
X1982452Y-11988976D02*
X2001500Y-11998500D01*
X2001500Y-11998500D02*
X2011024Y-12008024D01*
X2011024Y-12008024D02*
X2020548Y-12027071D01*
X2020548Y-12027071D02*
X2030071Y-12065167D01*
X2030071Y-12065167D02*
X2030071Y-12112786D01*
X2030071Y-12112786D02*
X2020548Y-12150881D01*
X2020548Y-12150881D02*
X2011024Y-12169928D01*
X2011024Y-12169928D02*
X2001500Y-12179452D01*
X2001500Y-12179452D02*
X1982452Y-12188976D01*
X1982452Y-12188976D02*
X1963405Y-12188976D01*
X1963405Y-12188976D02*
X1944357Y-12179452D01*
X1944357Y-12179452D02*
X1934833Y-12169928D01*
X1934833Y-12169928D02*
X1925309Y-12150881D01*
X1925309Y-12150881D02*
X1915786Y-12112786D01*
X1915786Y-12112786D02*
X1915786Y-12065167D01*
X1915786Y-12065167D02*
X1925309Y-12027071D01*
X1925309Y-12027071D02*
X1934833Y-12008024D01*
X1934833Y-12008024D02*
X1944357Y-11998500D01*
X1944357Y-11998500D02*
X1963405Y-11988976D01*
X2153881Y-11988976D02*
X2172929Y-11988976D01*
X2172929Y-11988976D02*
X2191976Y-11998500D01*
X2191976Y-11998500D02*
X2201500Y-12008024D01*
X2201500Y-12008024D02*
X2211024Y-12027071D01*
X2211024Y-12027071D02*
X2220548Y-12065167D01*
X2220548Y-12065167D02*
X2220548Y-12112786D01*
X2220548Y-12112786D02*
X2211024Y-12150881D01*
X2211024Y-12150881D02*
X2201500Y-12169928D01*
X2201500Y-12169928D02*
X2191976Y-12179452D01*
X2191976Y-12179452D02*
X2172929Y-12188976D01*
X2172929Y-12188976D02*
X2153881Y-12188976D01*
X2153881Y-12188976D02*
X2134833Y-12179452D01*
X2134833Y-12179452D02*
X2125310Y-12169928D01*
X2125310Y-12169928D02*
X2115786Y-12150881D01*
X2115786Y-12150881D02*
X2106262Y-12112786D01*
X2106262Y-12112786D02*
X2106262Y-12065167D01*
X2106262Y-12065167D02*
X2115786Y-12027071D01*
X2115786Y-12027071D02*
X2125310Y-12008024D01*
X2125310Y-12008024D02*
X2134833Y-11998500D01*
X2134833Y-11998500D02*
X2153881Y-11988976D01*
X2306262Y-12188976D02*
X2306262Y-12055643D01*
X2306262Y-12074690D02*
X2315786Y-12065167D01*
X2315786Y-12065167D02*
X2334833Y-12055643D01*
X2334833Y-12055643D02*
X2363405Y-12055643D01*
X2363405Y-12055643D02*
X2382452Y-12065167D01*
X2382452Y-12065167D02*
X2391976Y-12084214D01*
X2391976Y-12084214D02*
X2391976Y-12188976D01*
X2391976Y-12084214D02*
X2401500Y-12065167D01*
X2401500Y-12065167D02*
X2420548Y-12055643D01*
X2420548Y-12055643D02*
X2449119Y-12055643D01*
X2449119Y-12055643D02*
X2468167Y-12065167D01*
X2468167Y-12065167D02*
X2477691Y-12084214D01*
X2477691Y-12084214D02*
X2477691Y-12188976D01*
X2572929Y-12188976D02*
X2572929Y-12055643D01*
X2572929Y-12074690D02*
X2582452Y-12065167D01*
X2582452Y-12065167D02*
X2601500Y-12055643D01*
X2601500Y-12055643D02*
X2630072Y-12055643D01*
X2630072Y-12055643D02*
X2649119Y-12065167D01*
X2649119Y-12065167D02*
X2658643Y-12084214D01*
X2658643Y-12084214D02*
X2658643Y-12188976D01*
X2658643Y-12084214D02*
X2668167Y-12065167D01*
X2668167Y-12065167D02*
X2687214Y-12055643D01*
X2687214Y-12055643D02*
X2715786Y-12055643D01*
X2715786Y-12055643D02*
X2734833Y-12065167D01*
X2734833Y-12065167D02*
X2744357Y-12084214D01*
X2744357Y-12084214D02*
X2744357Y-12188976D01*
X3102452Y-11979452D02*
X2931024Y-12236595D01*
X3327214Y-11988976D02*
X3346262Y-11988976D01*
X3346262Y-11988976D02*
X3365310Y-11998500D01*
X3365310Y-11998500D02*
X3374833Y-12008024D01*
X3374833Y-12008024D02*
X3384357Y-12027071D01*
X3384357Y-12027071D02*
X3393881Y-12065167D01*
X3393881Y-12065167D02*
X3393881Y-12112786D01*
X3393881Y-12112786D02*
X3384357Y-12150881D01*
X3384357Y-12150881D02*
X3374833Y-12169928D01*
X3374833Y-12169928D02*
X3365310Y-12179452D01*
X3365310Y-12179452D02*
X3346262Y-12188976D01*
X3346262Y-12188976D02*
X3327214Y-12188976D01*
X3327214Y-12188976D02*
X3308167Y-12179452D01*
X3308167Y-12179452D02*
X3298643Y-12169928D01*
X3298643Y-12169928D02*
X3289119Y-12150881D01*
X3289119Y-12150881D02*
X3279595Y-12112786D01*
X3279595Y-12112786D02*
X3279595Y-12065167D01*
X3279595Y-12065167D02*
X3289119Y-12027071D01*
X3289119Y-12027071D02*
X3298643Y-12008024D01*
X3298643Y-12008024D02*
X3308167Y-11998500D01*
X3308167Y-11998500D02*
X3327214Y-11988976D01*
X3479595Y-12169928D02*
X3489119Y-12179452D01*
X3489119Y-12179452D02*
X3479595Y-12188976D01*
X3479595Y-12188976D02*
X3470071Y-12179452D01*
X3470071Y-12179452D02*
X3479595Y-12169928D01*
X3479595Y-12169928D02*
X3479595Y-12188976D01*
X3612929Y-11988976D02*
X3631976Y-11988976D01*
X3631976Y-11988976D02*
X3651024Y-11998500D01*
X3651024Y-11998500D02*
X3660548Y-12008024D01*
X3660548Y-12008024D02*
X3670071Y-12027071D01*
X3670071Y-12027071D02*
X3679595Y-12065167D01*
X3679595Y-12065167D02*
X3679595Y-12112786D01*
X3679595Y-12112786D02*
X3670071Y-12150881D01*
X3670071Y-12150881D02*
X3660548Y-12169928D01*
X3660548Y-12169928D02*
X3651024Y-12179452D01*
X3651024Y-12179452D02*
X3631976Y-12188976D01*
X3631976Y-12188976D02*
X3612929Y-12188976D01*
X3612929Y-12188976D02*
X3593881Y-12179452D01*
X3593881Y-12179452D02*
X3584357Y-12169928D01*
X3584357Y-12169928D02*
X3574833Y-12150881D01*
X3574833Y-12150881D02*
X3565310Y-12112786D01*
X3565310Y-12112786D02*
X3565310Y-12065167D01*
X3565310Y-12065167D02*
X3574833Y-12027071D01*
X3574833Y-12027071D02*
X3584357Y-12008024D01*
X3584357Y-12008024D02*
X3593881Y-11998500D01*
X3593881Y-11998500D02*
X3612929Y-11988976D01*
X3755786Y-12008024D02*
X3765310Y-11998500D01*
X3765310Y-11998500D02*
X3784357Y-11988976D01*
X3784357Y-11988976D02*
X3831976Y-11988976D01*
X3831976Y-11988976D02*
X3851024Y-11998500D01*
X3851024Y-11998500D02*
X3860548Y-12008024D01*
X3860548Y-12008024D02*
X3870071Y-12027071D01*
X3870071Y-12027071D02*
X3870071Y-12046119D01*
X3870071Y-12046119D02*
X3860548Y-12074690D01*
X3860548Y-12074690D02*
X3746262Y-12188976D01*
X3746262Y-12188976D02*
X3870071Y-12188976D01*
X3936738Y-11988976D02*
X4060548Y-11988976D01*
X4060548Y-11988976D02*
X3993881Y-12065167D01*
X3993881Y-12065167D02*
X4022452Y-12065167D01*
X4022452Y-12065167D02*
X4041500Y-12074690D01*
X4041500Y-12074690D02*
X4051024Y-12084214D01*
X4051024Y-12084214D02*
X4060548Y-12103262D01*
X4060548Y-12103262D02*
X4060548Y-12150881D01*
X4060548Y-12150881D02*
X4051024Y-12169928D01*
X4051024Y-12169928D02*
X4041500Y-12179452D01*
X4041500Y-12179452D02*
X4022452Y-12188976D01*
X4022452Y-12188976D02*
X3965310Y-12188976D01*
X3965310Y-12188976D02*
X3946262Y-12179452D01*
X3946262Y-12179452D02*
X3936738Y-12169928D01*
X4231976Y-11988976D02*
X4193881Y-11988976D01*
X4193881Y-11988976D02*
X4174833Y-11998500D01*
X4174833Y-11998500D02*
X4165310Y-12008024D01*
X4165310Y-12008024D02*
X4146262Y-12036595D01*
X4146262Y-12036595D02*
X4136738Y-12074690D01*
X4136738Y-12074690D02*
X4136738Y-12150881D01*
X4136738Y-12150881D02*
X4146262Y-12169928D01*
X4146262Y-12169928D02*
X4155786Y-12179452D01*
X4155786Y-12179452D02*
X4174833Y-12188976D01*
X4174833Y-12188976D02*
X4212929Y-12188976D01*
X4212929Y-12188976D02*
X4231976Y-12179452D01*
X4231976Y-12179452D02*
X4241500Y-12169928D01*
X4241500Y-12169928D02*
X4251024Y-12150881D01*
X4251024Y-12150881D02*
X4251024Y-12103262D01*
X4251024Y-12103262D02*
X4241500Y-12084214D01*
X4241500Y-12084214D02*
X4231976Y-12074690D01*
X4231976Y-12074690D02*
X4212929Y-12065167D01*
X4212929Y-12065167D02*
X4174833Y-12065167D01*
X4174833Y-12065167D02*
X4155786Y-12074690D01*
X4155786Y-12074690D02*
X4146262Y-12084214D01*
X4146262Y-12084214D02*
X4136738Y-12103262D01*
X4327214Y-11988976D02*
X4327214Y-12027071D01*
X4403405Y-11988976D02*
X4403405Y-12027071D01*
X4666262Y-12265167D02*
X4656738Y-12255643D01*
X4656738Y-12255643D02*
X4637691Y-12227071D01*
X4637691Y-12227071D02*
X4628167Y-12208024D01*
X4628167Y-12208024D02*
X4618643Y-12179452D01*
X4618643Y-12179452D02*
X4609119Y-12131833D01*
X4609119Y-12131833D02*
X4609119Y-12093738D01*
X4609119Y-12093738D02*
X4618643Y-12046119D01*
X4618643Y-12046119D02*
X4628167Y-12017548D01*
X4628167Y-12017548D02*
X4637691Y-11998500D01*
X4637691Y-11998500D02*
X4656738Y-11969928D01*
X4656738Y-11969928D02*
X4666262Y-11960405D01*
X4828167Y-12055643D02*
X4828167Y-12188976D01*
X4780548Y-11979452D02*
X4732929Y-12122309D01*
X4732929Y-12122309D02*
X4856738Y-12122309D01*
X5052929Y-12188976D02*
X5052929Y-11988976D01*
X5138643Y-12188976D02*
X5138643Y-12084214D01*
X5138643Y-12084214D02*
X5129119Y-12065167D01*
X5129119Y-12065167D02*
X5110072Y-12055643D01*
X5110072Y-12055643D02*
X5081500Y-12055643D01*
X5081500Y-12055643D02*
X5062453Y-12065167D01*
X5062453Y-12065167D02*
X5052929Y-12074690D01*
X5262453Y-12188976D02*
X5243405Y-12179452D01*
X5243405Y-12179452D02*
X5233881Y-12169928D01*
X5233881Y-12169928D02*
X5224357Y-12150881D01*
X5224357Y-12150881D02*
X5224357Y-12093738D01*
X5224357Y-12093738D02*
X5233881Y-12074690D01*
X5233881Y-12074690D02*
X5243405Y-12065167D01*
X5243405Y-12065167D02*
X5262453Y-12055643D01*
X5262453Y-12055643D02*
X5291024Y-12055643D01*
X5291024Y-12055643D02*
X5310072Y-12065167D01*
X5310072Y-12065167D02*
X5319595Y-12074690D01*
X5319595Y-12074690D02*
X5329119Y-12093738D01*
X5329119Y-12093738D02*
X5329119Y-12150881D01*
X5329119Y-12150881D02*
X5319595Y-12169928D01*
X5319595Y-12169928D02*
X5310072Y-12179452D01*
X5310072Y-12179452D02*
X5291024Y-12188976D01*
X5291024Y-12188976D02*
X5262453Y-12188976D01*
X5443405Y-12188976D02*
X5424357Y-12179452D01*
X5424357Y-12179452D02*
X5414834Y-12160405D01*
X5414834Y-12160405D02*
X5414834Y-11988976D01*
X5595786Y-12179452D02*
X5576738Y-12188976D01*
X5576738Y-12188976D02*
X5538643Y-12188976D01*
X5538643Y-12188976D02*
X5519595Y-12179452D01*
X5519595Y-12179452D02*
X5510072Y-12160405D01*
X5510072Y-12160405D02*
X5510072Y-12084214D01*
X5510072Y-12084214D02*
X5519595Y-12065167D01*
X5519595Y-12065167D02*
X5538643Y-12055643D01*
X5538643Y-12055643D02*
X5576738Y-12055643D01*
X5576738Y-12055643D02*
X5595786Y-12065167D01*
X5595786Y-12065167D02*
X5605310Y-12084214D01*
X5605310Y-12084214D02*
X5605310Y-12103262D01*
X5605310Y-12103262D02*
X5510072Y-12122309D01*
X5681500Y-12179452D02*
X5700548Y-12188976D01*
X5700548Y-12188976D02*
X5738643Y-12188976D01*
X5738643Y-12188976D02*
X5757691Y-12179452D01*
X5757691Y-12179452D02*
X5767214Y-12160405D01*
X5767214Y-12160405D02*
X5767214Y-12150881D01*
X5767214Y-12150881D02*
X5757691Y-12131833D01*
X5757691Y-12131833D02*
X5738643Y-12122309D01*
X5738643Y-12122309D02*
X5710072Y-12122309D01*
X5710072Y-12122309D02*
X5691024Y-12112786D01*
X5691024Y-12112786D02*
X5681500Y-12093738D01*
X5681500Y-12093738D02*
X5681500Y-12084214D01*
X5681500Y-12084214D02*
X5691024Y-12065167D01*
X5691024Y-12065167D02*
X5710072Y-12055643D01*
X5710072Y-12055643D02*
X5738643Y-12055643D01*
X5738643Y-12055643D02*
X5757691Y-12065167D01*
X5833881Y-12265167D02*
X5843405Y-12255643D01*
X5843405Y-12255643D02*
X5862453Y-12227071D01*
X5862453Y-12227071D02*
X5871976Y-12208024D01*
X5871976Y-12208024D02*
X5881500Y-12179452D01*
X5881500Y-12179452D02*
X5891024Y-12131833D01*
X5891024Y-12131833D02*
X5891024Y-12093738D01*
X5891024Y-12093738D02*
X5881500Y-12046119D01*
X5881500Y-12046119D02*
X5871976Y-12017548D01*
X5871976Y-12017548D02*
X5862453Y-11998500D01*
X5862453Y-11998500D02*
X5843405Y-11969928D01*
X5843405Y-11969928D02*
X5833881Y-11960405D01*
D14*
X1164000Y-12342000D02*
X1164000Y-12417000D01*
X1126500Y-12379500D02*
X1201500Y-12379500D01*
D11*
X1487214Y-12252976D02*
X1506262Y-12252976D01*
X1506262Y-12252976D02*
X1525309Y-12262500D01*
X1525309Y-12262500D02*
X1534833Y-12272024D01*
X1534833Y-12272024D02*
X1544357Y-12291071D01*
X1544357Y-12291071D02*
X1553881Y-12329167D01*
X1553881Y-12329167D02*
X1553881Y-12376786D01*
X1553881Y-12376786D02*
X1544357Y-12414881D01*
X1544357Y-12414881D02*
X1534833Y-12433928D01*
X1534833Y-12433928D02*
X1525309Y-12443452D01*
X1525309Y-12443452D02*
X1506262Y-12452976D01*
X1506262Y-12452976D02*
X1487214Y-12452976D01*
X1487214Y-12452976D02*
X1468167Y-12443452D01*
X1468167Y-12443452D02*
X1458643Y-12433928D01*
X1458643Y-12433928D02*
X1449119Y-12414881D01*
X1449119Y-12414881D02*
X1439595Y-12376786D01*
X1439595Y-12376786D02*
X1439595Y-12329167D01*
X1439595Y-12329167D02*
X1449119Y-12291071D01*
X1449119Y-12291071D02*
X1458643Y-12272024D01*
X1458643Y-12272024D02*
X1468167Y-12262500D01*
X1468167Y-12262500D02*
X1487214Y-12252976D01*
X1639595Y-12433928D02*
X1649119Y-12443452D01*
X1649119Y-12443452D02*
X1639595Y-12452976D01*
X1639595Y-12452976D02*
X1630071Y-12443452D01*
X1630071Y-12443452D02*
X1639595Y-12433928D01*
X1639595Y-12433928D02*
X1639595Y-12452976D01*
X1715786Y-12252976D02*
X1849119Y-12252976D01*
X1849119Y-12252976D02*
X1763405Y-12452976D01*
X2020548Y-12252976D02*
X1925309Y-12252976D01*
X1925309Y-12252976D02*
X1915786Y-12348214D01*
X1915786Y-12348214D02*
X1925309Y-12338690D01*
X1925309Y-12338690D02*
X1944357Y-12329167D01*
X1944357Y-12329167D02*
X1991976Y-12329167D01*
X1991976Y-12329167D02*
X2011024Y-12338690D01*
X2011024Y-12338690D02*
X2020548Y-12348214D01*
X2020548Y-12348214D02*
X2030071Y-12367262D01*
X2030071Y-12367262D02*
X2030071Y-12414881D01*
X2030071Y-12414881D02*
X2020548Y-12433928D01*
X2020548Y-12433928D02*
X2011024Y-12443452D01*
X2011024Y-12443452D02*
X1991976Y-12452976D01*
X1991976Y-12452976D02*
X1944357Y-12452976D01*
X1944357Y-12452976D02*
X1925309Y-12443452D01*
X1925309Y-12443452D02*
X1915786Y-12433928D01*
X2153881Y-12252976D02*
X2172929Y-12252976D01*
X2172929Y-12252976D02*
X2191976Y-12262500D01*
X2191976Y-12262500D02*
X2201500Y-12272024D01*
X2201500Y-12272024D02*
X2211024Y-12291071D01*
X2211024Y-12291071D02*
X2220548Y-12329167D01*
X2220548Y-12329167D02*
X2220548Y-12376786D01*
X2220548Y-12376786D02*
X2211024Y-12414881D01*
X2211024Y-12414881D02*
X2201500Y-12433928D01*
X2201500Y-12433928D02*
X2191976Y-12443452D01*
X2191976Y-12443452D02*
X2172929Y-12452976D01*
X2172929Y-12452976D02*
X2153881Y-12452976D01*
X2153881Y-12452976D02*
X2134833Y-12443452D01*
X2134833Y-12443452D02*
X2125310Y-12433928D01*
X2125310Y-12433928D02*
X2115786Y-12414881D01*
X2115786Y-12414881D02*
X2106262Y-12376786D01*
X2106262Y-12376786D02*
X2106262Y-12329167D01*
X2106262Y-12329167D02*
X2115786Y-12291071D01*
X2115786Y-12291071D02*
X2125310Y-12272024D01*
X2125310Y-12272024D02*
X2134833Y-12262500D01*
X2134833Y-12262500D02*
X2153881Y-12252976D01*
X2306262Y-12452976D02*
X2306262Y-12319643D01*
X2306262Y-12338690D02*
X2315786Y-12329167D01*
X2315786Y-12329167D02*
X2334833Y-12319643D01*
X2334833Y-12319643D02*
X2363405Y-12319643D01*
X2363405Y-12319643D02*
X2382452Y-12329167D01*
X2382452Y-12329167D02*
X2391976Y-12348214D01*
X2391976Y-12348214D02*
X2391976Y-12452976D01*
X2391976Y-12348214D02*
X2401500Y-12329167D01*
X2401500Y-12329167D02*
X2420548Y-12319643D01*
X2420548Y-12319643D02*
X2449119Y-12319643D01*
X2449119Y-12319643D02*
X2468167Y-12329167D01*
X2468167Y-12329167D02*
X2477691Y-12348214D01*
X2477691Y-12348214D02*
X2477691Y-12452976D01*
X2572929Y-12452976D02*
X2572929Y-12319643D01*
X2572929Y-12338690D02*
X2582452Y-12329167D01*
X2582452Y-12329167D02*
X2601500Y-12319643D01*
X2601500Y-12319643D02*
X2630072Y-12319643D01*
X2630072Y-12319643D02*
X2649119Y-12329167D01*
X2649119Y-12329167D02*
X2658643Y-12348214D01*
X2658643Y-12348214D02*
X2658643Y-12452976D01*
X2658643Y-12348214D02*
X2668167Y-12329167D01*
X2668167Y-12329167D02*
X2687214Y-12319643D01*
X2687214Y-12319643D02*
X2715786Y-12319643D01*
X2715786Y-12319643D02*
X2734833Y-12329167D01*
X2734833Y-12329167D02*
X2744357Y-12348214D01*
X2744357Y-12348214D02*
X2744357Y-12452976D01*
X3102452Y-12243452D02*
X2931024Y-12500595D01*
X3327214Y-12252976D02*
X3346262Y-12252976D01*
X3346262Y-12252976D02*
X3365310Y-12262500D01*
X3365310Y-12262500D02*
X3374833Y-12272024D01*
X3374833Y-12272024D02*
X3384357Y-12291071D01*
X3384357Y-12291071D02*
X3393881Y-12329167D01*
X3393881Y-12329167D02*
X3393881Y-12376786D01*
X3393881Y-12376786D02*
X3384357Y-12414881D01*
X3384357Y-12414881D02*
X3374833Y-12433928D01*
X3374833Y-12433928D02*
X3365310Y-12443452D01*
X3365310Y-12443452D02*
X3346262Y-12452976D01*
X3346262Y-12452976D02*
X3327214Y-12452976D01*
X3327214Y-12452976D02*
X3308167Y-12443452D01*
X3308167Y-12443452D02*
X3298643Y-12433928D01*
X3298643Y-12433928D02*
X3289119Y-12414881D01*
X3289119Y-12414881D02*
X3279595Y-12376786D01*
X3279595Y-12376786D02*
X3279595Y-12329167D01*
X3279595Y-12329167D02*
X3289119Y-12291071D01*
X3289119Y-12291071D02*
X3298643Y-12272024D01*
X3298643Y-12272024D02*
X3308167Y-12262500D01*
X3308167Y-12262500D02*
X3327214Y-12252976D01*
X3479595Y-12433928D02*
X3489119Y-12443452D01*
X3489119Y-12443452D02*
X3479595Y-12452976D01*
X3479595Y-12452976D02*
X3470071Y-12443452D01*
X3470071Y-12443452D02*
X3479595Y-12433928D01*
X3479595Y-12433928D02*
X3479595Y-12452976D01*
X3612929Y-12252976D02*
X3631976Y-12252976D01*
X3631976Y-12252976D02*
X3651024Y-12262500D01*
X3651024Y-12262500D02*
X3660548Y-12272024D01*
X3660548Y-12272024D02*
X3670071Y-12291071D01*
X3670071Y-12291071D02*
X3679595Y-12329167D01*
X3679595Y-12329167D02*
X3679595Y-12376786D01*
X3679595Y-12376786D02*
X3670071Y-12414881D01*
X3670071Y-12414881D02*
X3660548Y-12433928D01*
X3660548Y-12433928D02*
X3651024Y-12443452D01*
X3651024Y-12443452D02*
X3631976Y-12452976D01*
X3631976Y-12452976D02*
X3612929Y-12452976D01*
X3612929Y-12452976D02*
X3593881Y-12443452D01*
X3593881Y-12443452D02*
X3584357Y-12433928D01*
X3584357Y-12433928D02*
X3574833Y-12414881D01*
X3574833Y-12414881D02*
X3565310Y-12376786D01*
X3565310Y-12376786D02*
X3565310Y-12329167D01*
X3565310Y-12329167D02*
X3574833Y-12291071D01*
X3574833Y-12291071D02*
X3584357Y-12272024D01*
X3584357Y-12272024D02*
X3593881Y-12262500D01*
X3593881Y-12262500D02*
X3612929Y-12252976D01*
X3755786Y-12272024D02*
X3765310Y-12262500D01*
X3765310Y-12262500D02*
X3784357Y-12252976D01*
X3784357Y-12252976D02*
X3831976Y-12252976D01*
X3831976Y-12252976D02*
X3851024Y-12262500D01*
X3851024Y-12262500D02*
X3860548Y-12272024D01*
X3860548Y-12272024D02*
X3870071Y-12291071D01*
X3870071Y-12291071D02*
X3870071Y-12310119D01*
X3870071Y-12310119D02*
X3860548Y-12338690D01*
X3860548Y-12338690D02*
X3746262Y-12452976D01*
X3746262Y-12452976D02*
X3870071Y-12452976D01*
X3965310Y-12452976D02*
X4003405Y-12452976D01*
X4003405Y-12452976D02*
X4022452Y-12443452D01*
X4022452Y-12443452D02*
X4031976Y-12433928D01*
X4031976Y-12433928D02*
X4051024Y-12405357D01*
X4051024Y-12405357D02*
X4060548Y-12367262D01*
X4060548Y-12367262D02*
X4060548Y-12291071D01*
X4060548Y-12291071D02*
X4051024Y-12272024D01*
X4051024Y-12272024D02*
X4041500Y-12262500D01*
X4041500Y-12262500D02*
X4022452Y-12252976D01*
X4022452Y-12252976D02*
X3984357Y-12252976D01*
X3984357Y-12252976D02*
X3965310Y-12262500D01*
X3965310Y-12262500D02*
X3955786Y-12272024D01*
X3955786Y-12272024D02*
X3946262Y-12291071D01*
X3946262Y-12291071D02*
X3946262Y-12338690D01*
X3946262Y-12338690D02*
X3955786Y-12357738D01*
X3955786Y-12357738D02*
X3965310Y-12367262D01*
X3965310Y-12367262D02*
X3984357Y-12376786D01*
X3984357Y-12376786D02*
X4022452Y-12376786D01*
X4022452Y-12376786D02*
X4041500Y-12367262D01*
X4041500Y-12367262D02*
X4051024Y-12357738D01*
X4051024Y-12357738D02*
X4060548Y-12338690D01*
X4241500Y-12252976D02*
X4146262Y-12252976D01*
X4146262Y-12252976D02*
X4136738Y-12348214D01*
X4136738Y-12348214D02*
X4146262Y-12338690D01*
X4146262Y-12338690D02*
X4165310Y-12329167D01*
X4165310Y-12329167D02*
X4212929Y-12329167D01*
X4212929Y-12329167D02*
X4231976Y-12338690D01*
X4231976Y-12338690D02*
X4241500Y-12348214D01*
X4241500Y-12348214D02*
X4251024Y-12367262D01*
X4251024Y-12367262D02*
X4251024Y-12414881D01*
X4251024Y-12414881D02*
X4241500Y-12433928D01*
X4241500Y-12433928D02*
X4231976Y-12443452D01*
X4231976Y-12443452D02*
X4212929Y-12452976D01*
X4212929Y-12452976D02*
X4165310Y-12452976D01*
X4165310Y-12452976D02*
X4146262Y-12443452D01*
X4146262Y-12443452D02*
X4136738Y-12433928D01*
X4327214Y-12252976D02*
X4327214Y-12291071D01*
X4403405Y-12252976D02*
X4403405Y-12291071D01*
X4666262Y-12529167D02*
X4656738Y-12519643D01*
X4656738Y-12519643D02*
X4637691Y-12491071D01*
X4637691Y-12491071D02*
X4628167Y-12472024D01*
X4628167Y-12472024D02*
X4618643Y-12443452D01*
X4618643Y-12443452D02*
X4609119Y-12395833D01*
X4609119Y-12395833D02*
X4609119Y-12357738D01*
X4609119Y-12357738D02*
X4618643Y-12310119D01*
X4618643Y-12310119D02*
X4628167Y-12281548D01*
X4628167Y-12281548D02*
X4637691Y-12262500D01*
X4637691Y-12262500D02*
X4656738Y-12233928D01*
X4656738Y-12233928D02*
X4666262Y-12224405D01*
X4828167Y-12252976D02*
X4790072Y-12252976D01*
X4790072Y-12252976D02*
X4771024Y-12262500D01*
X4771024Y-12262500D02*
X4761500Y-12272024D01*
X4761500Y-12272024D02*
X4742453Y-12300595D01*
X4742453Y-12300595D02*
X4732929Y-12338690D01*
X4732929Y-12338690D02*
X4732929Y-12414881D01*
X4732929Y-12414881D02*
X4742453Y-12433928D01*
X4742453Y-12433928D02*
X4751976Y-12443452D01*
X4751976Y-12443452D02*
X4771024Y-12452976D01*
X4771024Y-12452976D02*
X4809119Y-12452976D01*
X4809119Y-12452976D02*
X4828167Y-12443452D01*
X4828167Y-12443452D02*
X4837691Y-12433928D01*
X4837691Y-12433928D02*
X4847214Y-12414881D01*
X4847214Y-12414881D02*
X4847214Y-12367262D01*
X4847214Y-12367262D02*
X4837691Y-12348214D01*
X4837691Y-12348214D02*
X4828167Y-12338690D01*
X4828167Y-12338690D02*
X4809119Y-12329167D01*
X4809119Y-12329167D02*
X4771024Y-12329167D01*
X4771024Y-12329167D02*
X4751976Y-12338690D01*
X4751976Y-12338690D02*
X4742453Y-12348214D01*
X4742453Y-12348214D02*
X4732929Y-12367262D01*
X5052929Y-12452976D02*
X5052929Y-12252976D01*
X5138643Y-12452976D02*
X5138643Y-12348214D01*
X5138643Y-12348214D02*
X5129119Y-12329167D01*
X5129119Y-12329167D02*
X5110072Y-12319643D01*
X5110072Y-12319643D02*
X5081500Y-12319643D01*
X5081500Y-12319643D02*
X5062453Y-12329167D01*
X5062453Y-12329167D02*
X5052929Y-12338690D01*
X5262453Y-12452976D02*
X5243405Y-12443452D01*
X5243405Y-12443452D02*
X5233881Y-12433928D01*
X5233881Y-12433928D02*
X5224357Y-12414881D01*
X5224357Y-12414881D02*
X5224357Y-12357738D01*
X5224357Y-12357738D02*
X5233881Y-12338690D01*
X5233881Y-12338690D02*
X5243405Y-12329167D01*
X5243405Y-12329167D02*
X5262453Y-12319643D01*
X5262453Y-12319643D02*
X5291024Y-12319643D01*
X5291024Y-12319643D02*
X5310072Y-12329167D01*
X5310072Y-12329167D02*
X5319595Y-12338690D01*
X5319595Y-12338690D02*
X5329119Y-12357738D01*
X5329119Y-12357738D02*
X5329119Y-12414881D01*
X5329119Y-12414881D02*
X5319595Y-12433928D01*
X5319595Y-12433928D02*
X5310072Y-12443452D01*
X5310072Y-12443452D02*
X5291024Y-12452976D01*
X5291024Y-12452976D02*
X5262453Y-12452976D01*
X5443405Y-12452976D02*
X5424357Y-12443452D01*
X5424357Y-12443452D02*
X5414834Y-12424405D01*
X5414834Y-12424405D02*
X5414834Y-12252976D01*
X5595786Y-12443452D02*
X5576738Y-12452976D01*
X5576738Y-12452976D02*
X5538643Y-12452976D01*
X5538643Y-12452976D02*
X5519595Y-12443452D01*
X5519595Y-12443452D02*
X5510072Y-12424405D01*
X5510072Y-12424405D02*
X5510072Y-12348214D01*
X5510072Y-12348214D02*
X5519595Y-12329167D01*
X5519595Y-12329167D02*
X5538643Y-12319643D01*
X5538643Y-12319643D02*
X5576738Y-12319643D01*
X5576738Y-12319643D02*
X5595786Y-12329167D01*
X5595786Y-12329167D02*
X5605310Y-12348214D01*
X5605310Y-12348214D02*
X5605310Y-12367262D01*
X5605310Y-12367262D02*
X5510072Y-12386309D01*
X5681500Y-12443452D02*
X5700548Y-12452976D01*
X5700548Y-12452976D02*
X5738643Y-12452976D01*
X5738643Y-12452976D02*
X5757691Y-12443452D01*
X5757691Y-12443452D02*
X5767214Y-12424405D01*
X5767214Y-12424405D02*
X5767214Y-12414881D01*
X5767214Y-12414881D02*
X5757691Y-12395833D01*
X5757691Y-12395833D02*
X5738643Y-12386309D01*
X5738643Y-12386309D02*
X5710072Y-12386309D01*
X5710072Y-12386309D02*
X5691024Y-12376786D01*
X5691024Y-12376786D02*
X5681500Y-12357738D01*
X5681500Y-12357738D02*
X5681500Y-12348214D01*
X5681500Y-12348214D02*
X5691024Y-12329167D01*
X5691024Y-12329167D02*
X5710072Y-12319643D01*
X5710072Y-12319643D02*
X5738643Y-12319643D01*
X5738643Y-12319643D02*
X5757691Y-12329167D01*
X5833881Y-12529167D02*
X5843405Y-12519643D01*
X5843405Y-12519643D02*
X5862453Y-12491071D01*
X5862453Y-12491071D02*
X5871976Y-12472024D01*
X5871976Y-12472024D02*
X5881500Y-12443452D01*
X5881500Y-12443452D02*
X5891024Y-12395833D01*
X5891024Y-12395833D02*
X5891024Y-12357738D01*
X5891024Y-12357738D02*
X5881500Y-12310119D01*
X5881500Y-12310119D02*
X5871976Y-12281548D01*
X5871976Y-12281548D02*
X5862453Y-12262500D01*
X5862453Y-12262500D02*
X5843405Y-12233928D01*
X5843405Y-12233928D02*
X5833881Y-12224405D01*
D15*
X1189785Y-12671784D02*
X1189785Y-12615215D01*
X1133216Y-12615215D01*
X1133216Y-12671784D01*
X1189785Y-12671784D01*
D11*
X1487214Y-12516976D02*
X1506262Y-12516976D01*
X1506262Y-12516976D02*
X1525309Y-12526500D01*
X1525309Y-12526500D02*
X1534833Y-12536024D01*
X1534833Y-12536024D02*
X1544357Y-12555071D01*
X1544357Y-12555071D02*
X1553881Y-12593167D01*
X1553881Y-12593167D02*
X1553881Y-12640786D01*
X1553881Y-12640786D02*
X1544357Y-12678881D01*
X1544357Y-12678881D02*
X1534833Y-12697928D01*
X1534833Y-12697928D02*
X1525309Y-12707452D01*
X1525309Y-12707452D02*
X1506262Y-12716976D01*
X1506262Y-12716976D02*
X1487214Y-12716976D01*
X1487214Y-12716976D02*
X1468167Y-12707452D01*
X1468167Y-12707452D02*
X1458643Y-12697928D01*
X1458643Y-12697928D02*
X1449119Y-12678881D01*
X1449119Y-12678881D02*
X1439595Y-12640786D01*
X1439595Y-12640786D02*
X1439595Y-12593167D01*
X1439595Y-12593167D02*
X1449119Y-12555071D01*
X1449119Y-12555071D02*
X1458643Y-12536024D01*
X1458643Y-12536024D02*
X1468167Y-12526500D01*
X1468167Y-12526500D02*
X1487214Y-12516976D01*
X1639595Y-12697928D02*
X1649119Y-12707452D01*
X1649119Y-12707452D02*
X1639595Y-12716976D01*
X1639595Y-12716976D02*
X1630071Y-12707452D01*
X1630071Y-12707452D02*
X1639595Y-12697928D01*
X1639595Y-12697928D02*
X1639595Y-12716976D01*
X1763405Y-12602690D02*
X1744357Y-12593167D01*
X1744357Y-12593167D02*
X1734833Y-12583643D01*
X1734833Y-12583643D02*
X1725309Y-12564595D01*
X1725309Y-12564595D02*
X1725309Y-12555071D01*
X1725309Y-12555071D02*
X1734833Y-12536024D01*
X1734833Y-12536024D02*
X1744357Y-12526500D01*
X1744357Y-12526500D02*
X1763405Y-12516976D01*
X1763405Y-12516976D02*
X1801500Y-12516976D01*
X1801500Y-12516976D02*
X1820548Y-12526500D01*
X1820548Y-12526500D02*
X1830071Y-12536024D01*
X1830071Y-12536024D02*
X1839595Y-12555071D01*
X1839595Y-12555071D02*
X1839595Y-12564595D01*
X1839595Y-12564595D02*
X1830071Y-12583643D01*
X1830071Y-12583643D02*
X1820548Y-12593167D01*
X1820548Y-12593167D02*
X1801500Y-12602690D01*
X1801500Y-12602690D02*
X1763405Y-12602690D01*
X1763405Y-12602690D02*
X1744357Y-12612214D01*
X1744357Y-12612214D02*
X1734833Y-12621738D01*
X1734833Y-12621738D02*
X1725309Y-12640786D01*
X1725309Y-12640786D02*
X1725309Y-12678881D01*
X1725309Y-12678881D02*
X1734833Y-12697928D01*
X1734833Y-12697928D02*
X1744357Y-12707452D01*
X1744357Y-12707452D02*
X1763405Y-12716976D01*
X1763405Y-12716976D02*
X1801500Y-12716976D01*
X1801500Y-12716976D02*
X1820548Y-12707452D01*
X1820548Y-12707452D02*
X1830071Y-12697928D01*
X1830071Y-12697928D02*
X1839595Y-12678881D01*
X1839595Y-12678881D02*
X1839595Y-12640786D01*
X1839595Y-12640786D02*
X1830071Y-12621738D01*
X1830071Y-12621738D02*
X1820548Y-12612214D01*
X1820548Y-12612214D02*
X1801500Y-12602690D01*
X1963405Y-12516976D02*
X1982452Y-12516976D01*
X1982452Y-12516976D02*
X2001500Y-12526500D01*
X2001500Y-12526500D02*
X2011024Y-12536024D01*
X2011024Y-12536024D02*
X2020548Y-12555071D01*
X2020548Y-12555071D02*
X2030071Y-12593167D01*
X2030071Y-12593167D02*
X2030071Y-12640786D01*
X2030071Y-12640786D02*
X2020548Y-12678881D01*
X2020548Y-12678881D02*
X2011024Y-12697928D01*
X2011024Y-12697928D02*
X2001500Y-12707452D01*
X2001500Y-12707452D02*
X1982452Y-12716976D01*
X1982452Y-12716976D02*
X1963405Y-12716976D01*
X1963405Y-12716976D02*
X1944357Y-12707452D01*
X1944357Y-12707452D02*
X1934833Y-12697928D01*
X1934833Y-12697928D02*
X1925309Y-12678881D01*
X1925309Y-12678881D02*
X1915786Y-12640786D01*
X1915786Y-12640786D02*
X1915786Y-12593167D01*
X1915786Y-12593167D02*
X1925309Y-12555071D01*
X1925309Y-12555071D02*
X1934833Y-12536024D01*
X1934833Y-12536024D02*
X1944357Y-12526500D01*
X1944357Y-12526500D02*
X1963405Y-12516976D01*
X2153881Y-12516976D02*
X2172929Y-12516976D01*
X2172929Y-12516976D02*
X2191976Y-12526500D01*
X2191976Y-12526500D02*
X2201500Y-12536024D01*
X2201500Y-12536024D02*
X2211024Y-12555071D01*
X2211024Y-12555071D02*
X2220548Y-12593167D01*
X2220548Y-12593167D02*
X2220548Y-12640786D01*
X2220548Y-12640786D02*
X2211024Y-12678881D01*
X2211024Y-12678881D02*
X2201500Y-12697928D01*
X2201500Y-12697928D02*
X2191976Y-12707452D01*
X2191976Y-12707452D02*
X2172929Y-12716976D01*
X2172929Y-12716976D02*
X2153881Y-12716976D01*
X2153881Y-12716976D02*
X2134833Y-12707452D01*
X2134833Y-12707452D02*
X2125310Y-12697928D01*
X2125310Y-12697928D02*
X2115786Y-12678881D01*
X2115786Y-12678881D02*
X2106262Y-12640786D01*
X2106262Y-12640786D02*
X2106262Y-12593167D01*
X2106262Y-12593167D02*
X2115786Y-12555071D01*
X2115786Y-12555071D02*
X2125310Y-12536024D01*
X2125310Y-12536024D02*
X2134833Y-12526500D01*
X2134833Y-12526500D02*
X2153881Y-12516976D01*
X2306262Y-12716976D02*
X2306262Y-12583643D01*
X2306262Y-12602690D02*
X2315786Y-12593167D01*
X2315786Y-12593167D02*
X2334833Y-12583643D01*
X2334833Y-12583643D02*
X2363405Y-12583643D01*
X2363405Y-12583643D02*
X2382452Y-12593167D01*
X2382452Y-12593167D02*
X2391976Y-12612214D01*
X2391976Y-12612214D02*
X2391976Y-12716976D01*
X2391976Y-12612214D02*
X2401500Y-12593167D01*
X2401500Y-12593167D02*
X2420548Y-12583643D01*
X2420548Y-12583643D02*
X2449119Y-12583643D01*
X2449119Y-12583643D02*
X2468167Y-12593167D01*
X2468167Y-12593167D02*
X2477691Y-12612214D01*
X2477691Y-12612214D02*
X2477691Y-12716976D01*
X2572929Y-12716976D02*
X2572929Y-12583643D01*
X2572929Y-12602690D02*
X2582452Y-12593167D01*
X2582452Y-12593167D02*
X2601500Y-12583643D01*
X2601500Y-12583643D02*
X2630072Y-12583643D01*
X2630072Y-12583643D02*
X2649119Y-12593167D01*
X2649119Y-12593167D02*
X2658643Y-12612214D01*
X2658643Y-12612214D02*
X2658643Y-12716976D01*
X2658643Y-12612214D02*
X2668167Y-12593167D01*
X2668167Y-12593167D02*
X2687214Y-12583643D01*
X2687214Y-12583643D02*
X2715786Y-12583643D01*
X2715786Y-12583643D02*
X2734833Y-12593167D01*
X2734833Y-12593167D02*
X2744357Y-12612214D01*
X2744357Y-12612214D02*
X2744357Y-12716976D01*
X3102452Y-12507452D02*
X2931024Y-12764595D01*
X3327214Y-12516976D02*
X3346262Y-12516976D01*
X3346262Y-12516976D02*
X3365310Y-12526500D01*
X3365310Y-12526500D02*
X3374833Y-12536024D01*
X3374833Y-12536024D02*
X3384357Y-12555071D01*
X3384357Y-12555071D02*
X3393881Y-12593167D01*
X3393881Y-12593167D02*
X3393881Y-12640786D01*
X3393881Y-12640786D02*
X3384357Y-12678881D01*
X3384357Y-12678881D02*
X3374833Y-12697928D01*
X3374833Y-12697928D02*
X3365310Y-12707452D01*
X3365310Y-12707452D02*
X3346262Y-12716976D01*
X3346262Y-12716976D02*
X3327214Y-12716976D01*
X3327214Y-12716976D02*
X3308167Y-12707452D01*
X3308167Y-12707452D02*
X3298643Y-12697928D01*
X3298643Y-12697928D02*
X3289119Y-12678881D01*
X3289119Y-12678881D02*
X3279595Y-12640786D01*
X3279595Y-12640786D02*
X3279595Y-12593167D01*
X3279595Y-12593167D02*
X3289119Y-12555071D01*
X3289119Y-12555071D02*
X3298643Y-12536024D01*
X3298643Y-12536024D02*
X3308167Y-12526500D01*
X3308167Y-12526500D02*
X3327214Y-12516976D01*
X3479595Y-12697928D02*
X3489119Y-12707452D01*
X3489119Y-12707452D02*
X3479595Y-12716976D01*
X3479595Y-12716976D02*
X3470071Y-12707452D01*
X3470071Y-12707452D02*
X3479595Y-12697928D01*
X3479595Y-12697928D02*
X3479595Y-12716976D01*
X3612929Y-12516976D02*
X3631976Y-12516976D01*
X3631976Y-12516976D02*
X3651024Y-12526500D01*
X3651024Y-12526500D02*
X3660548Y-12536024D01*
X3660548Y-12536024D02*
X3670071Y-12555071D01*
X3670071Y-12555071D02*
X3679595Y-12593167D01*
X3679595Y-12593167D02*
X3679595Y-12640786D01*
X3679595Y-12640786D02*
X3670071Y-12678881D01*
X3670071Y-12678881D02*
X3660548Y-12697928D01*
X3660548Y-12697928D02*
X3651024Y-12707452D01*
X3651024Y-12707452D02*
X3631976Y-12716976D01*
X3631976Y-12716976D02*
X3612929Y-12716976D01*
X3612929Y-12716976D02*
X3593881Y-12707452D01*
X3593881Y-12707452D02*
X3584357Y-12697928D01*
X3584357Y-12697928D02*
X3574833Y-12678881D01*
X3574833Y-12678881D02*
X3565310Y-12640786D01*
X3565310Y-12640786D02*
X3565310Y-12593167D01*
X3565310Y-12593167D02*
X3574833Y-12555071D01*
X3574833Y-12555071D02*
X3584357Y-12536024D01*
X3584357Y-12536024D02*
X3593881Y-12526500D01*
X3593881Y-12526500D02*
X3612929Y-12516976D01*
X3746262Y-12516976D02*
X3870071Y-12516976D01*
X3870071Y-12516976D02*
X3803405Y-12593167D01*
X3803405Y-12593167D02*
X3831976Y-12593167D01*
X3831976Y-12593167D02*
X3851024Y-12602690D01*
X3851024Y-12602690D02*
X3860548Y-12612214D01*
X3860548Y-12612214D02*
X3870071Y-12631262D01*
X3870071Y-12631262D02*
X3870071Y-12678881D01*
X3870071Y-12678881D02*
X3860548Y-12697928D01*
X3860548Y-12697928D02*
X3851024Y-12707452D01*
X3851024Y-12707452D02*
X3831976Y-12716976D01*
X3831976Y-12716976D02*
X3774833Y-12716976D01*
X3774833Y-12716976D02*
X3755786Y-12707452D01*
X3755786Y-12707452D02*
X3746262Y-12697928D01*
X4060548Y-12716976D02*
X3946262Y-12716976D01*
X4003405Y-12716976D02*
X4003405Y-12516976D01*
X4003405Y-12516976D02*
X3984357Y-12545548D01*
X3984357Y-12545548D02*
X3965310Y-12564595D01*
X3965310Y-12564595D02*
X3946262Y-12574119D01*
X4241500Y-12516976D02*
X4146262Y-12516976D01*
X4146262Y-12516976D02*
X4136738Y-12612214D01*
X4136738Y-12612214D02*
X4146262Y-12602690D01*
X4146262Y-12602690D02*
X4165310Y-12593167D01*
X4165310Y-12593167D02*
X4212929Y-12593167D01*
X4212929Y-12593167D02*
X4231976Y-12602690D01*
X4231976Y-12602690D02*
X4241500Y-12612214D01*
X4241500Y-12612214D02*
X4251024Y-12631262D01*
X4251024Y-12631262D02*
X4251024Y-12678881D01*
X4251024Y-12678881D02*
X4241500Y-12697928D01*
X4241500Y-12697928D02*
X4231976Y-12707452D01*
X4231976Y-12707452D02*
X4212929Y-12716976D01*
X4212929Y-12716976D02*
X4165310Y-12716976D01*
X4165310Y-12716976D02*
X4146262Y-12707452D01*
X4146262Y-12707452D02*
X4136738Y-12697928D01*
X4327214Y-12516976D02*
X4327214Y-12555071D01*
X4403405Y-12516976D02*
X4403405Y-12555071D01*
X4666262Y-12793167D02*
X4656738Y-12783643D01*
X4656738Y-12783643D02*
X4637691Y-12755071D01*
X4637691Y-12755071D02*
X4628167Y-12736024D01*
X4628167Y-12736024D02*
X4618643Y-12707452D01*
X4618643Y-12707452D02*
X4609119Y-12659833D01*
X4609119Y-12659833D02*
X4609119Y-12621738D01*
X4609119Y-12621738D02*
X4618643Y-12574119D01*
X4618643Y-12574119D02*
X4628167Y-12545548D01*
X4628167Y-12545548D02*
X4637691Y-12526500D01*
X4637691Y-12526500D02*
X4656738Y-12497928D01*
X4656738Y-12497928D02*
X4666262Y-12488405D01*
X4828167Y-12516976D02*
X4790072Y-12516976D01*
X4790072Y-12516976D02*
X4771024Y-12526500D01*
X4771024Y-12526500D02*
X4761500Y-12536024D01*
X4761500Y-12536024D02*
X4742453Y-12564595D01*
X4742453Y-12564595D02*
X4732929Y-12602690D01*
X4732929Y-12602690D02*
X4732929Y-12678881D01*
X4732929Y-12678881D02*
X4742453Y-12697928D01*
X4742453Y-12697928D02*
X4751976Y-12707452D01*
X4751976Y-12707452D02*
X4771024Y-12716976D01*
X4771024Y-12716976D02*
X4809119Y-12716976D01*
X4809119Y-12716976D02*
X4828167Y-12707452D01*
X4828167Y-12707452D02*
X4837691Y-12697928D01*
X4837691Y-12697928D02*
X4847214Y-12678881D01*
X4847214Y-12678881D02*
X4847214Y-12631262D01*
X4847214Y-12631262D02*
X4837691Y-12612214D01*
X4837691Y-12612214D02*
X4828167Y-12602690D01*
X4828167Y-12602690D02*
X4809119Y-12593167D01*
X4809119Y-12593167D02*
X4771024Y-12593167D01*
X4771024Y-12593167D02*
X4751976Y-12602690D01*
X4751976Y-12602690D02*
X4742453Y-12612214D01*
X4742453Y-12612214D02*
X4732929Y-12631262D01*
X5018643Y-12516976D02*
X4980548Y-12516976D01*
X4980548Y-12516976D02*
X4961500Y-12526500D01*
X4961500Y-12526500D02*
X4951976Y-12536024D01*
X4951976Y-12536024D02*
X4932929Y-12564595D01*
X4932929Y-12564595D02*
X4923405Y-12602690D01*
X4923405Y-12602690D02*
X4923405Y-12678881D01*
X4923405Y-12678881D02*
X4932929Y-12697928D01*
X4932929Y-12697928D02*
X4942453Y-12707452D01*
X4942453Y-12707452D02*
X4961500Y-12716976D01*
X4961500Y-12716976D02*
X4999595Y-12716976D01*
X4999595Y-12716976D02*
X5018643Y-12707452D01*
X5018643Y-12707452D02*
X5028167Y-12697928D01*
X5028167Y-12697928D02*
X5037691Y-12678881D01*
X5037691Y-12678881D02*
X5037691Y-12631262D01*
X5037691Y-12631262D02*
X5028167Y-12612214D01*
X5028167Y-12612214D02*
X5018643Y-12602690D01*
X5018643Y-12602690D02*
X4999595Y-12593167D01*
X4999595Y-12593167D02*
X4961500Y-12593167D01*
X4961500Y-12593167D02*
X4942453Y-12602690D01*
X4942453Y-12602690D02*
X4932929Y-12612214D01*
X4932929Y-12612214D02*
X4923405Y-12631262D01*
X5243405Y-12716976D02*
X5243405Y-12516976D01*
X5329119Y-12716976D02*
X5329119Y-12612214D01*
X5329119Y-12612214D02*
X5319595Y-12593167D01*
X5319595Y-12593167D02*
X5300548Y-12583643D01*
X5300548Y-12583643D02*
X5271976Y-12583643D01*
X5271976Y-12583643D02*
X5252929Y-12593167D01*
X5252929Y-12593167D02*
X5243405Y-12602690D01*
X5452929Y-12716976D02*
X5433881Y-12707452D01*
X5433881Y-12707452D02*
X5424357Y-12697928D01*
X5424357Y-12697928D02*
X5414834Y-12678881D01*
X5414834Y-12678881D02*
X5414834Y-12621738D01*
X5414834Y-12621738D02*
X5424357Y-12602690D01*
X5424357Y-12602690D02*
X5433881Y-12593167D01*
X5433881Y-12593167D02*
X5452929Y-12583643D01*
X5452929Y-12583643D02*
X5481500Y-12583643D01*
X5481500Y-12583643D02*
X5500548Y-12593167D01*
X5500548Y-12593167D02*
X5510072Y-12602690D01*
X5510072Y-12602690D02*
X5519595Y-12621738D01*
X5519595Y-12621738D02*
X5519595Y-12678881D01*
X5519595Y-12678881D02*
X5510072Y-12697928D01*
X5510072Y-12697928D02*
X5500548Y-12707452D01*
X5500548Y-12707452D02*
X5481500Y-12716976D01*
X5481500Y-12716976D02*
X5452929Y-12716976D01*
X5633881Y-12716976D02*
X5614833Y-12707452D01*
X5614833Y-12707452D02*
X5605310Y-12688405D01*
X5605310Y-12688405D02*
X5605310Y-12516976D01*
X5786262Y-12707452D02*
X5767214Y-12716976D01*
X5767214Y-12716976D02*
X5729119Y-12716976D01*
X5729119Y-12716976D02*
X5710072Y-12707452D01*
X5710072Y-12707452D02*
X5700548Y-12688405D01*
X5700548Y-12688405D02*
X5700548Y-12612214D01*
X5700548Y-12612214D02*
X5710072Y-12593167D01*
X5710072Y-12593167D02*
X5729119Y-12583643D01*
X5729119Y-12583643D02*
X5767214Y-12583643D01*
X5767214Y-12583643D02*
X5786262Y-12593167D01*
X5786262Y-12593167D02*
X5795786Y-12612214D01*
X5795786Y-12612214D02*
X5795786Y-12631262D01*
X5795786Y-12631262D02*
X5700548Y-12650309D01*
X5871976Y-12707452D02*
X5891024Y-12716976D01*
X5891024Y-12716976D02*
X5929119Y-12716976D01*
X5929119Y-12716976D02*
X5948167Y-12707452D01*
X5948167Y-12707452D02*
X5957691Y-12688405D01*
X5957691Y-12688405D02*
X5957691Y-12678881D01*
X5957691Y-12678881D02*
X5948167Y-12659833D01*
X5948167Y-12659833D02*
X5929119Y-12650309D01*
X5929119Y-12650309D02*
X5900548Y-12650309D01*
X5900548Y-12650309D02*
X5881500Y-12640786D01*
X5881500Y-12640786D02*
X5871976Y-12621738D01*
X5871976Y-12621738D02*
X5871976Y-12612214D01*
X5871976Y-12612214D02*
X5881500Y-12593167D01*
X5881500Y-12593167D02*
X5900548Y-12583643D01*
X5900548Y-12583643D02*
X5929119Y-12583643D01*
X5929119Y-12583643D02*
X5948167Y-12593167D01*
X6024357Y-12793167D02*
X6033881Y-12783643D01*
X6033881Y-12783643D02*
X6052929Y-12755071D01*
X6052929Y-12755071D02*
X6062453Y-12736024D01*
X6062453Y-12736024D02*
X6071976Y-12707452D01*
X6071976Y-12707452D02*
X6081500Y-12659833D01*
X6081500Y-12659833D02*
X6081500Y-12621738D01*
X6081500Y-12621738D02*
X6071976Y-12574119D01*
X6071976Y-12574119D02*
X6062453Y-12545548D01*
X6062453Y-12545548D02*
X6052929Y-12526500D01*
X6052929Y-12526500D02*
X6033881Y-12497928D01*
X6033881Y-12497928D02*
X6024357Y-12488405D01*
D16*
X1156500Y-12952500D02*
X1201500Y-12907500D01*
X1156500Y-12862500D01*
X1111500Y-12907500D01*
X1156500Y-12952500D01*
D11*
X1487214Y-12780976D02*
X1506262Y-12780976D01*
X1506262Y-12780976D02*
X1525309Y-12790500D01*
X1525309Y-12790500D02*
X1534833Y-12800024D01*
X1534833Y-12800024D02*
X1544357Y-12819071D01*
X1544357Y-12819071D02*
X1553881Y-12857167D01*
X1553881Y-12857167D02*
X1553881Y-12904786D01*
X1553881Y-12904786D02*
X1544357Y-12942881D01*
X1544357Y-12942881D02*
X1534833Y-12961928D01*
X1534833Y-12961928D02*
X1525309Y-12971452D01*
X1525309Y-12971452D02*
X1506262Y-12980976D01*
X1506262Y-12980976D02*
X1487214Y-12980976D01*
X1487214Y-12980976D02*
X1468167Y-12971452D01*
X1468167Y-12971452D02*
X1458643Y-12961928D01*
X1458643Y-12961928D02*
X1449119Y-12942881D01*
X1449119Y-12942881D02*
X1439595Y-12904786D01*
X1439595Y-12904786D02*
X1439595Y-12857167D01*
X1439595Y-12857167D02*
X1449119Y-12819071D01*
X1449119Y-12819071D02*
X1458643Y-12800024D01*
X1458643Y-12800024D02*
X1468167Y-12790500D01*
X1468167Y-12790500D02*
X1487214Y-12780976D01*
X1639595Y-12961928D02*
X1649119Y-12971452D01*
X1649119Y-12971452D02*
X1639595Y-12980976D01*
X1639595Y-12980976D02*
X1630071Y-12971452D01*
X1630071Y-12971452D02*
X1639595Y-12961928D01*
X1639595Y-12961928D02*
X1639595Y-12980976D01*
X1744357Y-12980976D02*
X1782452Y-12980976D01*
X1782452Y-12980976D02*
X1801500Y-12971452D01*
X1801500Y-12971452D02*
X1811024Y-12961928D01*
X1811024Y-12961928D02*
X1830071Y-12933357D01*
X1830071Y-12933357D02*
X1839595Y-12895262D01*
X1839595Y-12895262D02*
X1839595Y-12819071D01*
X1839595Y-12819071D02*
X1830071Y-12800024D01*
X1830071Y-12800024D02*
X1820548Y-12790500D01*
X1820548Y-12790500D02*
X1801500Y-12780976D01*
X1801500Y-12780976D02*
X1763405Y-12780976D01*
X1763405Y-12780976D02*
X1744357Y-12790500D01*
X1744357Y-12790500D02*
X1734833Y-12800024D01*
X1734833Y-12800024D02*
X1725309Y-12819071D01*
X1725309Y-12819071D02*
X1725309Y-12866690D01*
X1725309Y-12866690D02*
X1734833Y-12885738D01*
X1734833Y-12885738D02*
X1744357Y-12895262D01*
X1744357Y-12895262D02*
X1763405Y-12904786D01*
X1763405Y-12904786D02*
X1801500Y-12904786D01*
X1801500Y-12904786D02*
X1820548Y-12895262D01*
X1820548Y-12895262D02*
X1830071Y-12885738D01*
X1830071Y-12885738D02*
X1839595Y-12866690D01*
X1963405Y-12780976D02*
X1982452Y-12780976D01*
X1982452Y-12780976D02*
X2001500Y-12790500D01*
X2001500Y-12790500D02*
X2011024Y-12800024D01*
X2011024Y-12800024D02*
X2020548Y-12819071D01*
X2020548Y-12819071D02*
X2030071Y-12857167D01*
X2030071Y-12857167D02*
X2030071Y-12904786D01*
X2030071Y-12904786D02*
X2020548Y-12942881D01*
X2020548Y-12942881D02*
X2011024Y-12961928D01*
X2011024Y-12961928D02*
X2001500Y-12971452D01*
X2001500Y-12971452D02*
X1982452Y-12980976D01*
X1982452Y-12980976D02*
X1963405Y-12980976D01*
X1963405Y-12980976D02*
X1944357Y-12971452D01*
X1944357Y-12971452D02*
X1934833Y-12961928D01*
X1934833Y-12961928D02*
X1925309Y-12942881D01*
X1925309Y-12942881D02*
X1915786Y-12904786D01*
X1915786Y-12904786D02*
X1915786Y-12857167D01*
X1915786Y-12857167D02*
X1925309Y-12819071D01*
X1925309Y-12819071D02*
X1934833Y-12800024D01*
X1934833Y-12800024D02*
X1944357Y-12790500D01*
X1944357Y-12790500D02*
X1963405Y-12780976D01*
X2153881Y-12780976D02*
X2172929Y-12780976D01*
X2172929Y-12780976D02*
X2191976Y-12790500D01*
X2191976Y-12790500D02*
X2201500Y-12800024D01*
X2201500Y-12800024D02*
X2211024Y-12819071D01*
X2211024Y-12819071D02*
X2220548Y-12857167D01*
X2220548Y-12857167D02*
X2220548Y-12904786D01*
X2220548Y-12904786D02*
X2211024Y-12942881D01*
X2211024Y-12942881D02*
X2201500Y-12961928D01*
X2201500Y-12961928D02*
X2191976Y-12971452D01*
X2191976Y-12971452D02*
X2172929Y-12980976D01*
X2172929Y-12980976D02*
X2153881Y-12980976D01*
X2153881Y-12980976D02*
X2134833Y-12971452D01*
X2134833Y-12971452D02*
X2125310Y-12961928D01*
X2125310Y-12961928D02*
X2115786Y-12942881D01*
X2115786Y-12942881D02*
X2106262Y-12904786D01*
X2106262Y-12904786D02*
X2106262Y-12857167D01*
X2106262Y-12857167D02*
X2115786Y-12819071D01*
X2115786Y-12819071D02*
X2125310Y-12800024D01*
X2125310Y-12800024D02*
X2134833Y-12790500D01*
X2134833Y-12790500D02*
X2153881Y-12780976D01*
X2306262Y-12980976D02*
X2306262Y-12847643D01*
X2306262Y-12866690D02*
X2315786Y-12857167D01*
X2315786Y-12857167D02*
X2334833Y-12847643D01*
X2334833Y-12847643D02*
X2363405Y-12847643D01*
X2363405Y-12847643D02*
X2382452Y-12857167D01*
X2382452Y-12857167D02*
X2391976Y-12876214D01*
X2391976Y-12876214D02*
X2391976Y-12980976D01*
X2391976Y-12876214D02*
X2401500Y-12857167D01*
X2401500Y-12857167D02*
X2420548Y-12847643D01*
X2420548Y-12847643D02*
X2449119Y-12847643D01*
X2449119Y-12847643D02*
X2468167Y-12857167D01*
X2468167Y-12857167D02*
X2477691Y-12876214D01*
X2477691Y-12876214D02*
X2477691Y-12980976D01*
X2572929Y-12980976D02*
X2572929Y-12847643D01*
X2572929Y-12866690D02*
X2582452Y-12857167D01*
X2582452Y-12857167D02*
X2601500Y-12847643D01*
X2601500Y-12847643D02*
X2630072Y-12847643D01*
X2630072Y-12847643D02*
X2649119Y-12857167D01*
X2649119Y-12857167D02*
X2658643Y-12876214D01*
X2658643Y-12876214D02*
X2658643Y-12980976D01*
X2658643Y-12876214D02*
X2668167Y-12857167D01*
X2668167Y-12857167D02*
X2687214Y-12847643D01*
X2687214Y-12847643D02*
X2715786Y-12847643D01*
X2715786Y-12847643D02*
X2734833Y-12857167D01*
X2734833Y-12857167D02*
X2744357Y-12876214D01*
X2744357Y-12876214D02*
X2744357Y-12980976D01*
X3102452Y-12771452D02*
X2931024Y-13028595D01*
X3327214Y-12780976D02*
X3346262Y-12780976D01*
X3346262Y-12780976D02*
X3365310Y-12790500D01*
X3365310Y-12790500D02*
X3374833Y-12800024D01*
X3374833Y-12800024D02*
X3384357Y-12819071D01*
X3384357Y-12819071D02*
X3393881Y-12857167D01*
X3393881Y-12857167D02*
X3393881Y-12904786D01*
X3393881Y-12904786D02*
X3384357Y-12942881D01*
X3384357Y-12942881D02*
X3374833Y-12961928D01*
X3374833Y-12961928D02*
X3365310Y-12971452D01*
X3365310Y-12971452D02*
X3346262Y-12980976D01*
X3346262Y-12980976D02*
X3327214Y-12980976D01*
X3327214Y-12980976D02*
X3308167Y-12971452D01*
X3308167Y-12971452D02*
X3298643Y-12961928D01*
X3298643Y-12961928D02*
X3289119Y-12942881D01*
X3289119Y-12942881D02*
X3279595Y-12904786D01*
X3279595Y-12904786D02*
X3279595Y-12857167D01*
X3279595Y-12857167D02*
X3289119Y-12819071D01*
X3289119Y-12819071D02*
X3298643Y-12800024D01*
X3298643Y-12800024D02*
X3308167Y-12790500D01*
X3308167Y-12790500D02*
X3327214Y-12780976D01*
X3479595Y-12961928D02*
X3489119Y-12971452D01*
X3489119Y-12971452D02*
X3479595Y-12980976D01*
X3479595Y-12980976D02*
X3470071Y-12971452D01*
X3470071Y-12971452D02*
X3479595Y-12961928D01*
X3479595Y-12961928D02*
X3479595Y-12980976D01*
X3612929Y-12780976D02*
X3631976Y-12780976D01*
X3631976Y-12780976D02*
X3651024Y-12790500D01*
X3651024Y-12790500D02*
X3660548Y-12800024D01*
X3660548Y-12800024D02*
X3670071Y-12819071D01*
X3670071Y-12819071D02*
X3679595Y-12857167D01*
X3679595Y-12857167D02*
X3679595Y-12904786D01*
X3679595Y-12904786D02*
X3670071Y-12942881D01*
X3670071Y-12942881D02*
X3660548Y-12961928D01*
X3660548Y-12961928D02*
X3651024Y-12971452D01*
X3651024Y-12971452D02*
X3631976Y-12980976D01*
X3631976Y-12980976D02*
X3612929Y-12980976D01*
X3612929Y-12980976D02*
X3593881Y-12971452D01*
X3593881Y-12971452D02*
X3584357Y-12961928D01*
X3584357Y-12961928D02*
X3574833Y-12942881D01*
X3574833Y-12942881D02*
X3565310Y-12904786D01*
X3565310Y-12904786D02*
X3565310Y-12857167D01*
X3565310Y-12857167D02*
X3574833Y-12819071D01*
X3574833Y-12819071D02*
X3584357Y-12800024D01*
X3584357Y-12800024D02*
X3593881Y-12790500D01*
X3593881Y-12790500D02*
X3612929Y-12780976D01*
X3746262Y-12780976D02*
X3870071Y-12780976D01*
X3870071Y-12780976D02*
X3803405Y-12857167D01*
X3803405Y-12857167D02*
X3831976Y-12857167D01*
X3831976Y-12857167D02*
X3851024Y-12866690D01*
X3851024Y-12866690D02*
X3860548Y-12876214D01*
X3860548Y-12876214D02*
X3870071Y-12895262D01*
X3870071Y-12895262D02*
X3870071Y-12942881D01*
X3870071Y-12942881D02*
X3860548Y-12961928D01*
X3860548Y-12961928D02*
X3851024Y-12971452D01*
X3851024Y-12971452D02*
X3831976Y-12980976D01*
X3831976Y-12980976D02*
X3774833Y-12980976D01*
X3774833Y-12980976D02*
X3755786Y-12971452D01*
X3755786Y-12971452D02*
X3746262Y-12961928D01*
X4051024Y-12780976D02*
X3955786Y-12780976D01*
X3955786Y-12780976D02*
X3946262Y-12876214D01*
X3946262Y-12876214D02*
X3955786Y-12866690D01*
X3955786Y-12866690D02*
X3974833Y-12857167D01*
X3974833Y-12857167D02*
X4022452Y-12857167D01*
X4022452Y-12857167D02*
X4041500Y-12866690D01*
X4041500Y-12866690D02*
X4051024Y-12876214D01*
X4051024Y-12876214D02*
X4060548Y-12895262D01*
X4060548Y-12895262D02*
X4060548Y-12942881D01*
X4060548Y-12942881D02*
X4051024Y-12961928D01*
X4051024Y-12961928D02*
X4041500Y-12971452D01*
X4041500Y-12971452D02*
X4022452Y-12980976D01*
X4022452Y-12980976D02*
X3974833Y-12980976D01*
X3974833Y-12980976D02*
X3955786Y-12971452D01*
X3955786Y-12971452D02*
X3946262Y-12961928D01*
X4231976Y-12847643D02*
X4231976Y-12980976D01*
X4184357Y-12771452D02*
X4136738Y-12914309D01*
X4136738Y-12914309D02*
X4260548Y-12914309D01*
X4327214Y-12780976D02*
X4327214Y-12819071D01*
X4403405Y-12780976D02*
X4403405Y-12819071D01*
X4666262Y-13057167D02*
X4656738Y-13047643D01*
X4656738Y-13047643D02*
X4637691Y-13019071D01*
X4637691Y-13019071D02*
X4628167Y-13000024D01*
X4628167Y-13000024D02*
X4618643Y-12971452D01*
X4618643Y-12971452D02*
X4609119Y-12923833D01*
X4609119Y-12923833D02*
X4609119Y-12885738D01*
X4609119Y-12885738D02*
X4618643Y-12838119D01*
X4618643Y-12838119D02*
X4628167Y-12809548D01*
X4628167Y-12809548D02*
X4637691Y-12790500D01*
X4637691Y-12790500D02*
X4656738Y-12761928D01*
X4656738Y-12761928D02*
X4666262Y-12752405D01*
X4732929Y-12800024D02*
X4742453Y-12790500D01*
X4742453Y-12790500D02*
X4761500Y-12780976D01*
X4761500Y-12780976D02*
X4809119Y-12780976D01*
X4809119Y-12780976D02*
X4828167Y-12790500D01*
X4828167Y-12790500D02*
X4837691Y-12800024D01*
X4837691Y-12800024D02*
X4847214Y-12819071D01*
X4847214Y-12819071D02*
X4847214Y-12838119D01*
X4847214Y-12838119D02*
X4837691Y-12866690D01*
X4837691Y-12866690D02*
X4723405Y-12980976D01*
X4723405Y-12980976D02*
X4847214Y-12980976D01*
X5052929Y-12980976D02*
X5052929Y-12780976D01*
X5138643Y-12980976D02*
X5138643Y-12876214D01*
X5138643Y-12876214D02*
X5129119Y-12857167D01*
X5129119Y-12857167D02*
X5110072Y-12847643D01*
X5110072Y-12847643D02*
X5081500Y-12847643D01*
X5081500Y-12847643D02*
X5062453Y-12857167D01*
X5062453Y-12857167D02*
X5052929Y-12866690D01*
X5262453Y-12980976D02*
X5243405Y-12971452D01*
X5243405Y-12971452D02*
X5233881Y-12961928D01*
X5233881Y-12961928D02*
X5224357Y-12942881D01*
X5224357Y-12942881D02*
X5224357Y-12885738D01*
X5224357Y-12885738D02*
X5233881Y-12866690D01*
X5233881Y-12866690D02*
X5243405Y-12857167D01*
X5243405Y-12857167D02*
X5262453Y-12847643D01*
X5262453Y-12847643D02*
X5291024Y-12847643D01*
X5291024Y-12847643D02*
X5310072Y-12857167D01*
X5310072Y-12857167D02*
X5319595Y-12866690D01*
X5319595Y-12866690D02*
X5329119Y-12885738D01*
X5329119Y-12885738D02*
X5329119Y-12942881D01*
X5329119Y-12942881D02*
X5319595Y-12961928D01*
X5319595Y-12961928D02*
X5310072Y-12971452D01*
X5310072Y-12971452D02*
X5291024Y-12980976D01*
X5291024Y-12980976D02*
X5262453Y-12980976D01*
X5443405Y-12980976D02*
X5424357Y-12971452D01*
X5424357Y-12971452D02*
X5414834Y-12952405D01*
X5414834Y-12952405D02*
X5414834Y-12780976D01*
X5595786Y-12971452D02*
X5576738Y-12980976D01*
X5576738Y-12980976D02*
X5538643Y-12980976D01*
X5538643Y-12980976D02*
X5519595Y-12971452D01*
X5519595Y-12971452D02*
X5510072Y-12952405D01*
X5510072Y-12952405D02*
X5510072Y-12876214D01*
X5510072Y-12876214D02*
X5519595Y-12857167D01*
X5519595Y-12857167D02*
X5538643Y-12847643D01*
X5538643Y-12847643D02*
X5576738Y-12847643D01*
X5576738Y-12847643D02*
X5595786Y-12857167D01*
X5595786Y-12857167D02*
X5605310Y-12876214D01*
X5605310Y-12876214D02*
X5605310Y-12895262D01*
X5605310Y-12895262D02*
X5510072Y-12914309D01*
X5681500Y-12971452D02*
X5700548Y-12980976D01*
X5700548Y-12980976D02*
X5738643Y-12980976D01*
X5738643Y-12980976D02*
X5757691Y-12971452D01*
X5757691Y-12971452D02*
X5767214Y-12952405D01*
X5767214Y-12952405D02*
X5767214Y-12942881D01*
X5767214Y-12942881D02*
X5757691Y-12923833D01*
X5757691Y-12923833D02*
X5738643Y-12914309D01*
X5738643Y-12914309D02*
X5710072Y-12914309D01*
X5710072Y-12914309D02*
X5691024Y-12904786D01*
X5691024Y-12904786D02*
X5681500Y-12885738D01*
X5681500Y-12885738D02*
X5681500Y-12876214D01*
X5681500Y-12876214D02*
X5691024Y-12857167D01*
X5691024Y-12857167D02*
X5710072Y-12847643D01*
X5710072Y-12847643D02*
X5738643Y-12847643D01*
X5738643Y-12847643D02*
X5757691Y-12857167D01*
X5833881Y-13057167D02*
X5843405Y-13047643D01*
X5843405Y-13047643D02*
X5862453Y-13019071D01*
X5862453Y-13019071D02*
X5871976Y-13000024D01*
X5871976Y-13000024D02*
X5881500Y-12971452D01*
X5881500Y-12971452D02*
X5891024Y-12923833D01*
X5891024Y-12923833D02*
X5891024Y-12885738D01*
X5891024Y-12885738D02*
X5881500Y-12838119D01*
X5881500Y-12838119D02*
X5871976Y-12809548D01*
X5871976Y-12809548D02*
X5862453Y-12790500D01*
X5862453Y-12790500D02*
X5843405Y-12761928D01*
X5843405Y-12761928D02*
X5833881Y-12752405D01*
D10*
X1101500Y-13121500D02*
X1201500Y-13221500D01*
X1201500Y-13121500D02*
X1101500Y-13221500D01*
X1201500Y-13171500D02*
G75*
G03*
X1201500Y-13171500I-50000J0D01*
G01*
D11*
X1553881Y-13244976D02*
X1439595Y-13244976D01*
X1496738Y-13244976D02*
X1496738Y-13044976D01*
X1496738Y-13044976D02*
X1477690Y-13073548D01*
X1477690Y-13073548D02*
X1458643Y-13092595D01*
X1458643Y-13092595D02*
X1439595Y-13102119D01*
X1639595Y-13225928D02*
X1649119Y-13235452D01*
X1649119Y-13235452D02*
X1639595Y-13244976D01*
X1639595Y-13244976D02*
X1630071Y-13235452D01*
X1630071Y-13235452D02*
X1639595Y-13225928D01*
X1639595Y-13225928D02*
X1639595Y-13244976D01*
X1772928Y-13044976D02*
X1791976Y-13044976D01*
X1791976Y-13044976D02*
X1811024Y-13054500D01*
X1811024Y-13054500D02*
X1820548Y-13064024D01*
X1820548Y-13064024D02*
X1830071Y-13083071D01*
X1830071Y-13083071D02*
X1839595Y-13121167D01*
X1839595Y-13121167D02*
X1839595Y-13168786D01*
X1839595Y-13168786D02*
X1830071Y-13206881D01*
X1830071Y-13206881D02*
X1820548Y-13225928D01*
X1820548Y-13225928D02*
X1811024Y-13235452D01*
X1811024Y-13235452D02*
X1791976Y-13244976D01*
X1791976Y-13244976D02*
X1772928Y-13244976D01*
X1772928Y-13244976D02*
X1753881Y-13235452D01*
X1753881Y-13235452D02*
X1744357Y-13225928D01*
X1744357Y-13225928D02*
X1734833Y-13206881D01*
X1734833Y-13206881D02*
X1725309Y-13168786D01*
X1725309Y-13168786D02*
X1725309Y-13121167D01*
X1725309Y-13121167D02*
X1734833Y-13083071D01*
X1734833Y-13083071D02*
X1744357Y-13064024D01*
X1744357Y-13064024D02*
X1753881Y-13054500D01*
X1753881Y-13054500D02*
X1772928Y-13044976D01*
X1963405Y-13044976D02*
X1982452Y-13044976D01*
X1982452Y-13044976D02*
X2001500Y-13054500D01*
X2001500Y-13054500D02*
X2011024Y-13064024D01*
X2011024Y-13064024D02*
X2020548Y-13083071D01*
X2020548Y-13083071D02*
X2030071Y-13121167D01*
X2030071Y-13121167D02*
X2030071Y-13168786D01*
X2030071Y-13168786D02*
X2020548Y-13206881D01*
X2020548Y-13206881D02*
X2011024Y-13225928D01*
X2011024Y-13225928D02*
X2001500Y-13235452D01*
X2001500Y-13235452D02*
X1982452Y-13244976D01*
X1982452Y-13244976D02*
X1963405Y-13244976D01*
X1963405Y-13244976D02*
X1944357Y-13235452D01*
X1944357Y-13235452D02*
X1934833Y-13225928D01*
X1934833Y-13225928D02*
X1925309Y-13206881D01*
X1925309Y-13206881D02*
X1915786Y-13168786D01*
X1915786Y-13168786D02*
X1915786Y-13121167D01*
X1915786Y-13121167D02*
X1925309Y-13083071D01*
X1925309Y-13083071D02*
X1934833Y-13064024D01*
X1934833Y-13064024D02*
X1944357Y-13054500D01*
X1944357Y-13054500D02*
X1963405Y-13044976D01*
X2153881Y-13044976D02*
X2172929Y-13044976D01*
X2172929Y-13044976D02*
X2191976Y-13054500D01*
X2191976Y-13054500D02*
X2201500Y-13064024D01*
X2201500Y-13064024D02*
X2211024Y-13083071D01*
X2211024Y-13083071D02*
X2220548Y-13121167D01*
X2220548Y-13121167D02*
X2220548Y-13168786D01*
X2220548Y-13168786D02*
X2211024Y-13206881D01*
X2211024Y-13206881D02*
X2201500Y-13225928D01*
X2201500Y-13225928D02*
X2191976Y-13235452D01*
X2191976Y-13235452D02*
X2172929Y-13244976D01*
X2172929Y-13244976D02*
X2153881Y-13244976D01*
X2153881Y-13244976D02*
X2134833Y-13235452D01*
X2134833Y-13235452D02*
X2125310Y-13225928D01*
X2125310Y-13225928D02*
X2115786Y-13206881D01*
X2115786Y-13206881D02*
X2106262Y-13168786D01*
X2106262Y-13168786D02*
X2106262Y-13121167D01*
X2106262Y-13121167D02*
X2115786Y-13083071D01*
X2115786Y-13083071D02*
X2125310Y-13064024D01*
X2125310Y-13064024D02*
X2134833Y-13054500D01*
X2134833Y-13054500D02*
X2153881Y-13044976D01*
X2306262Y-13244976D02*
X2306262Y-13111643D01*
X2306262Y-13130690D02*
X2315786Y-13121167D01*
X2315786Y-13121167D02*
X2334833Y-13111643D01*
X2334833Y-13111643D02*
X2363405Y-13111643D01*
X2363405Y-13111643D02*
X2382452Y-13121167D01*
X2382452Y-13121167D02*
X2391976Y-13140214D01*
X2391976Y-13140214D02*
X2391976Y-13244976D01*
X2391976Y-13140214D02*
X2401500Y-13121167D01*
X2401500Y-13121167D02*
X2420548Y-13111643D01*
X2420548Y-13111643D02*
X2449119Y-13111643D01*
X2449119Y-13111643D02*
X2468167Y-13121167D01*
X2468167Y-13121167D02*
X2477691Y-13140214D01*
X2477691Y-13140214D02*
X2477691Y-13244976D01*
X2572929Y-13244976D02*
X2572929Y-13111643D01*
X2572929Y-13130690D02*
X2582452Y-13121167D01*
X2582452Y-13121167D02*
X2601500Y-13111643D01*
X2601500Y-13111643D02*
X2630072Y-13111643D01*
X2630072Y-13111643D02*
X2649119Y-13121167D01*
X2649119Y-13121167D02*
X2658643Y-13140214D01*
X2658643Y-13140214D02*
X2658643Y-13244976D01*
X2658643Y-13140214D02*
X2668167Y-13121167D01*
X2668167Y-13121167D02*
X2687214Y-13111643D01*
X2687214Y-13111643D02*
X2715786Y-13111643D01*
X2715786Y-13111643D02*
X2734833Y-13121167D01*
X2734833Y-13121167D02*
X2744357Y-13140214D01*
X2744357Y-13140214D02*
X2744357Y-13244976D01*
X3102452Y-13035452D02*
X2931024Y-13292595D01*
X3327214Y-13044976D02*
X3346262Y-13044976D01*
X3346262Y-13044976D02*
X3365310Y-13054500D01*
X3365310Y-13054500D02*
X3374833Y-13064024D01*
X3374833Y-13064024D02*
X3384357Y-13083071D01*
X3384357Y-13083071D02*
X3393881Y-13121167D01*
X3393881Y-13121167D02*
X3393881Y-13168786D01*
X3393881Y-13168786D02*
X3384357Y-13206881D01*
X3384357Y-13206881D02*
X3374833Y-13225928D01*
X3374833Y-13225928D02*
X3365310Y-13235452D01*
X3365310Y-13235452D02*
X3346262Y-13244976D01*
X3346262Y-13244976D02*
X3327214Y-13244976D01*
X3327214Y-13244976D02*
X3308167Y-13235452D01*
X3308167Y-13235452D02*
X3298643Y-13225928D01*
X3298643Y-13225928D02*
X3289119Y-13206881D01*
X3289119Y-13206881D02*
X3279595Y-13168786D01*
X3279595Y-13168786D02*
X3279595Y-13121167D01*
X3279595Y-13121167D02*
X3289119Y-13083071D01*
X3289119Y-13083071D02*
X3298643Y-13064024D01*
X3298643Y-13064024D02*
X3308167Y-13054500D01*
X3308167Y-13054500D02*
X3327214Y-13044976D01*
X3479595Y-13225928D02*
X3489119Y-13235452D01*
X3489119Y-13235452D02*
X3479595Y-13244976D01*
X3479595Y-13244976D02*
X3470071Y-13235452D01*
X3470071Y-13235452D02*
X3479595Y-13225928D01*
X3479595Y-13225928D02*
X3479595Y-13244976D01*
X3612929Y-13044976D02*
X3631976Y-13044976D01*
X3631976Y-13044976D02*
X3651024Y-13054500D01*
X3651024Y-13054500D02*
X3660548Y-13064024D01*
X3660548Y-13064024D02*
X3670071Y-13083071D01*
X3670071Y-13083071D02*
X3679595Y-13121167D01*
X3679595Y-13121167D02*
X3679595Y-13168786D01*
X3679595Y-13168786D02*
X3670071Y-13206881D01*
X3670071Y-13206881D02*
X3660548Y-13225928D01*
X3660548Y-13225928D02*
X3651024Y-13235452D01*
X3651024Y-13235452D02*
X3631976Y-13244976D01*
X3631976Y-13244976D02*
X3612929Y-13244976D01*
X3612929Y-13244976D02*
X3593881Y-13235452D01*
X3593881Y-13235452D02*
X3584357Y-13225928D01*
X3584357Y-13225928D02*
X3574833Y-13206881D01*
X3574833Y-13206881D02*
X3565310Y-13168786D01*
X3565310Y-13168786D02*
X3565310Y-13121167D01*
X3565310Y-13121167D02*
X3574833Y-13083071D01*
X3574833Y-13083071D02*
X3584357Y-13064024D01*
X3584357Y-13064024D02*
X3593881Y-13054500D01*
X3593881Y-13054500D02*
X3612929Y-13044976D01*
X3746262Y-13044976D02*
X3870071Y-13044976D01*
X3870071Y-13044976D02*
X3803405Y-13121167D01*
X3803405Y-13121167D02*
X3831976Y-13121167D01*
X3831976Y-13121167D02*
X3851024Y-13130690D01*
X3851024Y-13130690D02*
X3860548Y-13140214D01*
X3860548Y-13140214D02*
X3870071Y-13159262D01*
X3870071Y-13159262D02*
X3870071Y-13206881D01*
X3870071Y-13206881D02*
X3860548Y-13225928D01*
X3860548Y-13225928D02*
X3851024Y-13235452D01*
X3851024Y-13235452D02*
X3831976Y-13244976D01*
X3831976Y-13244976D02*
X3774833Y-13244976D01*
X3774833Y-13244976D02*
X3755786Y-13235452D01*
X3755786Y-13235452D02*
X3746262Y-13225928D01*
X3965310Y-13244976D02*
X4003405Y-13244976D01*
X4003405Y-13244976D02*
X4022452Y-13235452D01*
X4022452Y-13235452D02*
X4031976Y-13225928D01*
X4031976Y-13225928D02*
X4051024Y-13197357D01*
X4051024Y-13197357D02*
X4060548Y-13159262D01*
X4060548Y-13159262D02*
X4060548Y-13083071D01*
X4060548Y-13083071D02*
X4051024Y-13064024D01*
X4051024Y-13064024D02*
X4041500Y-13054500D01*
X4041500Y-13054500D02*
X4022452Y-13044976D01*
X4022452Y-13044976D02*
X3984357Y-13044976D01*
X3984357Y-13044976D02*
X3965310Y-13054500D01*
X3965310Y-13054500D02*
X3955786Y-13064024D01*
X3955786Y-13064024D02*
X3946262Y-13083071D01*
X3946262Y-13083071D02*
X3946262Y-13130690D01*
X3946262Y-13130690D02*
X3955786Y-13149738D01*
X3955786Y-13149738D02*
X3965310Y-13159262D01*
X3965310Y-13159262D02*
X3984357Y-13168786D01*
X3984357Y-13168786D02*
X4022452Y-13168786D01*
X4022452Y-13168786D02*
X4041500Y-13159262D01*
X4041500Y-13159262D02*
X4051024Y-13149738D01*
X4051024Y-13149738D02*
X4060548Y-13130690D01*
X4231976Y-13111643D02*
X4231976Y-13244976D01*
X4184357Y-13035452D02*
X4136738Y-13178309D01*
X4136738Y-13178309D02*
X4260548Y-13178309D01*
X4327214Y-13044976D02*
X4327214Y-13083071D01*
X4403405Y-13044976D02*
X4403405Y-13083071D01*
X4666262Y-13321167D02*
X4656738Y-13311643D01*
X4656738Y-13311643D02*
X4637691Y-13283071D01*
X4637691Y-13283071D02*
X4628167Y-13264024D01*
X4628167Y-13264024D02*
X4618643Y-13235452D01*
X4618643Y-13235452D02*
X4609119Y-13187833D01*
X4609119Y-13187833D02*
X4609119Y-13149738D01*
X4609119Y-13149738D02*
X4618643Y-13102119D01*
X4618643Y-13102119D02*
X4628167Y-13073548D01*
X4628167Y-13073548D02*
X4637691Y-13054500D01*
X4637691Y-13054500D02*
X4656738Y-13025928D01*
X4656738Y-13025928D02*
X4666262Y-13016405D01*
X4847214Y-13244976D02*
X4732929Y-13244976D01*
X4790072Y-13244976D02*
X4790072Y-13044976D01*
X4790072Y-13044976D02*
X4771024Y-13073548D01*
X4771024Y-13073548D02*
X4751976Y-13092595D01*
X4751976Y-13092595D02*
X4732929Y-13102119D01*
X4923405Y-13064024D02*
X4932929Y-13054500D01*
X4932929Y-13054500D02*
X4951976Y-13044976D01*
X4951976Y-13044976D02*
X4999595Y-13044976D01*
X4999595Y-13044976D02*
X5018643Y-13054500D01*
X5018643Y-13054500D02*
X5028167Y-13064024D01*
X5028167Y-13064024D02*
X5037691Y-13083071D01*
X5037691Y-13083071D02*
X5037691Y-13102119D01*
X5037691Y-13102119D02*
X5028167Y-13130690D01*
X5028167Y-13130690D02*
X4913881Y-13244976D01*
X4913881Y-13244976D02*
X5037691Y-13244976D01*
X5243405Y-13244976D02*
X5243405Y-13044976D01*
X5329119Y-13244976D02*
X5329119Y-13140214D01*
X5329119Y-13140214D02*
X5319595Y-13121167D01*
X5319595Y-13121167D02*
X5300548Y-13111643D01*
X5300548Y-13111643D02*
X5271976Y-13111643D01*
X5271976Y-13111643D02*
X5252929Y-13121167D01*
X5252929Y-13121167D02*
X5243405Y-13130690D01*
X5452929Y-13244976D02*
X5433881Y-13235452D01*
X5433881Y-13235452D02*
X5424357Y-13225928D01*
X5424357Y-13225928D02*
X5414834Y-13206881D01*
X5414834Y-13206881D02*
X5414834Y-13149738D01*
X5414834Y-13149738D02*
X5424357Y-13130690D01*
X5424357Y-13130690D02*
X5433881Y-13121167D01*
X5433881Y-13121167D02*
X5452929Y-13111643D01*
X5452929Y-13111643D02*
X5481500Y-13111643D01*
X5481500Y-13111643D02*
X5500548Y-13121167D01*
X5500548Y-13121167D02*
X5510072Y-13130690D01*
X5510072Y-13130690D02*
X5519595Y-13149738D01*
X5519595Y-13149738D02*
X5519595Y-13206881D01*
X5519595Y-13206881D02*
X5510072Y-13225928D01*
X5510072Y-13225928D02*
X5500548Y-13235452D01*
X5500548Y-13235452D02*
X5481500Y-13244976D01*
X5481500Y-13244976D02*
X5452929Y-13244976D01*
X5633881Y-13244976D02*
X5614833Y-13235452D01*
X5614833Y-13235452D02*
X5605310Y-13216405D01*
X5605310Y-13216405D02*
X5605310Y-13044976D01*
X5786262Y-13235452D02*
X5767214Y-13244976D01*
X5767214Y-13244976D02*
X5729119Y-13244976D01*
X5729119Y-13244976D02*
X5710072Y-13235452D01*
X5710072Y-13235452D02*
X5700548Y-13216405D01*
X5700548Y-13216405D02*
X5700548Y-13140214D01*
X5700548Y-13140214D02*
X5710072Y-13121167D01*
X5710072Y-13121167D02*
X5729119Y-13111643D01*
X5729119Y-13111643D02*
X5767214Y-13111643D01*
X5767214Y-13111643D02*
X5786262Y-13121167D01*
X5786262Y-13121167D02*
X5795786Y-13140214D01*
X5795786Y-13140214D02*
X5795786Y-13159262D01*
X5795786Y-13159262D02*
X5700548Y-13178309D01*
X5871976Y-13235452D02*
X5891024Y-13244976D01*
X5891024Y-13244976D02*
X5929119Y-13244976D01*
X5929119Y-13244976D02*
X5948167Y-13235452D01*
X5948167Y-13235452D02*
X5957691Y-13216405D01*
X5957691Y-13216405D02*
X5957691Y-13206881D01*
X5957691Y-13206881D02*
X5948167Y-13187833D01*
X5948167Y-13187833D02*
X5929119Y-13178309D01*
X5929119Y-13178309D02*
X5900548Y-13178309D01*
X5900548Y-13178309D02*
X5881500Y-13168786D01*
X5881500Y-13168786D02*
X5871976Y-13149738D01*
X5871976Y-13149738D02*
X5871976Y-13140214D01*
X5871976Y-13140214D02*
X5881500Y-13121167D01*
X5881500Y-13121167D02*
X5900548Y-13111643D01*
X5900548Y-13111643D02*
X5929119Y-13111643D01*
X5929119Y-13111643D02*
X5948167Y-13121167D01*
X6024357Y-13321167D02*
X6033881Y-13311643D01*
X6033881Y-13311643D02*
X6052929Y-13283071D01*
X6052929Y-13283071D02*
X6062453Y-13264024D01*
X6062453Y-13264024D02*
X6071976Y-13235452D01*
X6071976Y-13235452D02*
X6081500Y-13187833D01*
X6081500Y-13187833D02*
X6081500Y-13149738D01*
X6081500Y-13149738D02*
X6071976Y-13102119D01*
X6071976Y-13102119D02*
X6062453Y-13073548D01*
X6062453Y-13073548D02*
X6052929Y-13054500D01*
X6052929Y-13054500D02*
X6033881Y-13025928D01*
X6033881Y-13025928D02*
X6024357Y-13016405D01*
D17*
X1099500Y-13384500D02*
X1201500Y-13486500D01*
X1201500Y-13384500D02*
X1099500Y-13486500D01*
X1150500Y-13384500D02*
X1150500Y-13486500D01*
X1099500Y-13435500D02*
X1201500Y-13435500D01*
D11*
X1553881Y-13508976D02*
X1439595Y-13508976D01*
X1496738Y-13508976D02*
X1496738Y-13308976D01*
X1496738Y-13308976D02*
X1477690Y-13337548D01*
X1477690Y-13337548D02*
X1458643Y-13356595D01*
X1458643Y-13356595D02*
X1439595Y-13366119D01*
X1639595Y-13489928D02*
X1649119Y-13499452D01*
X1649119Y-13499452D02*
X1639595Y-13508976D01*
X1639595Y-13508976D02*
X1630071Y-13499452D01*
X1630071Y-13499452D02*
X1639595Y-13489928D01*
X1639595Y-13489928D02*
X1639595Y-13508976D01*
X1772928Y-13308976D02*
X1791976Y-13308976D01*
X1791976Y-13308976D02*
X1811024Y-13318500D01*
X1811024Y-13318500D02*
X1820548Y-13328024D01*
X1820548Y-13328024D02*
X1830071Y-13347071D01*
X1830071Y-13347071D02*
X1839595Y-13385167D01*
X1839595Y-13385167D02*
X1839595Y-13432786D01*
X1839595Y-13432786D02*
X1830071Y-13470881D01*
X1830071Y-13470881D02*
X1820548Y-13489928D01*
X1820548Y-13489928D02*
X1811024Y-13499452D01*
X1811024Y-13499452D02*
X1791976Y-13508976D01*
X1791976Y-13508976D02*
X1772928Y-13508976D01*
X1772928Y-13508976D02*
X1753881Y-13499452D01*
X1753881Y-13499452D02*
X1744357Y-13489928D01*
X1744357Y-13489928D02*
X1734833Y-13470881D01*
X1734833Y-13470881D02*
X1725309Y-13432786D01*
X1725309Y-13432786D02*
X1725309Y-13385167D01*
X1725309Y-13385167D02*
X1734833Y-13347071D01*
X1734833Y-13347071D02*
X1744357Y-13328024D01*
X1744357Y-13328024D02*
X1753881Y-13318500D01*
X1753881Y-13318500D02*
X1772928Y-13308976D01*
X1915786Y-13328024D02*
X1925309Y-13318500D01*
X1925309Y-13318500D02*
X1944357Y-13308976D01*
X1944357Y-13308976D02*
X1991976Y-13308976D01*
X1991976Y-13308976D02*
X2011024Y-13318500D01*
X2011024Y-13318500D02*
X2020548Y-13328024D01*
X2020548Y-13328024D02*
X2030071Y-13347071D01*
X2030071Y-13347071D02*
X2030071Y-13366119D01*
X2030071Y-13366119D02*
X2020548Y-13394690D01*
X2020548Y-13394690D02*
X1906262Y-13508976D01*
X1906262Y-13508976D02*
X2030071Y-13508976D01*
X2153881Y-13308976D02*
X2172929Y-13308976D01*
X2172929Y-13308976D02*
X2191976Y-13318500D01*
X2191976Y-13318500D02*
X2201500Y-13328024D01*
X2201500Y-13328024D02*
X2211024Y-13347071D01*
X2211024Y-13347071D02*
X2220548Y-13385167D01*
X2220548Y-13385167D02*
X2220548Y-13432786D01*
X2220548Y-13432786D02*
X2211024Y-13470881D01*
X2211024Y-13470881D02*
X2201500Y-13489928D01*
X2201500Y-13489928D02*
X2191976Y-13499452D01*
X2191976Y-13499452D02*
X2172929Y-13508976D01*
X2172929Y-13508976D02*
X2153881Y-13508976D01*
X2153881Y-13508976D02*
X2134833Y-13499452D01*
X2134833Y-13499452D02*
X2125310Y-13489928D01*
X2125310Y-13489928D02*
X2115786Y-13470881D01*
X2115786Y-13470881D02*
X2106262Y-13432786D01*
X2106262Y-13432786D02*
X2106262Y-13385167D01*
X2106262Y-13385167D02*
X2115786Y-13347071D01*
X2115786Y-13347071D02*
X2125310Y-13328024D01*
X2125310Y-13328024D02*
X2134833Y-13318500D01*
X2134833Y-13318500D02*
X2153881Y-13308976D01*
X2306262Y-13508976D02*
X2306262Y-13375643D01*
X2306262Y-13394690D02*
X2315786Y-13385167D01*
X2315786Y-13385167D02*
X2334833Y-13375643D01*
X2334833Y-13375643D02*
X2363405Y-13375643D01*
X2363405Y-13375643D02*
X2382452Y-13385167D01*
X2382452Y-13385167D02*
X2391976Y-13404214D01*
X2391976Y-13404214D02*
X2391976Y-13508976D01*
X2391976Y-13404214D02*
X2401500Y-13385167D01*
X2401500Y-13385167D02*
X2420548Y-13375643D01*
X2420548Y-13375643D02*
X2449119Y-13375643D01*
X2449119Y-13375643D02*
X2468167Y-13385167D01*
X2468167Y-13385167D02*
X2477691Y-13404214D01*
X2477691Y-13404214D02*
X2477691Y-13508976D01*
X2572929Y-13508976D02*
X2572929Y-13375643D01*
X2572929Y-13394690D02*
X2582452Y-13385167D01*
X2582452Y-13385167D02*
X2601500Y-13375643D01*
X2601500Y-13375643D02*
X2630072Y-13375643D01*
X2630072Y-13375643D02*
X2649119Y-13385167D01*
X2649119Y-13385167D02*
X2658643Y-13404214D01*
X2658643Y-13404214D02*
X2658643Y-13508976D01*
X2658643Y-13404214D02*
X2668167Y-13385167D01*
X2668167Y-13385167D02*
X2687214Y-13375643D01*
X2687214Y-13375643D02*
X2715786Y-13375643D01*
X2715786Y-13375643D02*
X2734833Y-13385167D01*
X2734833Y-13385167D02*
X2744357Y-13404214D01*
X2744357Y-13404214D02*
X2744357Y-13508976D01*
X3102452Y-13299452D02*
X2931024Y-13556595D01*
X3327214Y-13308976D02*
X3346262Y-13308976D01*
X3346262Y-13308976D02*
X3365310Y-13318500D01*
X3365310Y-13318500D02*
X3374833Y-13328024D01*
X3374833Y-13328024D02*
X3384357Y-13347071D01*
X3384357Y-13347071D02*
X3393881Y-13385167D01*
X3393881Y-13385167D02*
X3393881Y-13432786D01*
X3393881Y-13432786D02*
X3384357Y-13470881D01*
X3384357Y-13470881D02*
X3374833Y-13489928D01*
X3374833Y-13489928D02*
X3365310Y-13499452D01*
X3365310Y-13499452D02*
X3346262Y-13508976D01*
X3346262Y-13508976D02*
X3327214Y-13508976D01*
X3327214Y-13508976D02*
X3308167Y-13499452D01*
X3308167Y-13499452D02*
X3298643Y-13489928D01*
X3298643Y-13489928D02*
X3289119Y-13470881D01*
X3289119Y-13470881D02*
X3279595Y-13432786D01*
X3279595Y-13432786D02*
X3279595Y-13385167D01*
X3279595Y-13385167D02*
X3289119Y-13347071D01*
X3289119Y-13347071D02*
X3298643Y-13328024D01*
X3298643Y-13328024D02*
X3308167Y-13318500D01*
X3308167Y-13318500D02*
X3327214Y-13308976D01*
X3479595Y-13489928D02*
X3489119Y-13499452D01*
X3489119Y-13499452D02*
X3479595Y-13508976D01*
X3479595Y-13508976D02*
X3470071Y-13499452D01*
X3470071Y-13499452D02*
X3479595Y-13489928D01*
X3479595Y-13489928D02*
X3479595Y-13508976D01*
X3612929Y-13308976D02*
X3631976Y-13308976D01*
X3631976Y-13308976D02*
X3651024Y-13318500D01*
X3651024Y-13318500D02*
X3660548Y-13328024D01*
X3660548Y-13328024D02*
X3670071Y-13347071D01*
X3670071Y-13347071D02*
X3679595Y-13385167D01*
X3679595Y-13385167D02*
X3679595Y-13432786D01*
X3679595Y-13432786D02*
X3670071Y-13470881D01*
X3670071Y-13470881D02*
X3660548Y-13489928D01*
X3660548Y-13489928D02*
X3651024Y-13499452D01*
X3651024Y-13499452D02*
X3631976Y-13508976D01*
X3631976Y-13508976D02*
X3612929Y-13508976D01*
X3612929Y-13508976D02*
X3593881Y-13499452D01*
X3593881Y-13499452D02*
X3584357Y-13489928D01*
X3584357Y-13489928D02*
X3574833Y-13470881D01*
X3574833Y-13470881D02*
X3565310Y-13432786D01*
X3565310Y-13432786D02*
X3565310Y-13385167D01*
X3565310Y-13385167D02*
X3574833Y-13347071D01*
X3574833Y-13347071D02*
X3584357Y-13328024D01*
X3584357Y-13328024D02*
X3593881Y-13318500D01*
X3593881Y-13318500D02*
X3612929Y-13308976D01*
X3851024Y-13375643D02*
X3851024Y-13508976D01*
X3803405Y-13299452D02*
X3755786Y-13442309D01*
X3755786Y-13442309D02*
X3879595Y-13442309D01*
X3993881Y-13308976D02*
X4012929Y-13308976D01*
X4012929Y-13308976D02*
X4031976Y-13318500D01*
X4031976Y-13318500D02*
X4041500Y-13328024D01*
X4041500Y-13328024D02*
X4051024Y-13347071D01*
X4051024Y-13347071D02*
X4060548Y-13385167D01*
X4060548Y-13385167D02*
X4060548Y-13432786D01*
X4060548Y-13432786D02*
X4051024Y-13470881D01*
X4051024Y-13470881D02*
X4041500Y-13489928D01*
X4041500Y-13489928D02*
X4031976Y-13499452D01*
X4031976Y-13499452D02*
X4012929Y-13508976D01*
X4012929Y-13508976D02*
X3993881Y-13508976D01*
X3993881Y-13508976D02*
X3974833Y-13499452D01*
X3974833Y-13499452D02*
X3965310Y-13489928D01*
X3965310Y-13489928D02*
X3955786Y-13470881D01*
X3955786Y-13470881D02*
X3946262Y-13432786D01*
X3946262Y-13432786D02*
X3946262Y-13385167D01*
X3946262Y-13385167D02*
X3955786Y-13347071D01*
X3955786Y-13347071D02*
X3965310Y-13328024D01*
X3965310Y-13328024D02*
X3974833Y-13318500D01*
X3974833Y-13318500D02*
X3993881Y-13308976D01*
X4136738Y-13328024D02*
X4146262Y-13318500D01*
X4146262Y-13318500D02*
X4165310Y-13308976D01*
X4165310Y-13308976D02*
X4212929Y-13308976D01*
X4212929Y-13308976D02*
X4231976Y-13318500D01*
X4231976Y-13318500D02*
X4241500Y-13328024D01*
X4241500Y-13328024D02*
X4251024Y-13347071D01*
X4251024Y-13347071D02*
X4251024Y-13366119D01*
X4251024Y-13366119D02*
X4241500Y-13394690D01*
X4241500Y-13394690D02*
X4127214Y-13508976D01*
X4127214Y-13508976D02*
X4251024Y-13508976D01*
X4327214Y-13308976D02*
X4327214Y-13347071D01*
X4403405Y-13308976D02*
X4403405Y-13347071D01*
X4666262Y-13585167D02*
X4656738Y-13575643D01*
X4656738Y-13575643D02*
X4637691Y-13547071D01*
X4637691Y-13547071D02*
X4628167Y-13528024D01*
X4628167Y-13528024D02*
X4618643Y-13499452D01*
X4618643Y-13499452D02*
X4609119Y-13451833D01*
X4609119Y-13451833D02*
X4609119Y-13413738D01*
X4609119Y-13413738D02*
X4618643Y-13366119D01*
X4618643Y-13366119D02*
X4628167Y-13337548D01*
X4628167Y-13337548D02*
X4637691Y-13318500D01*
X4637691Y-13318500D02*
X4656738Y-13289928D01*
X4656738Y-13289928D02*
X4666262Y-13280405D01*
X4723405Y-13308976D02*
X4847214Y-13308976D01*
X4847214Y-13308976D02*
X4780548Y-13385167D01*
X4780548Y-13385167D02*
X4809119Y-13385167D01*
X4809119Y-13385167D02*
X4828167Y-13394690D01*
X4828167Y-13394690D02*
X4837691Y-13404214D01*
X4837691Y-13404214D02*
X4847214Y-13423262D01*
X4847214Y-13423262D02*
X4847214Y-13470881D01*
X4847214Y-13470881D02*
X4837691Y-13489928D01*
X4837691Y-13489928D02*
X4828167Y-13499452D01*
X4828167Y-13499452D02*
X4809119Y-13508976D01*
X4809119Y-13508976D02*
X4751976Y-13508976D01*
X4751976Y-13508976D02*
X4732929Y-13499452D01*
X4732929Y-13499452D02*
X4723405Y-13489928D01*
X4971024Y-13308976D02*
X4990072Y-13308976D01*
X4990072Y-13308976D02*
X5009119Y-13318500D01*
X5009119Y-13318500D02*
X5018643Y-13328024D01*
X5018643Y-13328024D02*
X5028167Y-13347071D01*
X5028167Y-13347071D02*
X5037691Y-13385167D01*
X5037691Y-13385167D02*
X5037691Y-13432786D01*
X5037691Y-13432786D02*
X5028167Y-13470881D01*
X5028167Y-13470881D02*
X5018643Y-13489928D01*
X5018643Y-13489928D02*
X5009119Y-13499452D01*
X5009119Y-13499452D02*
X4990072Y-13508976D01*
X4990072Y-13508976D02*
X4971024Y-13508976D01*
X4971024Y-13508976D02*
X4951976Y-13499452D01*
X4951976Y-13499452D02*
X4942453Y-13489928D01*
X4942453Y-13489928D02*
X4932929Y-13470881D01*
X4932929Y-13470881D02*
X4923405Y-13432786D01*
X4923405Y-13432786D02*
X4923405Y-13385167D01*
X4923405Y-13385167D02*
X4932929Y-13347071D01*
X4932929Y-13347071D02*
X4942453Y-13328024D01*
X4942453Y-13328024D02*
X4951976Y-13318500D01*
X4951976Y-13318500D02*
X4971024Y-13308976D01*
X5243405Y-13508976D02*
X5243405Y-13308976D01*
X5329119Y-13508976D02*
X5329119Y-13404214D01*
X5329119Y-13404214D02*
X5319595Y-13385167D01*
X5319595Y-13385167D02*
X5300548Y-13375643D01*
X5300548Y-13375643D02*
X5271976Y-13375643D01*
X5271976Y-13375643D02*
X5252929Y-13385167D01*
X5252929Y-13385167D02*
X5243405Y-13394690D01*
X5452929Y-13508976D02*
X5433881Y-13499452D01*
X5433881Y-13499452D02*
X5424357Y-13489928D01*
X5424357Y-13489928D02*
X5414834Y-13470881D01*
X5414834Y-13470881D02*
X5414834Y-13413738D01*
X5414834Y-13413738D02*
X5424357Y-13394690D01*
X5424357Y-13394690D02*
X5433881Y-13385167D01*
X5433881Y-13385167D02*
X5452929Y-13375643D01*
X5452929Y-13375643D02*
X5481500Y-13375643D01*
X5481500Y-13375643D02*
X5500548Y-13385167D01*
X5500548Y-13385167D02*
X5510072Y-13394690D01*
X5510072Y-13394690D02*
X5519595Y-13413738D01*
X5519595Y-13413738D02*
X5519595Y-13470881D01*
X5519595Y-13470881D02*
X5510072Y-13489928D01*
X5510072Y-13489928D02*
X5500548Y-13499452D01*
X5500548Y-13499452D02*
X5481500Y-13508976D01*
X5481500Y-13508976D02*
X5452929Y-13508976D01*
X5633881Y-13508976D02*
X5614833Y-13499452D01*
X5614833Y-13499452D02*
X5605310Y-13480405D01*
X5605310Y-13480405D02*
X5605310Y-13308976D01*
X5786262Y-13499452D02*
X5767214Y-13508976D01*
X5767214Y-13508976D02*
X5729119Y-13508976D01*
X5729119Y-13508976D02*
X5710072Y-13499452D01*
X5710072Y-13499452D02*
X5700548Y-13480405D01*
X5700548Y-13480405D02*
X5700548Y-13404214D01*
X5700548Y-13404214D02*
X5710072Y-13385167D01*
X5710072Y-13385167D02*
X5729119Y-13375643D01*
X5729119Y-13375643D02*
X5767214Y-13375643D01*
X5767214Y-13375643D02*
X5786262Y-13385167D01*
X5786262Y-13385167D02*
X5795786Y-13404214D01*
X5795786Y-13404214D02*
X5795786Y-13423262D01*
X5795786Y-13423262D02*
X5700548Y-13442309D01*
X5871976Y-13499452D02*
X5891024Y-13508976D01*
X5891024Y-13508976D02*
X5929119Y-13508976D01*
X5929119Y-13508976D02*
X5948167Y-13499452D01*
X5948167Y-13499452D02*
X5957691Y-13480405D01*
X5957691Y-13480405D02*
X5957691Y-13470881D01*
X5957691Y-13470881D02*
X5948167Y-13451833D01*
X5948167Y-13451833D02*
X5929119Y-13442309D01*
X5929119Y-13442309D02*
X5900548Y-13442309D01*
X5900548Y-13442309D02*
X5881500Y-13432786D01*
X5881500Y-13432786D02*
X5871976Y-13413738D01*
X5871976Y-13413738D02*
X5871976Y-13404214D01*
X5871976Y-13404214D02*
X5881500Y-13385167D01*
X5881500Y-13385167D02*
X5900548Y-13375643D01*
X5900548Y-13375643D02*
X5929119Y-13375643D01*
X5929119Y-13375643D02*
X5948167Y-13385167D01*
X6024357Y-13585167D02*
X6033881Y-13575643D01*
X6033881Y-13575643D02*
X6052929Y-13547071D01*
X6052929Y-13547071D02*
X6062453Y-13528024D01*
X6062453Y-13528024D02*
X6071976Y-13499452D01*
X6071976Y-13499452D02*
X6081500Y-13451833D01*
X6081500Y-13451833D02*
X6081500Y-13413738D01*
X6081500Y-13413738D02*
X6071976Y-13366119D01*
X6071976Y-13366119D02*
X6062453Y-13337548D01*
X6062453Y-13337548D02*
X6052929Y-13318500D01*
X6052929Y-13318500D02*
X6033881Y-13289928D01*
X6033881Y-13289928D02*
X6024357Y-13280405D01*
D18*
X1091500Y-13644500D02*
X1201500Y-13754500D01*
X1201500Y-13644500D02*
X1091500Y-13754500D01*
X1185391Y-13738391D02*
X1185391Y-13660609D01*
X1107609Y-13660609D01*
X1107609Y-13738391D01*
X1185391Y-13738391D01*
D11*
X1553881Y-13772976D02*
X1439595Y-13772976D01*
X1496738Y-13772976D02*
X1496738Y-13572976D01*
X1496738Y-13572976D02*
X1477690Y-13601548D01*
X1477690Y-13601548D02*
X1458643Y-13620595D01*
X1458643Y-13620595D02*
X1439595Y-13630119D01*
X1639595Y-13753928D02*
X1649119Y-13763452D01*
X1649119Y-13763452D02*
X1639595Y-13772976D01*
X1639595Y-13772976D02*
X1630071Y-13763452D01*
X1630071Y-13763452D02*
X1639595Y-13753928D01*
X1639595Y-13753928D02*
X1639595Y-13772976D01*
X1839595Y-13772976D02*
X1725309Y-13772976D01*
X1782452Y-13772976D02*
X1782452Y-13572976D01*
X1782452Y-13572976D02*
X1763405Y-13601548D01*
X1763405Y-13601548D02*
X1744357Y-13620595D01*
X1744357Y-13620595D02*
X1725309Y-13630119D01*
X1963405Y-13572976D02*
X1982452Y-13572976D01*
X1982452Y-13572976D02*
X2001500Y-13582500D01*
X2001500Y-13582500D02*
X2011024Y-13592024D01*
X2011024Y-13592024D02*
X2020548Y-13611071D01*
X2020548Y-13611071D02*
X2030071Y-13649167D01*
X2030071Y-13649167D02*
X2030071Y-13696786D01*
X2030071Y-13696786D02*
X2020548Y-13734881D01*
X2020548Y-13734881D02*
X2011024Y-13753928D01*
X2011024Y-13753928D02*
X2001500Y-13763452D01*
X2001500Y-13763452D02*
X1982452Y-13772976D01*
X1982452Y-13772976D02*
X1963405Y-13772976D01*
X1963405Y-13772976D02*
X1944357Y-13763452D01*
X1944357Y-13763452D02*
X1934833Y-13753928D01*
X1934833Y-13753928D02*
X1925309Y-13734881D01*
X1925309Y-13734881D02*
X1915786Y-13696786D01*
X1915786Y-13696786D02*
X1915786Y-13649167D01*
X1915786Y-13649167D02*
X1925309Y-13611071D01*
X1925309Y-13611071D02*
X1934833Y-13592024D01*
X1934833Y-13592024D02*
X1944357Y-13582500D01*
X1944357Y-13582500D02*
X1963405Y-13572976D01*
X2153881Y-13572976D02*
X2172929Y-13572976D01*
X2172929Y-13572976D02*
X2191976Y-13582500D01*
X2191976Y-13582500D02*
X2201500Y-13592024D01*
X2201500Y-13592024D02*
X2211024Y-13611071D01*
X2211024Y-13611071D02*
X2220548Y-13649167D01*
X2220548Y-13649167D02*
X2220548Y-13696786D01*
X2220548Y-13696786D02*
X2211024Y-13734881D01*
X2211024Y-13734881D02*
X2201500Y-13753928D01*
X2201500Y-13753928D02*
X2191976Y-13763452D01*
X2191976Y-13763452D02*
X2172929Y-13772976D01*
X2172929Y-13772976D02*
X2153881Y-13772976D01*
X2153881Y-13772976D02*
X2134833Y-13763452D01*
X2134833Y-13763452D02*
X2125310Y-13753928D01*
X2125310Y-13753928D02*
X2115786Y-13734881D01*
X2115786Y-13734881D02*
X2106262Y-13696786D01*
X2106262Y-13696786D02*
X2106262Y-13649167D01*
X2106262Y-13649167D02*
X2115786Y-13611071D01*
X2115786Y-13611071D02*
X2125310Y-13592024D01*
X2125310Y-13592024D02*
X2134833Y-13582500D01*
X2134833Y-13582500D02*
X2153881Y-13572976D01*
X2306262Y-13772976D02*
X2306262Y-13639643D01*
X2306262Y-13658690D02*
X2315786Y-13649167D01*
X2315786Y-13649167D02*
X2334833Y-13639643D01*
X2334833Y-13639643D02*
X2363405Y-13639643D01*
X2363405Y-13639643D02*
X2382452Y-13649167D01*
X2382452Y-13649167D02*
X2391976Y-13668214D01*
X2391976Y-13668214D02*
X2391976Y-13772976D01*
X2391976Y-13668214D02*
X2401500Y-13649167D01*
X2401500Y-13649167D02*
X2420548Y-13639643D01*
X2420548Y-13639643D02*
X2449119Y-13639643D01*
X2449119Y-13639643D02*
X2468167Y-13649167D01*
X2468167Y-13649167D02*
X2477691Y-13668214D01*
X2477691Y-13668214D02*
X2477691Y-13772976D01*
X2572929Y-13772976D02*
X2572929Y-13639643D01*
X2572929Y-13658690D02*
X2582452Y-13649167D01*
X2582452Y-13649167D02*
X2601500Y-13639643D01*
X2601500Y-13639643D02*
X2630072Y-13639643D01*
X2630072Y-13639643D02*
X2649119Y-13649167D01*
X2649119Y-13649167D02*
X2658643Y-13668214D01*
X2658643Y-13668214D02*
X2658643Y-13772976D01*
X2658643Y-13668214D02*
X2668167Y-13649167D01*
X2668167Y-13649167D02*
X2687214Y-13639643D01*
X2687214Y-13639643D02*
X2715786Y-13639643D01*
X2715786Y-13639643D02*
X2734833Y-13649167D01*
X2734833Y-13649167D02*
X2744357Y-13668214D01*
X2744357Y-13668214D02*
X2744357Y-13772976D01*
X3102452Y-13563452D02*
X2931024Y-13820595D01*
X3327214Y-13572976D02*
X3346262Y-13572976D01*
X3346262Y-13572976D02*
X3365310Y-13582500D01*
X3365310Y-13582500D02*
X3374833Y-13592024D01*
X3374833Y-13592024D02*
X3384357Y-13611071D01*
X3384357Y-13611071D02*
X3393881Y-13649167D01*
X3393881Y-13649167D02*
X3393881Y-13696786D01*
X3393881Y-13696786D02*
X3384357Y-13734881D01*
X3384357Y-13734881D02*
X3374833Y-13753928D01*
X3374833Y-13753928D02*
X3365310Y-13763452D01*
X3365310Y-13763452D02*
X3346262Y-13772976D01*
X3346262Y-13772976D02*
X3327214Y-13772976D01*
X3327214Y-13772976D02*
X3308167Y-13763452D01*
X3308167Y-13763452D02*
X3298643Y-13753928D01*
X3298643Y-13753928D02*
X3289119Y-13734881D01*
X3289119Y-13734881D02*
X3279595Y-13696786D01*
X3279595Y-13696786D02*
X3279595Y-13649167D01*
X3279595Y-13649167D02*
X3289119Y-13611071D01*
X3289119Y-13611071D02*
X3298643Y-13592024D01*
X3298643Y-13592024D02*
X3308167Y-13582500D01*
X3308167Y-13582500D02*
X3327214Y-13572976D01*
X3479595Y-13753928D02*
X3489119Y-13763452D01*
X3489119Y-13763452D02*
X3479595Y-13772976D01*
X3479595Y-13772976D02*
X3470071Y-13763452D01*
X3470071Y-13763452D02*
X3479595Y-13753928D01*
X3479595Y-13753928D02*
X3479595Y-13772976D01*
X3612929Y-13572976D02*
X3631976Y-13572976D01*
X3631976Y-13572976D02*
X3651024Y-13582500D01*
X3651024Y-13582500D02*
X3660548Y-13592024D01*
X3660548Y-13592024D02*
X3670071Y-13611071D01*
X3670071Y-13611071D02*
X3679595Y-13649167D01*
X3679595Y-13649167D02*
X3679595Y-13696786D01*
X3679595Y-13696786D02*
X3670071Y-13734881D01*
X3670071Y-13734881D02*
X3660548Y-13753928D01*
X3660548Y-13753928D02*
X3651024Y-13763452D01*
X3651024Y-13763452D02*
X3631976Y-13772976D01*
X3631976Y-13772976D02*
X3612929Y-13772976D01*
X3612929Y-13772976D02*
X3593881Y-13763452D01*
X3593881Y-13763452D02*
X3584357Y-13753928D01*
X3584357Y-13753928D02*
X3574833Y-13734881D01*
X3574833Y-13734881D02*
X3565310Y-13696786D01*
X3565310Y-13696786D02*
X3565310Y-13649167D01*
X3565310Y-13649167D02*
X3574833Y-13611071D01*
X3574833Y-13611071D02*
X3584357Y-13592024D01*
X3584357Y-13592024D02*
X3593881Y-13582500D01*
X3593881Y-13582500D02*
X3612929Y-13572976D01*
X3851024Y-13639643D02*
X3851024Y-13772976D01*
X3803405Y-13563452D02*
X3755786Y-13706309D01*
X3755786Y-13706309D02*
X3879595Y-13706309D01*
X3936738Y-13572976D02*
X4060548Y-13572976D01*
X4060548Y-13572976D02*
X3993881Y-13649167D01*
X3993881Y-13649167D02*
X4022452Y-13649167D01*
X4022452Y-13649167D02*
X4041500Y-13658690D01*
X4041500Y-13658690D02*
X4051024Y-13668214D01*
X4051024Y-13668214D02*
X4060548Y-13687262D01*
X4060548Y-13687262D02*
X4060548Y-13734881D01*
X4060548Y-13734881D02*
X4051024Y-13753928D01*
X4051024Y-13753928D02*
X4041500Y-13763452D01*
X4041500Y-13763452D02*
X4022452Y-13772976D01*
X4022452Y-13772976D02*
X3965310Y-13772976D01*
X3965310Y-13772976D02*
X3946262Y-13763452D01*
X3946262Y-13763452D02*
X3936738Y-13753928D01*
X4127214Y-13572976D02*
X4251024Y-13572976D01*
X4251024Y-13572976D02*
X4184357Y-13649167D01*
X4184357Y-13649167D02*
X4212929Y-13649167D01*
X4212929Y-13649167D02*
X4231976Y-13658690D01*
X4231976Y-13658690D02*
X4241500Y-13668214D01*
X4241500Y-13668214D02*
X4251024Y-13687262D01*
X4251024Y-13687262D02*
X4251024Y-13734881D01*
X4251024Y-13734881D02*
X4241500Y-13753928D01*
X4241500Y-13753928D02*
X4231976Y-13763452D01*
X4231976Y-13763452D02*
X4212929Y-13772976D01*
X4212929Y-13772976D02*
X4155786Y-13772976D01*
X4155786Y-13772976D02*
X4136738Y-13763452D01*
X4136738Y-13763452D02*
X4127214Y-13753928D01*
X4327214Y-13572976D02*
X4327214Y-13611071D01*
X4403405Y-13572976D02*
X4403405Y-13611071D01*
X4666262Y-13849167D02*
X4656738Y-13839643D01*
X4656738Y-13839643D02*
X4637691Y-13811071D01*
X4637691Y-13811071D02*
X4628167Y-13792024D01*
X4628167Y-13792024D02*
X4618643Y-13763452D01*
X4618643Y-13763452D02*
X4609119Y-13715833D01*
X4609119Y-13715833D02*
X4609119Y-13677738D01*
X4609119Y-13677738D02*
X4618643Y-13630119D01*
X4618643Y-13630119D02*
X4628167Y-13601548D01*
X4628167Y-13601548D02*
X4637691Y-13582500D01*
X4637691Y-13582500D02*
X4656738Y-13553928D01*
X4656738Y-13553928D02*
X4666262Y-13544405D01*
X4723405Y-13572976D02*
X4847214Y-13572976D01*
X4847214Y-13572976D02*
X4780548Y-13649167D01*
X4780548Y-13649167D02*
X4809119Y-13649167D01*
X4809119Y-13649167D02*
X4828167Y-13658690D01*
X4828167Y-13658690D02*
X4837691Y-13668214D01*
X4837691Y-13668214D02*
X4847214Y-13687262D01*
X4847214Y-13687262D02*
X4847214Y-13734881D01*
X4847214Y-13734881D02*
X4837691Y-13753928D01*
X4837691Y-13753928D02*
X4828167Y-13763452D01*
X4828167Y-13763452D02*
X4809119Y-13772976D01*
X4809119Y-13772976D02*
X4751976Y-13772976D01*
X4751976Y-13772976D02*
X4732929Y-13763452D01*
X4732929Y-13763452D02*
X4723405Y-13753928D01*
X5052929Y-13772976D02*
X5052929Y-13572976D01*
X5138643Y-13772976D02*
X5138643Y-13668214D01*
X5138643Y-13668214D02*
X5129119Y-13649167D01*
X5129119Y-13649167D02*
X5110072Y-13639643D01*
X5110072Y-13639643D02*
X5081500Y-13639643D01*
X5081500Y-13639643D02*
X5062453Y-13649167D01*
X5062453Y-13649167D02*
X5052929Y-13658690D01*
X5262453Y-13772976D02*
X5243405Y-13763452D01*
X5243405Y-13763452D02*
X5233881Y-13753928D01*
X5233881Y-13753928D02*
X5224357Y-13734881D01*
X5224357Y-13734881D02*
X5224357Y-13677738D01*
X5224357Y-13677738D02*
X5233881Y-13658690D01*
X5233881Y-13658690D02*
X5243405Y-13649167D01*
X5243405Y-13649167D02*
X5262453Y-13639643D01*
X5262453Y-13639643D02*
X5291024Y-13639643D01*
X5291024Y-13639643D02*
X5310072Y-13649167D01*
X5310072Y-13649167D02*
X5319595Y-13658690D01*
X5319595Y-13658690D02*
X5329119Y-13677738D01*
X5329119Y-13677738D02*
X5329119Y-13734881D01*
X5329119Y-13734881D02*
X5319595Y-13753928D01*
X5319595Y-13753928D02*
X5310072Y-13763452D01*
X5310072Y-13763452D02*
X5291024Y-13772976D01*
X5291024Y-13772976D02*
X5262453Y-13772976D01*
X5443405Y-13772976D02*
X5424357Y-13763452D01*
X5424357Y-13763452D02*
X5414834Y-13744405D01*
X5414834Y-13744405D02*
X5414834Y-13572976D01*
X5595786Y-13763452D02*
X5576738Y-13772976D01*
X5576738Y-13772976D02*
X5538643Y-13772976D01*
X5538643Y-13772976D02*
X5519595Y-13763452D01*
X5519595Y-13763452D02*
X5510072Y-13744405D01*
X5510072Y-13744405D02*
X5510072Y-13668214D01*
X5510072Y-13668214D02*
X5519595Y-13649167D01*
X5519595Y-13649167D02*
X5538643Y-13639643D01*
X5538643Y-13639643D02*
X5576738Y-13639643D01*
X5576738Y-13639643D02*
X5595786Y-13649167D01*
X5595786Y-13649167D02*
X5605310Y-13668214D01*
X5605310Y-13668214D02*
X5605310Y-13687262D01*
X5605310Y-13687262D02*
X5510072Y-13706309D01*
X5681500Y-13763452D02*
X5700548Y-13772976D01*
X5700548Y-13772976D02*
X5738643Y-13772976D01*
X5738643Y-13772976D02*
X5757691Y-13763452D01*
X5757691Y-13763452D02*
X5767214Y-13744405D01*
X5767214Y-13744405D02*
X5767214Y-13734881D01*
X5767214Y-13734881D02*
X5757691Y-13715833D01*
X5757691Y-13715833D02*
X5738643Y-13706309D01*
X5738643Y-13706309D02*
X5710072Y-13706309D01*
X5710072Y-13706309D02*
X5691024Y-13696786D01*
X5691024Y-13696786D02*
X5681500Y-13677738D01*
X5681500Y-13677738D02*
X5681500Y-13668214D01*
X5681500Y-13668214D02*
X5691024Y-13649167D01*
X5691024Y-13649167D02*
X5710072Y-13639643D01*
X5710072Y-13639643D02*
X5738643Y-13639643D01*
X5738643Y-13639643D02*
X5757691Y-13649167D01*
X5833881Y-13849167D02*
X5843405Y-13839643D01*
X5843405Y-13839643D02*
X5862453Y-13811071D01*
X5862453Y-13811071D02*
X5871976Y-13792024D01*
X5871976Y-13792024D02*
X5881500Y-13763452D01*
X5881500Y-13763452D02*
X5891024Y-13715833D01*
X5891024Y-13715833D02*
X5891024Y-13677738D01*
X5891024Y-13677738D02*
X5881500Y-13630119D01*
X5881500Y-13630119D02*
X5871976Y-13601548D01*
X5871976Y-13601548D02*
X5862453Y-13582500D01*
X5862453Y-13582500D02*
X5843405Y-13553928D01*
X5843405Y-13553928D02*
X5833881Y-13544405D01*
D19*
X1071500Y-13898500D02*
X1201500Y-14028500D01*
X1201500Y-13898500D02*
X1071500Y-14028500D01*
X1136500Y-14028500D02*
X1201500Y-13963500D01*
X1136500Y-13898500D01*
X1071500Y-13963500D01*
X1136500Y-14028500D01*
D11*
X1553881Y-14036976D02*
X1439595Y-14036976D01*
X1496738Y-14036976D02*
X1496738Y-13836976D01*
X1496738Y-13836976D02*
X1477690Y-13865548D01*
X1477690Y-13865548D02*
X1458643Y-13884595D01*
X1458643Y-13884595D02*
X1439595Y-13894119D01*
X1639595Y-14017928D02*
X1649119Y-14027452D01*
X1649119Y-14027452D02*
X1639595Y-14036976D01*
X1639595Y-14036976D02*
X1630071Y-14027452D01*
X1630071Y-14027452D02*
X1639595Y-14017928D01*
X1639595Y-14017928D02*
X1639595Y-14036976D01*
X1715786Y-13836976D02*
X1839595Y-13836976D01*
X1839595Y-13836976D02*
X1772928Y-13913167D01*
X1772928Y-13913167D02*
X1801500Y-13913167D01*
X1801500Y-13913167D02*
X1820548Y-13922690D01*
X1820548Y-13922690D02*
X1830071Y-13932214D01*
X1830071Y-13932214D02*
X1839595Y-13951262D01*
X1839595Y-13951262D02*
X1839595Y-13998881D01*
X1839595Y-13998881D02*
X1830071Y-14017928D01*
X1830071Y-14017928D02*
X1820548Y-14027452D01*
X1820548Y-14027452D02*
X1801500Y-14036976D01*
X1801500Y-14036976D02*
X1744357Y-14036976D01*
X1744357Y-14036976D02*
X1725309Y-14027452D01*
X1725309Y-14027452D02*
X1715786Y-14017928D01*
X1963405Y-13836976D02*
X1982452Y-13836976D01*
X1982452Y-13836976D02*
X2001500Y-13846500D01*
X2001500Y-13846500D02*
X2011024Y-13856024D01*
X2011024Y-13856024D02*
X2020548Y-13875071D01*
X2020548Y-13875071D02*
X2030071Y-13913167D01*
X2030071Y-13913167D02*
X2030071Y-13960786D01*
X2030071Y-13960786D02*
X2020548Y-13998881D01*
X2020548Y-13998881D02*
X2011024Y-14017928D01*
X2011024Y-14017928D02*
X2001500Y-14027452D01*
X2001500Y-14027452D02*
X1982452Y-14036976D01*
X1982452Y-14036976D02*
X1963405Y-14036976D01*
X1963405Y-14036976D02*
X1944357Y-14027452D01*
X1944357Y-14027452D02*
X1934833Y-14017928D01*
X1934833Y-14017928D02*
X1925309Y-13998881D01*
X1925309Y-13998881D02*
X1915786Y-13960786D01*
X1915786Y-13960786D02*
X1915786Y-13913167D01*
X1915786Y-13913167D02*
X1925309Y-13875071D01*
X1925309Y-13875071D02*
X1934833Y-13856024D01*
X1934833Y-13856024D02*
X1944357Y-13846500D01*
X1944357Y-13846500D02*
X1963405Y-13836976D01*
X2153881Y-13836976D02*
X2172929Y-13836976D01*
X2172929Y-13836976D02*
X2191976Y-13846500D01*
X2191976Y-13846500D02*
X2201500Y-13856024D01*
X2201500Y-13856024D02*
X2211024Y-13875071D01*
X2211024Y-13875071D02*
X2220548Y-13913167D01*
X2220548Y-13913167D02*
X2220548Y-13960786D01*
X2220548Y-13960786D02*
X2211024Y-13998881D01*
X2211024Y-13998881D02*
X2201500Y-14017928D01*
X2201500Y-14017928D02*
X2191976Y-14027452D01*
X2191976Y-14027452D02*
X2172929Y-14036976D01*
X2172929Y-14036976D02*
X2153881Y-14036976D01*
X2153881Y-14036976D02*
X2134833Y-14027452D01*
X2134833Y-14027452D02*
X2125310Y-14017928D01*
X2125310Y-14017928D02*
X2115786Y-13998881D01*
X2115786Y-13998881D02*
X2106262Y-13960786D01*
X2106262Y-13960786D02*
X2106262Y-13913167D01*
X2106262Y-13913167D02*
X2115786Y-13875071D01*
X2115786Y-13875071D02*
X2125310Y-13856024D01*
X2125310Y-13856024D02*
X2134833Y-13846500D01*
X2134833Y-13846500D02*
X2153881Y-13836976D01*
X2306262Y-14036976D02*
X2306262Y-13903643D01*
X2306262Y-13922690D02*
X2315786Y-13913167D01*
X2315786Y-13913167D02*
X2334833Y-13903643D01*
X2334833Y-13903643D02*
X2363405Y-13903643D01*
X2363405Y-13903643D02*
X2382452Y-13913167D01*
X2382452Y-13913167D02*
X2391976Y-13932214D01*
X2391976Y-13932214D02*
X2391976Y-14036976D01*
X2391976Y-13932214D02*
X2401500Y-13913167D01*
X2401500Y-13913167D02*
X2420548Y-13903643D01*
X2420548Y-13903643D02*
X2449119Y-13903643D01*
X2449119Y-13903643D02*
X2468167Y-13913167D01*
X2468167Y-13913167D02*
X2477691Y-13932214D01*
X2477691Y-13932214D02*
X2477691Y-14036976D01*
X2572929Y-14036976D02*
X2572929Y-13903643D01*
X2572929Y-13922690D02*
X2582452Y-13913167D01*
X2582452Y-13913167D02*
X2601500Y-13903643D01*
X2601500Y-13903643D02*
X2630072Y-13903643D01*
X2630072Y-13903643D02*
X2649119Y-13913167D01*
X2649119Y-13913167D02*
X2658643Y-13932214D01*
X2658643Y-13932214D02*
X2658643Y-14036976D01*
X2658643Y-13932214D02*
X2668167Y-13913167D01*
X2668167Y-13913167D02*
X2687214Y-13903643D01*
X2687214Y-13903643D02*
X2715786Y-13903643D01*
X2715786Y-13903643D02*
X2734833Y-13913167D01*
X2734833Y-13913167D02*
X2744357Y-13932214D01*
X2744357Y-13932214D02*
X2744357Y-14036976D01*
X3102452Y-13827452D02*
X2931024Y-14084595D01*
X3327214Y-13836976D02*
X3346262Y-13836976D01*
X3346262Y-13836976D02*
X3365310Y-13846500D01*
X3365310Y-13846500D02*
X3374833Y-13856024D01*
X3374833Y-13856024D02*
X3384357Y-13875071D01*
X3384357Y-13875071D02*
X3393881Y-13913167D01*
X3393881Y-13913167D02*
X3393881Y-13960786D01*
X3393881Y-13960786D02*
X3384357Y-13998881D01*
X3384357Y-13998881D02*
X3374833Y-14017928D01*
X3374833Y-14017928D02*
X3365310Y-14027452D01*
X3365310Y-14027452D02*
X3346262Y-14036976D01*
X3346262Y-14036976D02*
X3327214Y-14036976D01*
X3327214Y-14036976D02*
X3308167Y-14027452D01*
X3308167Y-14027452D02*
X3298643Y-14017928D01*
X3298643Y-14017928D02*
X3289119Y-13998881D01*
X3289119Y-13998881D02*
X3279595Y-13960786D01*
X3279595Y-13960786D02*
X3279595Y-13913167D01*
X3279595Y-13913167D02*
X3289119Y-13875071D01*
X3289119Y-13875071D02*
X3298643Y-13856024D01*
X3298643Y-13856024D02*
X3308167Y-13846500D01*
X3308167Y-13846500D02*
X3327214Y-13836976D01*
X3479595Y-14017928D02*
X3489119Y-14027452D01*
X3489119Y-14027452D02*
X3479595Y-14036976D01*
X3479595Y-14036976D02*
X3470071Y-14027452D01*
X3470071Y-14027452D02*
X3479595Y-14017928D01*
X3479595Y-14017928D02*
X3479595Y-14036976D01*
X3612929Y-13836976D02*
X3631976Y-13836976D01*
X3631976Y-13836976D02*
X3651024Y-13846500D01*
X3651024Y-13846500D02*
X3660548Y-13856024D01*
X3660548Y-13856024D02*
X3670071Y-13875071D01*
X3670071Y-13875071D02*
X3679595Y-13913167D01*
X3679595Y-13913167D02*
X3679595Y-13960786D01*
X3679595Y-13960786D02*
X3670071Y-13998881D01*
X3670071Y-13998881D02*
X3660548Y-14017928D01*
X3660548Y-14017928D02*
X3651024Y-14027452D01*
X3651024Y-14027452D02*
X3631976Y-14036976D01*
X3631976Y-14036976D02*
X3612929Y-14036976D01*
X3612929Y-14036976D02*
X3593881Y-14027452D01*
X3593881Y-14027452D02*
X3584357Y-14017928D01*
X3584357Y-14017928D02*
X3574833Y-13998881D01*
X3574833Y-13998881D02*
X3565310Y-13960786D01*
X3565310Y-13960786D02*
X3565310Y-13913167D01*
X3565310Y-13913167D02*
X3574833Y-13875071D01*
X3574833Y-13875071D02*
X3584357Y-13856024D01*
X3584357Y-13856024D02*
X3593881Y-13846500D01*
X3593881Y-13846500D02*
X3612929Y-13836976D01*
X3860548Y-13836976D02*
X3765310Y-13836976D01*
X3765310Y-13836976D02*
X3755786Y-13932214D01*
X3755786Y-13932214D02*
X3765310Y-13922690D01*
X3765310Y-13922690D02*
X3784357Y-13913167D01*
X3784357Y-13913167D02*
X3831976Y-13913167D01*
X3831976Y-13913167D02*
X3851024Y-13922690D01*
X3851024Y-13922690D02*
X3860548Y-13932214D01*
X3860548Y-13932214D02*
X3870071Y-13951262D01*
X3870071Y-13951262D02*
X3870071Y-13998881D01*
X3870071Y-13998881D02*
X3860548Y-14017928D01*
X3860548Y-14017928D02*
X3851024Y-14027452D01*
X3851024Y-14027452D02*
X3831976Y-14036976D01*
X3831976Y-14036976D02*
X3784357Y-14036976D01*
X3784357Y-14036976D02*
X3765310Y-14027452D01*
X3765310Y-14027452D02*
X3755786Y-14017928D01*
X4060548Y-14036976D02*
X3946262Y-14036976D01*
X4003405Y-14036976D02*
X4003405Y-13836976D01*
X4003405Y-13836976D02*
X3984357Y-13865548D01*
X3984357Y-13865548D02*
X3965310Y-13884595D01*
X3965310Y-13884595D02*
X3946262Y-13894119D01*
X4136738Y-13856024D02*
X4146262Y-13846500D01*
X4146262Y-13846500D02*
X4165310Y-13836976D01*
X4165310Y-13836976D02*
X4212929Y-13836976D01*
X4212929Y-13836976D02*
X4231976Y-13846500D01*
X4231976Y-13846500D02*
X4241500Y-13856024D01*
X4241500Y-13856024D02*
X4251024Y-13875071D01*
X4251024Y-13875071D02*
X4251024Y-13894119D01*
X4251024Y-13894119D02*
X4241500Y-13922690D01*
X4241500Y-13922690D02*
X4127214Y-14036976D01*
X4127214Y-14036976D02*
X4251024Y-14036976D01*
X4327214Y-13836976D02*
X4327214Y-13875071D01*
X4403405Y-13836976D02*
X4403405Y-13875071D01*
X4666262Y-14113167D02*
X4656738Y-14103643D01*
X4656738Y-14103643D02*
X4637691Y-14075071D01*
X4637691Y-14075071D02*
X4628167Y-14056024D01*
X4628167Y-14056024D02*
X4618643Y-14027452D01*
X4618643Y-14027452D02*
X4609119Y-13979833D01*
X4609119Y-13979833D02*
X4609119Y-13941738D01*
X4609119Y-13941738D02*
X4618643Y-13894119D01*
X4618643Y-13894119D02*
X4628167Y-13865548D01*
X4628167Y-13865548D02*
X4637691Y-13846500D01*
X4637691Y-13846500D02*
X4656738Y-13817928D01*
X4656738Y-13817928D02*
X4666262Y-13808405D01*
X4723405Y-13836976D02*
X4847214Y-13836976D01*
X4847214Y-13836976D02*
X4780548Y-13913167D01*
X4780548Y-13913167D02*
X4809119Y-13913167D01*
X4809119Y-13913167D02*
X4828167Y-13922690D01*
X4828167Y-13922690D02*
X4837691Y-13932214D01*
X4837691Y-13932214D02*
X4847214Y-13951262D01*
X4847214Y-13951262D02*
X4847214Y-13998881D01*
X4847214Y-13998881D02*
X4837691Y-14017928D01*
X4837691Y-14017928D02*
X4828167Y-14027452D01*
X4828167Y-14027452D02*
X4809119Y-14036976D01*
X4809119Y-14036976D02*
X4751976Y-14036976D01*
X4751976Y-14036976D02*
X4732929Y-14027452D01*
X4732929Y-14027452D02*
X4723405Y-14017928D01*
X4971024Y-13836976D02*
X4990072Y-13836976D01*
X4990072Y-13836976D02*
X5009119Y-13846500D01*
X5009119Y-13846500D02*
X5018643Y-13856024D01*
X5018643Y-13856024D02*
X5028167Y-13875071D01*
X5028167Y-13875071D02*
X5037691Y-13913167D01*
X5037691Y-13913167D02*
X5037691Y-13960786D01*
X5037691Y-13960786D02*
X5028167Y-13998881D01*
X5028167Y-13998881D02*
X5018643Y-14017928D01*
X5018643Y-14017928D02*
X5009119Y-14027452D01*
X5009119Y-14027452D02*
X4990072Y-14036976D01*
X4990072Y-14036976D02*
X4971024Y-14036976D01*
X4971024Y-14036976D02*
X4951976Y-14027452D01*
X4951976Y-14027452D02*
X4942453Y-14017928D01*
X4942453Y-14017928D02*
X4932929Y-13998881D01*
X4932929Y-13998881D02*
X4923405Y-13960786D01*
X4923405Y-13960786D02*
X4923405Y-13913167D01*
X4923405Y-13913167D02*
X4932929Y-13875071D01*
X4932929Y-13875071D02*
X4942453Y-13856024D01*
X4942453Y-13856024D02*
X4951976Y-13846500D01*
X4951976Y-13846500D02*
X4971024Y-13836976D01*
X5243405Y-14036976D02*
X5243405Y-13836976D01*
X5329119Y-14036976D02*
X5329119Y-13932214D01*
X5329119Y-13932214D02*
X5319595Y-13913167D01*
X5319595Y-13913167D02*
X5300548Y-13903643D01*
X5300548Y-13903643D02*
X5271976Y-13903643D01*
X5271976Y-13903643D02*
X5252929Y-13913167D01*
X5252929Y-13913167D02*
X5243405Y-13922690D01*
X5452929Y-14036976D02*
X5433881Y-14027452D01*
X5433881Y-14027452D02*
X5424357Y-14017928D01*
X5424357Y-14017928D02*
X5414834Y-13998881D01*
X5414834Y-13998881D02*
X5414834Y-13941738D01*
X5414834Y-13941738D02*
X5424357Y-13922690D01*
X5424357Y-13922690D02*
X5433881Y-13913167D01*
X5433881Y-13913167D02*
X5452929Y-13903643D01*
X5452929Y-13903643D02*
X5481500Y-13903643D01*
X5481500Y-13903643D02*
X5500548Y-13913167D01*
X5500548Y-13913167D02*
X5510072Y-13922690D01*
X5510072Y-13922690D02*
X5519595Y-13941738D01*
X5519595Y-13941738D02*
X5519595Y-13998881D01*
X5519595Y-13998881D02*
X5510072Y-14017928D01*
X5510072Y-14017928D02*
X5500548Y-14027452D01*
X5500548Y-14027452D02*
X5481500Y-14036976D01*
X5481500Y-14036976D02*
X5452929Y-14036976D01*
X5633881Y-14036976D02*
X5614833Y-14027452D01*
X5614833Y-14027452D02*
X5605310Y-14008405D01*
X5605310Y-14008405D02*
X5605310Y-13836976D01*
X5786262Y-14027452D02*
X5767214Y-14036976D01*
X5767214Y-14036976D02*
X5729119Y-14036976D01*
X5729119Y-14036976D02*
X5710072Y-14027452D01*
X5710072Y-14027452D02*
X5700548Y-14008405D01*
X5700548Y-14008405D02*
X5700548Y-13932214D01*
X5700548Y-13932214D02*
X5710072Y-13913167D01*
X5710072Y-13913167D02*
X5729119Y-13903643D01*
X5729119Y-13903643D02*
X5767214Y-13903643D01*
X5767214Y-13903643D02*
X5786262Y-13913167D01*
X5786262Y-13913167D02*
X5795786Y-13932214D01*
X5795786Y-13932214D02*
X5795786Y-13951262D01*
X5795786Y-13951262D02*
X5700548Y-13970309D01*
X5871976Y-14027452D02*
X5891024Y-14036976D01*
X5891024Y-14036976D02*
X5929119Y-14036976D01*
X5929119Y-14036976D02*
X5948167Y-14027452D01*
X5948167Y-14027452D02*
X5957691Y-14008405D01*
X5957691Y-14008405D02*
X5957691Y-13998881D01*
X5957691Y-13998881D02*
X5948167Y-13979833D01*
X5948167Y-13979833D02*
X5929119Y-13970309D01*
X5929119Y-13970309D02*
X5900548Y-13970309D01*
X5900548Y-13970309D02*
X5881500Y-13960786D01*
X5881500Y-13960786D02*
X5871976Y-13941738D01*
X5871976Y-13941738D02*
X5871976Y-13932214D01*
X5871976Y-13932214D02*
X5881500Y-13913167D01*
X5881500Y-13913167D02*
X5900548Y-13903643D01*
X5900548Y-13903643D02*
X5929119Y-13903643D01*
X5929119Y-13903643D02*
X5948167Y-13913167D01*
X6024357Y-14113167D02*
X6033881Y-14103643D01*
X6033881Y-14103643D02*
X6052929Y-14075071D01*
X6052929Y-14075071D02*
X6062453Y-14056024D01*
X6062453Y-14056024D02*
X6071976Y-14027452D01*
X6071976Y-14027452D02*
X6081500Y-13979833D01*
X6081500Y-13979833D02*
X6081500Y-13941738D01*
X6081500Y-13941738D02*
X6071976Y-13894119D01*
X6071976Y-13894119D02*
X6062453Y-13865548D01*
X6062453Y-13865548D02*
X6052929Y-13846500D01*
X6052929Y-13846500D02*
X6033881Y-13817928D01*
X6033881Y-13817928D02*
X6024357Y-13808405D01*
M02*
